<?xml version="1.0" standalone="no"?>
<!DOCTYPE svg PUBLIC "-//W3C//DTD SVG 1.1//EN" "http://www.w3.org/Graphics/SVG/1.1/DTD/svg11.dtd" >
<svg>
<metadata>
Created by FontForge 20090622 at Mon Jun 13 12:31:04 2016
 By deploy user
Copyright (c) 2002, 2005 Parachute&#194;&#168;, www.parachute.gr.  All rights reserved.
</metadata>
<defs>
<font id="PFDinTextPro-Italic" horiz-adv-x="1818" >
  <font-face 
    font-family="PF DinText Pro"
    font-weight="400"
    font-style="italic"
    font-stretch="normal"
    units-per-em="1000"
    panose-1="2 0 5 6 2 0 0 9 0 4"
    ascent="750"
    descent="-250"
    x-height="494"
    cap-height="696"
    bbox="-310 -275 1760 940"
    underline-thickness="60"
    underline-position="-40"
    slope="-12"
    unicode-range="U+0020-U+FB05"
  />
<missing-glyph horiz-adv-x="440" 
d="M0 700h440v-700h-440v700zM360 650h-280l140 -255zM390 95v510l-140 -255zM360 50l-140 255l-140 -255h280zM50 95l140 255l-140 255v-510z" />
    <glyph glyph-name="fj" unicode="fj" horiz-adv-x="478" 
d="M135 496l16 80q9 47 26.5 78t41.5 49t53 25.5t61 7.5q104 0 146 -64l-56 -56q-13 20 -36 31.5t-63 11.5q-43 0 -62.5 -20t-27.5 -61l-16 -82h237l-105 -563q-12 -60 -47 -97.5t-102 -37.5h-49l15 75h6h10h9t5 1q27 1 46 17.5t25 47.5l91 485h-155l-111 -573h-83l111 573
h-61l14 72h61z" />
    <glyph glyph-name="ffj" unicode="ffj" horiz-adv-x="727" 
d="M460 496h238l-106 -563q-6 -30 -17 -55t-29 -42.5t-45 -27.5t-65 -10h-42l15 75h6h10h9t5 1q27 1 46 17.5t25 47.5l94 485h-158l-111 -573h-83l111 573h-158l-111 -573h-83l111 573h-61l14 72h61l12 60q9 47 28 78t44.5 49t55.5 25t62 7q31 0 63.5 -5.5t52.5 -17.5
q30 25 59.5 34.5t68.5 9.5q51 0 89 -15.5t61 -48.5l-61 -56q-16 20 -37.5 31.5t-61.5 11.5q-38 0 -63 -20t-33 -61zM331 639q-84 0 -100 -81l-12 -62h158l16 80q4 24 12 45q-14 8 -31.5 13t-42.5 5z" />
    <glyph glyph-name="ff" unicode="ff" horiz-adv-x="520" 
d="M614 731l-15 -76h-55q-32 0 -46 -19t-19 -45l-19 -95h104l-14 -72h-104l-111 -573h-83l111 573h-158l-111 -573h-82l110 573h-61l14 72h61l12 60q9 47 28 78t44.5 49t56 25.5t64.5 7.5q29 0 58.5 -5t49.5 -16q21 18 42 27t50 9h73zM219 496h158l21 105l2 10.5t3 10.5
q-26 17 -75 17q-43 0 -66 -20t-31 -61z" />
    <glyph glyph-name="fi" unicode="fi" horiz-adv-x="478" 
d="M284 0l82 424h-158l-111 -573h-83l111 573h-61l14 72h61l15 80q10 50 28 81t42.5 48.5t53.5 24t60 6.5q51 0 92.5 -16t63.5 -48l-67 -56q-13 20 -36 31.5t-63 11.5q-35 0 -58.5 -20t-31.5 -61l-16 -82h241l-96 -496h-83z" />
    <glyph glyph-name="fl" unicode="fl" horiz-adv-x="495" 
d="M407 0q-26 0 -47 7.5t-34.5 23t-18 39t1.5 55.5l103 523q-14 5 -32 8t-42 3q-85 0 -100 -81l-16 -82h107l-14 -72h-107l-111 -573h-83l111 573h-61l14 72h61l15 80q9 47 28 78t44.5 49t56.5 25.5t65 7.5q20 0 59 -5t98 -24l-113 -577q-5 -23 3.5 -39t37.5 -16h23l-15 -75
h-34z" />
    <glyph glyph-name="ffi" unicode="ffi" horiz-adv-x="727" 
d="M525 0l82 424h-158l-111 -573h-83l111 573h-158l-111 -573h-83l111 573h-61l14 72h61l12 60q9 47 27.5 78t44 49t56.5 25.5t65 7.5q31 0 62 -6t51 -18q29 25 57.5 34.5t67.5 9.5q51 0 92.5 -16t63.5 -48l-67 -56q-13 20 -36 31.5t-63 11.5q-38 0 -61.5 -20t-31.5 -61
l-16 -82h241l-96 -496h-83zM334 639q-85 0 -100 -81l-12 -62h158l15 80q3 12 5.5 23t7.5 22q-14 8 -31.5 13t-42.5 5z" />
    <glyph glyph-name="ffl" unicode="ffl" horiz-adv-x="737" 
d="M334 639q-85 0 -100 -81l-12 -62h158l15 80q3 12 5.5 23t7.5 22q-14 8 -31.5 13t-42.5 5zM590 736q20 0 59 -5t98 -24l-113 -577q-5 -23 3.5 -39t37.5 -16h23l-15 -75h-34q-26 0 -47 7.5t-34.5 23t-18 39t1.5 55.5l103 523q-14 5 -32 8t-43 3q-84 0 -100 -81l-16 -82h105
l-14 -72h-105l-111 -573h-83l111 573h-158l-111 -573h-83l111 573h-61l14 72h61l12 60q9 47 28.5 78t46 49t58.5 25.5t66 7.5q31 0 59 -6t48 -18q29 25 61 34.5t72 9.5z" />
    <glyph glyph-name="ft" unicode="ft" horiz-adv-x="512" 
d="M208 424l-111 -572h-83l111 572h-61l14 72h61l20 105q25 130 144 130h69l-15 -76h-51q-32 0 -46.5 -19t-19.5 -45l-18 -95h158l24 123h82l-24 -123h76l-14 -71h-76l-56 -289q-2 -12 -2.5 -23t3.5 -19.5t12.5 -14t23.5 -5.5h43l-14 -74h-59q-51 0 -77.5 29.5t-15.5 86.5
l60 309z" />
    <glyph glyph-name=".notdef" horiz-adv-x="440" 
d="M0 700h440v-700h-440v700zM360 650h-280l140 -255zM390 95v510l-140 -255zM360 50l-140 255l-140 -255h280zM50 95l140 255l-140 255v-510z" />
    <glyph glyph-name="quotedbl" unicode="&#x22;" horiz-adv-x="309" 
d="M238 494l39 202h64l-39 -202h-64zM117 494l39 202h64l-39 -202h-64z" />
    <glyph glyph-name="numbersign" unicode="#" horiz-adv-x="500" 
d="M28 273h100l50 152h-92l11 57h100l70 212h61l-70 -212h113l70 212h61l-70 -212h99l-11 -57h-107l-50 -152h99l-12 -57h-107l-70 -216h-61l70 216h-113l-70 -216h-61l70 216h-92zM189 273h113l50 152h-113z" />
    <glyph glyph-name="dollar" unicode="$" horiz-adv-x="500" 
d="M187 -4q-47 5 -91 24t-80 54q14 15 26.5 31t25.5 31q28 -26 60.5 -43t72.5 -22l48 243q-23 10 -49 24.5t-47.5 34.5t-35.5 47t-14 64q0 44 17.5 81t47 64.5t69.5 43.5t85 18l16 81h50l-17 -84q40 -5 78.5 -18.5t64.5 -35.5q-12 -16 -23.5 -33l-22.5 -33
q-23 17 -51.5 28.5t-59.5 16.5l-46 -233q28 -12 56 -25.5t50.5 -33t36 -47.5t13.5 -69v-8t-1 -9q-3 -44 -23 -79t-51.5 -59.5t-71.5 -38.5t-84 -16l-21 -111h-50zM379 196q0 20 -8 35.5t-20.5 27.5t-27.5 21t-28 15l-44 -224q27 3 50 13t40.5 26t27.5 37.5t10 48.5zM192 487
q0 -16 7 -29t17.5 -24t23.5 -19.5t25 -14.5l42 215q-21 -3 -41.5 -12.5t-37 -25.5t-26.5 -38.5t-10 -51.5z" />
    <glyph glyph-name="ampersand" unicode="&#x26;" horiz-adv-x="542" 
d="M264 442q8 -20 24.5 -53l34.5 -69.5l34.5 -70t24.5 -52.5q20 27 32 54.5t21 53.5l71 -6q-14 -42 -35.5 -87.5t-53.5 -86.5l64 -125h-94l-34 65q-43 -38 -86.5 -54.5t-88.5 -16.5q-71 0 -105 41t-34 107q0 73 41.5 131t121.5 107l-28.5 69.5t-14.5 83.5q0 35 13 66
t36.5 54t57 36.5t74.5 13.5q43 0 80 -16t60 -53l-63 -47q-14 22 -37 31.5t-52 9.5q-42 0 -64.5 -27t-22.5 -65q0 -39 23 -94zM324 125l-45.5 96l-45.5 96q-115 -77 -115 -167q0 -36 19.5 -59.5t62.5 -23.5q32 0 66.5 18t57.5 40z" />
    <glyph glyph-name="quotesingle" unicode="'" horiz-adv-x="241" 
d="M141 494l39 202h63l-39 -202h-63z" />
    <glyph glyph-name="parenleft" unicode="(" horiz-adv-x="284" 
d="M170 -120q-51 72 -80.5 156.5t-29.5 173.5q0 76 22 148.5t59.5 138.5t87 124.5t103.5 108.5l39 -28q-47 -51 -88 -110t-71 -123.5t-47 -133.5t-17 -140q0 -73 17.5 -145.5t52.5 -137.5l-48 -32v0z" />
    <glyph glyph-name="parenright" unicode=")" horiz-adv-x="284" 
d="M-57 -88q47 50 88 109t71 124t47.5 134t17.5 139q0 73 -18 146t-53 138l50 28q51 -72 79.5 -154t28.5 -170q0 -78 -22.5 -151t-60 -139.5t-88 -126t-105.5 -109.5z" />
    <glyph glyph-name="asterisk" unicode="*" horiz-adv-x="361" 
d="M345 442l-31.5 -21.5l-32.5 -21.5l-42 104l-41.5 -52.5l-41.5 -52.5q-11 11 -24 21.5t-24 21.5l96 91l-53.5 15l-53.5 15l31 65l102 -47l14 120h68l-34 -120l60 23l60 24l7 -66l-120 -29z" />
    <glyph glyph-name="plus" unicode="+" horiz-adv-x="500" 
d="M292 262l-37 -192h-64l37 192h-189l13 64h189l37 190h64l-37 -190h188l-13 -64h-188z" />
    <glyph glyph-name="comma" unicode="," horiz-adv-x="252" 
d="M53 -113h-51l54 113h-28l21 111h103l-21 -109z" />
    <glyph glyph-name="hyphen" unicode="-" horiz-adv-x="392" 
d="M56 230l15 75h288l-15 -75h-288z" />
    <glyph glyph-name="period" unicode="." horiz-adv-x="243" 
d="M30 0l21 111h103l-21 -111h-103z" />
    <glyph glyph-name="slash" unicode="/" horiz-adv-x="317" 
d="M15 -42h-64l399 767h65z" />
    <glyph glyph-name="zero" unicode="0" horiz-adv-x="500" 
d="M190 -6q-34 0 -64 10.5t-52.5 30t-35.5 47.5t-13 63q0 25 4 45l62 316q8 41 26 77t45.5 62.5t65 41.5t83.5 15q34 0 64 -10.5t52 -30.5t35 -48t13 -62q0 -25 -4 -45l-62 -316q-8 -41 -25 -77t-44 -62.5t-64.5 -41.5t-85.5 -15zM393 532q0 42 -25 67.5t-67 25.5
q-27 0 -49.5 -10t-39 -27t-27 -40t-15.5 -48l-59 -304q-2 -8 -3 -16t-1 -16q0 -42 24 -67t66 -25q27 0 49.5 10t39.5 26.5t28 39t16 48.5l59 304q2 8 3 16t1 16z" />
    <glyph glyph-name="one" unicode="1" horiz-adv-x="500" 
d="M222 0h-80l119 610l-102 -66l18 87l99 65h82z" />
    <glyph glyph-name="two" unicode="2" horiz-adv-x="500" 
d="M5 0l15 82l334 341q58 60 58 114q0 35 -23.5 60t-72.5 25q-44 0 -78 -30t-51 -78l-85 16q28 81 88.5 125.5t134.5 44.5q37 0 69.5 -9.5t55.5 -29t36.5 -48t13.5 -67.5q1 -48 -21 -85t-57 -73l-301 -307h285l-15 -81h-386z" />
    <glyph glyph-name="three" unicode="3" horiz-adv-x="500" 
d="M311 701q43 0 75.5 -11.5t53.5 -31.5t31.5 -47t10.5 -58q0 -23 -5.5 -48t-19.5 -49.5t-37 -47.5t-57 -42q38 -24 52 -56.5t14 -66.5q0 -56 -20 -102t-53 -79t-77 -51t-92 -18q-32 0 -62 7.5t-54 25t-38.5 46.5t-14.5 72l83 12q2 -45 27.5 -66t65.5 -21q31 0 58.5 11.5
t48 33t32.5 51.5t12 67q0 48 -25 72.5t-70 24.5h-50l14 72h41q29 0 54.5 10.5t45 28.5t31 42.5t11.5 53.5q0 39 -25 63t-66 24q-17 0 -35.5 -5.5t-35.5 -16.5t-31 -28t-23 -40l-79 14q10 36 31 65t49 48.5t61 30t68 10.5z" />
    <glyph glyph-name="four" unicode="4" horiz-adv-x="500" 
d="M392 106l-21 -106h-79l20 106h-296l16 80l335 510h87l-336 -513h209l40 205h80l-40 -205h57l-15 -77h-57z" />
    <glyph glyph-name="five" unicode="5" horiz-adv-x="500" 
d="M440 325q0 -63 -12.5 -123t-41.5 -106.5t-78 -74.5t-121 -28q-32 0 -62 7.5t-54 25t-38.5 46.5t-14.5 72l83 12q2 -45 27.5 -66t65.5 -21q46 0 77 20.5t49.5 53.5t26 74t7.5 82q0 39 -19.5 66t-73.5 27q-32 0 -60 -16.5t-51 -45.5h-81l72 366h363l-16 -81h-286l-37 -191
q34 26 66.5 36t64.5 10q70 0 107 -39.5t37 -105.5z" />
    <glyph glyph-name="six" unicode="6" horiz-adv-x="500" 
d="M208 -6q-35 0 -65 12t-51.5 33.5t-33.5 51t-12 65.5q0 42 13.5 84.5t36.5 76.5l266 379h91l-212 -303l2 -1q15 6 33 9t34 3q34 0 60.5 -12t43.5 -32.5t26 -48.5t9 -61q0 -54 -17 -100.5t-48.5 -81t-76 -54.5t-99.5 -20zM363 237q0 44 -22.5 70t-67.5 26
q-33 0 -59.5 -14.5t-44.5 -38.5t-27.5 -54t-9.5 -60q0 -43 22.5 -69.5t67.5 -26.5q32 0 58 15t44.5 39t28.5 54t10 59z" />
    <glyph glyph-name="seven" unicode="7" horiz-adv-x="500" 
d="M109 0h-90l357 615h-212l-20 -104h-81l36 185h381l-16 -85z" />
    <glyph glyph-name="eight" unicode="8" horiz-adv-x="500" 
d="M186 -6q-36 0 -67 11.5t-53.5 33t-35.5 52t-13 67.5q0 31 9 63t26.5 59.5t42 49t55.5 32.5q-29 20 -44 48t-15 63q0 47 19 89t51 73t74 49t89 18q34 0 63 -11.5t50 -32.5t33 -50t12 -63q0 -59 -31.5 -110t-85.5 -76q19 -8 32 -22t21 -31.5t11.5 -37t3.5 -38.5
q0 -52 -19.5 -95.5t-53.5 -74.5t-78.5 -48.5t-95.5 -17.5zM400 535q0 42 -24.5 67.5t-66.5 25.5q-30 0 -55 -12.5t-43 -32.5t-28.5 -47t-10.5 -55q0 -41 26 -64t66 -23q29 0 54 11.5t43 30.5t28.5 44.5t10.5 54.5zM353 224q0 45 -29.5 72.5t-73.5 27.5q-29 0 -56.5 -12
t-48.5 -32.5t-34 -47.5t-13 -56q0 -45 29 -74.5t74 -29.5q30 0 57.5 12.5t48.5 33.5t33.5 48.5t12.5 57.5z" />
    <glyph glyph-name="nine" unicode="9" horiz-adv-x="500" 
d="M291 702q38 0 69 -12t52.5 -33.5t33.5 -51t12 -65.5q0 -42 -14.5 -84.5t-37.5 -76.5l-267 -379h-93l216 309l-3 1q-26 -11 -60 -11q-35 0 -62 11.5t-45.5 31.5t-28.5 47.5t-10 60.5q0 54 16 100t46.5 79.5t75 53t100.5 19.5zM137 459q0 -44 22 -70t67 -26q33 0 59.5 14.5
t44.5 38.5t27.5 54t9.5 60q0 43 -22.5 69.5t-67.5 26.5q-32 0 -58 -15t-44 -39t-28 -54t-10 -59z" />
    <glyph glyph-name="colon" unicode=":" horiz-adv-x="238" 
d="M24 0l21 111h103l-21 -111h-103zM79 285l21 111h103l-21 -111h-103z" />
    <glyph glyph-name="semicolon" unicode=";" horiz-adv-x="238" 
d="M82 285l21 111h103l-21 -111h-103zM52 -113h-51l54 113h-28l21 111h103l-21 -109z" />
    <glyph glyph-name="less" unicode="&#x3c;" horiz-adv-x="500" 
d="M422 63l-368 202l12 60l446 203l-14 -75l-357 -162l295 -161z" />
    <glyph glyph-name="equal" unicode="=" horiz-adv-x="500" 
d="M58 357l13 67h441l-13 -67h-441zM21 165l13 67h441l-13 -67h-441z" />
    <glyph glyph-name="greater" unicode="&#x3e;" horiz-adv-x="500" 
d="M30 137l357 161l-295 162l14 68l368 -203l-12 -60l-446 -202z" />
    <glyph glyph-name="question" unicode="?" horiz-adv-x="497" 
d="M335 700q40 0 73.5 -11.5t57.5 -32t37.5 -48.5t13.5 -62q0 -38 -11 -66.5t-28 -52t-38.5 -42.5l-43.5 -37q-31 -26 -56.5 -53.5t-32.5 -60.5l-10 -50h-87l10 52q7 35 26.5 64.5t48.5 55.5q18 21 41 40.5t43 39.5t33.5 42.5t13.5 48.5q0 15 -5 31t-17 29.5t-31.5 22
t-47.5 8.5q-35 0 -60.5 -13t-42.5 -32t-26 -41t-12 -39l-89 21q32 99 90 142.5t150 43.5zM172 0l19 98h90l-19 -98h-90z" />
    <glyph glyph-name="at" unicode="@" horiz-adv-x="827" 
d="M561 240q-5 -24 6 -40t28 -16q18 0 43 10.5t48.5 38t40 74t16.5 118.5q0 54 -19.5 95t-52 68.5t-75.5 42t-91 14.5q-79 0 -146 -29.5t-115.5 -79.5t-76 -117.5t-27.5 -143.5q0 -118 66 -186.5t195 -68.5q46 0 99 12.5t110 35.5l17 -62q-54 -20 -112.5 -32.5t-119.5 -12.5
q-72 0 -132 20.5t-103 60t-66.5 96t-23.5 128.5q0 93 33.5 173t92 139t138 93t171.5 34q67 0 123.5 -20t97.5 -56t63.5 -87t22.5 -112q0 -80 -20.5 -137.5t-53 -95.5t-71.5 -56t-75 -18q-38 0 -63.5 16.5t-30.5 44.5h-5q-17 -22 -47.5 -39.5t-71.5 -17.5q-59 0 -87.5 36
t-28.5 89q0 42 10.5 90t33 88.5t59 67t88.5 26.5q61 0 93 -48l3 1l8 43h64zM326 264q0 -29 15 -51t56 -22q34 0 57.5 20t38 49t21 62.5t6.5 59.5q0 35 -15 57t-54 22q-36 0 -60.5 -22.5t-38.5 -53.5t-20 -65t-6 -56z" />
    <glyph glyph-name="A" unicode="A" horiz-adv-x="586" 
d="M450 0l-24 160h-283l-86 -160h-93l385 696h77l114 -696h-90zM389 431l-20 158h-2l-79 -154l-106 -199h235z" />
    <glyph glyph-name="B" unicode="B" horiz-adv-x="586" 
d="M34 0l136 696h238q39 0 73 -8.5t59 -27.5t39.5 -48.5t14.5 -72.5q0 -69 -36.5 -116t-102.5 -65l-1 -3q47 -16 72 -51.5t25 -84.5q0 -46 -18.5 -86t-49 -69.5t-71.5 -46.5t-86 -17h-292zM241 619l-44 -225h161q29 0 56 9t47.5 26.5t33 42t12.5 55.5q0 24 -10 41.5t-26 29
t-37 16.5t-42 5h-151zM183 318l-47 -237h176q30 0 57.5 10.5t48.5 29t33.5 44.5t12.5 57q0 47 -31 71.5t-75 24.5h-175z" />
    <glyph glyph-name="C" unicode="C" horiz-adv-x="543" 
d="M531 142q-41 -74 -110 -111t-154 -37q-53 0 -93 16.5t-66.5 44.5t-39.5 65.5t-13 80.5q0 30 6 60l38 190q10 51 31 96.5t54.5 79.5t80 54t107.5 20q85 0 141.5 -40.5t78.5 -106.5l-84 -37q-5 19 -17 38t-29 33.5t-40 23.5t-51 9q-44 0 -76 -16t-54.5 -41.5t-36 -58
t-19.5 -65.5l-36 -181q-2 -11 -3 -22t-1 -22q0 -28 5.5 -53t20 -43.5t40 -29.5t64.5 -11q54 0 101 28.5t73 75.5z" />
    <glyph glyph-name="D" unicode="D" horiz-adv-x="606" 
d="M393 696q44 0 83 -10t68.5 -32t46.5 -57t17 -84q0 -45 -8 -102.5t-20 -112t-26.5 -100t-26.5 -66.5q-24 -40 -52 -65.5t-59.5 -40.5t-66 -20.5t-70.5 -5.5h-245l135 696h224zM240 615l-104 -534h135q49 0 85.5 14t62.5 40t42 62.5t25 81.5l26 133q4 20 5.5 37t1.5 32
q0 37 -10.5 63t-29 41.5t-45 22.5t-59.5 7h-135z" />
    <glyph glyph-name="E" unicode="E" horiz-adv-x="532" 
d="M34 0l136 696h421l-16 -81h-335l-43 -225h294l-15 -77h-294l-46 -232h365l-15 -81h-452z" />
    <glyph glyph-name="F" unicode="F" horiz-adv-x="514" 
d="M240 615l-44 -230h294l-15 -77h-294l-60 -308h-87l136 696h426l-16 -81h-340z" />
    <glyph glyph-name="G" unicode="G" horiz-adv-x="586" 
d="M376 701q85 0 137 -38t77 -109l-86 -37q-9 43 -44.5 71t-81.5 28q-45 0 -79 -15t-57.5 -39.5t-38 -56.5t-20.5 -65l-35 -181q-2 -14 -3.5 -26.5t-1.5 -25.5q0 -27 6.5 -51t21 -42t37 -28.5t55.5 -10.5q36 0 67.5 13t57 35.5t43 53.5t25.5 67l10 49h-144l15 80h233
l-27 -135q-11 -53 -36 -97.5t-62 -77t-85 -51t-103 -18.5q-53 0 -91 15.5t-63.5 43t-37.5 64t-12 78.5q0 17 2 33t5 33l38 190q10 51 31.5 96.5t55.5 79.5t81.5 54t109.5 20z" />
    <glyph glyph-name="H" unicode="H" horiz-adv-x="623" 
d="M423 0l60 313h-301l-61 -313h-87l136 696h86l-59 -306h301l60 306h86l-135 -696h-86z" />
    <glyph glyph-name="I" unicode="I" horiz-adv-x="236" 
d="M34 0l136 696h86l-135 -696h-87z" />
    <glyph glyph-name="J" unicode="J" horiz-adv-x="458" 
d="M392 212q-12 -65 -33.5 -107t-51 -66.5t-67 -34.5t-82.5 -10q-51 0 -95.5 20t-65.5 52l61 58q20 -23 47 -36.5t52 -13.5q28 0 51.5 6.5t43 24t34.5 48t24 78.5l90 465h86z" />
    <glyph glyph-name="K" unicode="K" horiz-adv-x="606" 
d="M461 0l-133 358l-171 -168l-36 -190h-87l136 696h86l-72 -376l3 1l156 161l217 214h105l-270 -270l162 -426h-96z" />
    <glyph glyph-name="L" unicode="L" horiz-adv-x="532" 
d="M34 0l136 696h86l-120 -615h345l-15 -81h-432z" />
    <glyph glyph-name="M" unicode="M" horiz-adv-x="733" 
d="M543 0l97 494h-4l-78 -131l-168 -260h-76l-67 268l-27 123h-3l-96 -494h-87l136 696h86l81 -325l36 -162h3l98 161l206 326h85l-136 -696h-86z" />
    <glyph glyph-name="N" unicode="N" horiz-adv-x="660" 
d="M463 0l-173 398l-61 152l-3 -1l-105 -549h-87l136 696h85l166 -384l67 -164l3 -1l106 549h85l-135 -696h-84z" />
    <glyph glyph-name="O" unicode="O" horiz-adv-x="579" 
d="M366 701q49 0 90 -15t70.5 -42t46 -64.5t16.5 -82.5q0 -24 -4.5 -54t-10.5 -62.5t-13.5 -65.5t-13.5 -63q-12 -58 -35.5 -105.5t-58.5 -81.5t-82 -52.5t-107 -18.5q-59 0 -100.5 16t-67.5 44t-38 65.5t-12 80.5q0 24 4.5 55.5t11 65t14.5 67t14 61.5q12 53 32.5 99
t53.5 80t79.5 53.5t110.5 19.5zM360 622q-47 0 -79.5 -16.5t-55 -42t-35 -58t-18.5 -63.5l-36 -185q-7 -36 -5 -69.5t17 -59t44.5 -41t78.5 -15.5q40 0 71.5 14.5t55 39t39.5 58.5t25 73l13 57t13 60t10 58t4 50q0 62 -36.5 101t-105.5 39z" />
    <glyph glyph-name="P" unicode="P" horiz-adv-x="561" 
d="M121 0h-87l136 696h245q42 0 77 -11t60.5 -33.5t39.5 -55.5t14 -77q0 -53 -20.5 -97t-55 -75.5t-80.5 -49t-97 -17.5h-178zM516 508q0 54 -32.5 80.5t-83.5 26.5h-160l-49 -254h169q32 0 60.5 11t49.5 30.5t33.5 46.5t12.5 59z" />
    <glyph glyph-name="Q" unicode="Q" horiz-adv-x="586" 
d="M366 701q49 0 90 -15t70.5 -42t46 -64.5t16.5 -82.5q0 -24 -4.5 -54t-10.5 -62.5t-13.5 -65.5t-13.5 -63q-18 -83 -57 -143l66 -64l-59 -60l-65 62q-33 -26 -75 -39.5t-93 -13.5q-59 0 -100.5 16t-67.5 44t-38 65.5t-12 80.5q0 24 4.5 55.5t11 65t14.5 67t14 61.5
q12 53 32.5 99t53.5 80t79.5 53.5t110.5 19.5zM360 622q-47 0 -79.5 -16.5t-55 -42t-35 -58t-18.5 -63.5l-36 -185q-7 -36 -5 -69.5t17 -59t44.5 -41t78.5 -15.5q59 0 102 32l-89 87l62 59l83 -81q21 38 33 88l13 57t13 60t10 58t4 50q0 62 -36.5 101t-105.5 39z" />
    <glyph glyph-name="R" unicode="R" horiz-adv-x="586" 
d="M426 0l-91 306h-155l-59 -306h-87l136 696h271q42 0 75 -13.5t55 -38.5t32 -60t5 -78q-9 -81 -59 -127.5t-125 -63.5l98 -315h-96zM522 506q7 59 -26 86t-89 27h-166l-46 -236h173q28 0 54 8t47 23.5t35.5 38.5t17.5 53z" />
    <glyph glyph-name="S" unicode="S" horiz-adv-x="534" 
d="M353 702q57 0 110 -15.5t92 -43.5l-52 -73q-32 23 -73.5 35.5t-86.5 12.5q-23 0 -49.5 -6.5t-49 -20.5t-37.5 -36.5t-15 -55.5q0 -25 13 -42.5t31 -29t37 -18t30 -9.5q38 -10 75 -23.5t66.5 -35t48 -53.5t18.5 -79q0 -53 -22.5 -93.5t-60 -67.5t-86.5 -40.5t-103 -13.5
q-71 0 -133 22.5t-103 65.5l57 63q33 -31 80 -49t101 -18q34 0 65.5 7.5t56 23t39 39t14.5 54.5q0 25 -10.5 43.5t-28 31.5t-39 21.5t-43.5 14.5q-33 8 -67 19.5t-61 30.5t-44.5 48t-17.5 72q0 49 17.5 89t50 69t78.5 45t102 16z" />
    <glyph glyph-name="T" unicode="T" horiz-adv-x="476" 
d="M362 619l-121 -619h-86l120 619h-194l15 77h475l-15 -77h-194z" />
    <glyph glyph-name="U" unicode="U" horiz-adv-x="606" 
d="M549 232q-11 -54 -33 -97.5t-56.5 -75t-81.5 -48.5t-106 -17q-51 0 -93 17.5t-70 50t-39.5 78.5t-0.5 102l88 454h86l-86 -442q-8 -39 -4.5 -72t18 -56.5t41 -37t66.5 -13.5q72 0 122 45t65 124l88 452h86l-90 -464v0z" />
    <glyph glyph-name="V" unicode="V" horiz-adv-x="532" 
d="M255 147l93 195l177 354h97l-364 -696h-70l-89 696h90l40 -356l21 -193h5z" />
    <glyph glyph-name="W" unicode="W" horiz-adv-x="807" 
d="M463 535l-39 -88.5l-40 -88.5l-164 -358h-76l-36 696h87l19 -519h4l39 88.5l39 87.5l160 343h78l28 -350q4 -43 6.5 -85t6.5 -85h4l68 169l146 351h92l-306 -696h-76l-25 347l-12 188h-3z" />
    <glyph glyph-name="X" unicode="X" horiz-adv-x="513" 
d="M382 0l-105 289l-217 -289h-96l279 357l-130 339h91l94 -271l201 271h96l-262 -339l141 -357h-92z" />
    <glyph glyph-name="Y" unicode="Y" horiz-adv-x="498" 
d="M303 275l-54 -275h-82l54 275l-124 421h86l58 -201l34 -130l91 139l129 192h94z" />
    <glyph glyph-name="Z" unicode="Z" horiz-adv-x="495" 
d="M-8 0l15 77l438 542h-320l15 77h419l-14 -70l-440 -545h334l-15 -81h-432z" />
    <glyph glyph-name="bracketleft" unicode="[" horiz-adv-x="256" 
d="M11 -105l156 803h166l-11 -56h-92l-134 -691h92l-11 -56h-166z" />
    <glyph glyph-name="backslash" unicode="\" horiz-adv-x="317" 
d="M99 725h65l102 -767h-65z" />
    <glyph glyph-name="bracketright" unicode="]" horiz-adv-x="256" 
d="M-34 -105l11 56h91l134 691h-91l11 56h165l-156 -803h-165z" />
    <glyph glyph-name="asciicircum" unicode="^" horiz-adv-x="500" 
d="M46 328l274 367h60l131 -367h-71l-105 293l-218 -293h-71z" />
    <glyph glyph-name="underscore" unicode="_" horiz-adv-x="490" 
d="M-65 -129l12 60h490l-12 -60h-490z" />
    <glyph glyph-name="grave" unicode="`" horiz-adv-x="491" 
d="M316 554l-87 184l68 16l68 -185z" />
    <glyph glyph-name="a" unicode="a" horiz-adv-x="495" 
d="M277 501q36 0 70.5 -14.5t50.5 -46.5l3 1l13 54h77l-96 -495h-80l11 54l-3 2q-30 -34 -60 -48t-73 -14q-39 0 -66.5 13t-45 36.5t-26 55t-8.5 68.5q0 52 13.5 111t42 108.5t72.5 82t105 32.5zM125 165q0 -16 3.5 -33.5t13.5 -32.5t26.5 -25t43.5 -10q45 0 75.5 27
t50 66.5t28 84t8.5 79.5q0 46 -19.5 76t-69.5 30q-47 0 -78 -27t-49 -67t-25.5 -85.5t-7.5 -82.5z" />
    <glyph glyph-name="b" unicode="b" horiz-adv-x="486" 
d="M231 -6q-37 0 -68.5 14.5t-51.5 46.5h-2l-13 -55h-78l141 727h80l-55 -287h2q26 25 59 43t85 18q37 0 63 -11.5t42.5 -32t23.5 -49t7 -62.5q0 -53 -12 -115t-40 -114.5t-72.5 -87.5t-110.5 -35zM300 424q-46 0 -77 -26t-50 -64t-27 -81t-8 -78q0 -22 4.5 -41.5t14.5 -34
t26.5 -23t40.5 -8.5q47 0 78 28t49.5 68t26 83.5t7.5 74.5q0 45 -18.5 73.5t-66.5 28.5z" />
    <glyph glyph-name="c" unicode="c" horiz-adv-x="422" 
d="M387 62q-37 -32 -87.5 -50t-99.5 -18q-43 0 -75 14.5t-53 40t-31.5 60t-10.5 75.5q0 64 16.5 121.5t49 101t81.5 69t115 25.5q44 0 86 -17t70 -52l-60 -58q-19 22 -45 35.5t-56 13.5q-46 0 -79 -21t-54 -53.5t-31 -72t-10 -77.5q0 -28 5 -50.5t17 -39t32 -25.5t51 -9
q36 0 68 16.5t53 31.5l48 -61v0z" />
    <glyph glyph-name="d" unicode="d" horiz-adv-x="486" 
d="M362 248q5 25 6.5 56t-6 58t-26.5 45t-55 18q-31 0 -53 -12t-38 -32t-26.5 -45t-17.5 -50q-8 -28 -12 -56.5t-4 -50.5q0 -48 18 -76t69 -28q37 0 62.5 17.5t42 43.5t26 56t14.5 56zM314 0l10 54l-2 1q-29 -32 -65 -46.5t-71 -14.5q-41 0 -68.5 12.5t-43.5 34.5
t-22.5 51.5t-6.5 63.5q0 54 12 115t40 112t73.5 84.5t111.5 33.5q30 0 62.5 -11.5t54.5 -40.5h2l56 278h80l-143 -727h-80z" />
    <glyph glyph-name="e" unicode="e" horiz-adv-x="470" 
d="M285 501q81 0 126 -36t45 -99q0 -31 -12.5 -61t-45.5 -53t-89 -37.5t-143 -14.5h-21.5t-22.5 1q-2 -11 -2 -17.5v-10.5q0 -57 24.5 -80t73.5 -23q15 0 32.5 4t35.5 10.5t34 15t28 16.5l40 -59q-37 -30 -85.5 -46.5t-96.5 -16.5q-85 0 -125 46t-40 134q0 56 13.5 114
t43 105.5t76 77.5t111.5 30zM280 424q-35 0 -60 -13t-42 -34t-27 -48t-16 -56q12 -1 22.5 -1h21.5q64 0 102.5 9t59.5 22t27.5 28t6.5 26q0 32 -24 49.5t-71 17.5z" />
    <glyph glyph-name="f" unicode="f" horiz-adv-x="270" 
d="M108 -69q-6 -28 -18 -52.5t-31 -43t-45 -29t-60 -10.5q-11 0 -23.5 1t-25.5 4l15 76q17 -4 34 -4q21 0 34.5 6.5t21.5 16.5t12.5 22t6.5 23l95 482h-68l14 72h68l21 102q6 28 17.5 53t30 43t45 28t62.5 10q25 0 48 -4l-15 -76q-19 4 -36 4q-21 0 -34.5 -6.5t-21 -16.5
t-11.5 -22t-6 -23l-19 -92h92l-14 -72h-92z" />
    <glyph glyph-name="g" unicode="g" horiz-adv-x="501" 
d="M163 -207q-20 0 -41.5 4t-42.5 12.5t-39.5 20.5t-31.5 27l51 60q25 -20 51 -33.5t58 -13.5q43 0 70.5 16t44 42t25.5 59.5t16 68.5h-2q-31 -32 -67 -46.5t-77 -14.5q-39 0 -64.5 12.5t-41 34.5t-22 51.5t-6.5 63.5q0 54 11.5 114.5t38.5 111.5t71.5 85t110.5 34
q37 0 69 -14.5t52 -46.5h2l11 55h80l-94 -496q-9 -50 -26 -88.5t-45 -64.5t-67.5 -40t-94.5 -14zM127 163q0 -45 20 -71.5t68 -26.5q44 0 74 27.5t49 67.5t27 85t8 80q0 44 -21 72t-69 28q-47 0 -77 -27.5t-47.5 -67.5t-24.5 -85.5t-7 -81.5z" />
    <glyph glyph-name="h" unicode="h" horiz-adv-x="518" 
d="M331 0l58 297q5 24 4 46.5t-9.5 39.5t-26 27t-46.5 10q-24 0 -47.5 -8.5t-43.5 -24.5t-34.5 -39t-20.5 -51l-58 -297h-80l140 727h80l-56 -293h3q32 32 71 49.5t78 17.5q31 0 58.5 -11t46.5 -33.5t26.5 -57.5t-1.5 -82l-61 -317h-81z" />
    <glyph glyph-name="i" unicode="i" horiz-adv-x="220" 
d="M149 614l16 82h80l-16 -82h-80zM30 0l96 495h80l-96 -495h-80z" />
    <glyph glyph-name="j" unicode="j" horiz-adv-x="238" 
d="M159 614l16 82h81l-16 -82h-81zM108 -67q-12 -60 -45 -97.5t-100 -37.5h-49l14 77h30q27 0 45.5 16.5t24.5 47.5l108 556h81z" />
    <glyph glyph-name="k" unicode="k" horiz-adv-x="496" 
d="M359 0l-112 248l-113 -107l-27 -141h-80l141 727h80l-91 -472l3 1l253 239h98l-202 -195l139 -300h-89z" />
    <glyph glyph-name="l" unicode="l" horiz-adv-x="238" 
d="M146 0q-26 0 -47 7.5t-34.5 23t-18 39t1.5 55.5l120 602h80l-117 -597q-5 -23 5 -39t36 -16h23l-15 -75h-34z" />
    <glyph glyph-name="m" unicode="m" horiz-adv-x="830" 
d="M641 0l58 297q11 57 -4.5 90t-73.5 33q-24 0 -48 -8.5t-44 -24.5t-34 -39t-20 -51l-57 -297h-82l58 297q11 57 -7.5 90.5t-80.5 33.5q-49 0 -86.5 -33.5t-48.5 -90.5l-58 -297h-81l96 495h81l-11 -58h2q30 32 69.5 48t77.5 16q50 0 80.5 -19t50.5 -52q0 1 1 0
q42 42 83.5 56.5t89.5 14.5q35 0 63 -13t46 -37t25 -57.5t-1 -74.5l-64 -319h-80z" />
    <glyph glyph-name="n" unicode="n" horiz-adv-x="514" 
d="M328 0l58 297q5 24 5.5 47t-7.5 41t-27 28.5t-52 10.5q-24 0 -47 -9.5t-42.5 -26.5t-33.5 -40.5t-19 -50.5l-58 -297h-81l96 495h81l-11 -59h3q30 32 72.5 48.5t81.5 16.5q34 0 60.5 -11.5t44 -33t23.5 -53.5t-2 -73l-64 -330h-81z" />
    <glyph glyph-name="o" unicode="o" horiz-adv-x="495" 
d="M287 500q80 0 127.5 -47.5t47.5 -127.5q0 -57 -12 -116t-40 -107t-74 -78t-113 -30q-88 0 -134.5 44t-46.5 126q0 66 15 127t45 107.5t76 74t109 27.5zM278 427q-45 0 -75 -26t-48 -64.5t-25.5 -83.5t-7.5 -82q0 -15 4 -33t15 -33.5t30 -26t50 -10.5q45 0 75 23t49 59.5
t27 81t8 88.5q0 55 -28.5 81t-73.5 26z" />
    <glyph glyph-name="p" unicode="p" horiz-adv-x="501" 
d="M203 495l-11 -54l3 -1q29 29 65.5 45t78.5 16q38 0 63.5 -13.5t41 -36t22 -52.5t6.5 -63q0 -54 -12.5 -114t-40.5 -111t-73.5 -84t-110.5 -33q-38 0 -68.5 15t-47.5 47l-2 -1l-49 -256h-81l136 696h80zM148 185q0 -21 4 -41t14 -35t26.5 -24t40.5 -9q45 0 74.5 24.5
t47.5 61t25 79t7 78.5q0 45 -19 73t-68 28q-41 0 -70 -24t-47 -60t-26.5 -77t-8.5 -74z" />
    <glyph glyph-name="q" unicode="q" horiz-adv-x="501" 
d="M286 501q35 0 67.5 -16.5t51.5 -47.5l2 1l12 57h80l-130 -696h-87l51 256l-2 1q-31 -29 -62.5 -45.5t-74.5 -16.5q-38 0 -65.5 13.5t-45 37t-25.5 54t-8 64.5q0 54 12 113.5t39.5 109.5t73 82.5t111.5 32.5zM139 176q0 -45 19 -72.5t68 -27.5q42 0 71 25t47 61.5t26 78
t8 74.5q0 22 -4 41.5t-14 34.5t-26 23.5t-41 8.5q-45 0 -75 -25t-47.5 -62.5t-24.5 -80.5t-7 -79z" />
    <glyph glyph-name="r" unicode="r" horiz-adv-x="363" 
d="M369 401q-14 10 -34 14.5t-33 4.5q-49 0 -87.5 -32.5t-49.5 -92.5l-58 -295h-81l96 495h82l-14 -67h4q29 42 68.5 58t81.5 15q24 -1 42.5 -6.5t26.5 -12.5z" />
    <glyph glyph-name="s" unicode="s" horiz-adv-x="439" 
d="M194 -6q-25 0 -53 4.5t-55 14t-51 24t-42 33.5l53 62q26 -32 67.5 -47t81.5 -15q52 0 86 17t34 53q0 35 -23.5 50t-57.5 24q-26 7 -54.5 13.5t-52 20t-38.5 37t-15 64.5q0 42 17 71t44.5 47t63 26t71.5 8q43 0 86 -12t75 -44l-50 -64q-27 22 -56 33t-63 11
q-18 0 -37 -3.5t-34 -12.5t-24.5 -23.5t-9.5 -36.5q0 -16 8.5 -26t22.5 -17t33 -11.5l39 -9.5q25 -6 49.5 -14t44 -22.5t32 -37t12.5 -57.5q0 -44 -17.5 -74t-46 -49.5t-65 -28t-75.5 -8.5z" />
    <glyph glyph-name="t" unicode="t" horiz-adv-x="274" 
d="M153 0q-49 0 -75 29.5t-15 86.5l60 307h-59l14 72h59l24 124h80l-24 -124h75l-14 -72h-75l-56 -287q-5 -23 0.5 -42.5t35.5 -19.5h42l-15 -74h-57z" />
    <glyph glyph-name="u" unicode="u" horiz-adv-x="518" 
d="M330 0l11 56h-3q-30 -32 -68.5 -47t-76.5 -15q-37 0 -65.5 11t-47 33t-24.5 54t2 73l64 330h80l-57 -297q-6 -29 -6 -52t9.5 -39.5t29.5 -25.5t55 -9q24 0 46 9t40 25.5t31 39.5t19 52l58 297h80l-96 -495h-81z" />
    <glyph glyph-name="v" unicode="v" horiz-adv-x="428" 
d="M475 494q-67 -145 -135 -266t-143 -228h-65l-83 494h84l32 -205q7 -45 12.5 -89.5t7.5 -90.5h3q30 47 56 92.5t50 92l47.5 96l47.5 104.5h86z" />
    <glyph glyph-name="w" unicode="w" horiz-adv-x="705" 
d="M364 395q-23 -58 -45 -108l-44.5 -96.5l-47 -93l-53.5 -97.5h-76l-58 496h82l22 -267q2 -28 4 -59t3 -64h4l46.5 91l44 93.5l44 98.5l46.5 107h91l28 -262q1 -15 2.5 -28l3 -26.5t2.5 -29t2 -35.5h3q51 94 94.5 188.5l84.5 192.5h84l-58.5 -134.5t-59.5 -122l-64 -118
t-72 -121.5h-75l-24 234l-2.5 30.5t-3 40t-2.5 44.5t-1 46h-5z" />
    <glyph glyph-name="x" unicode="x" horiz-adv-x="454" 
d="M288 0l-76 191l-150 -191h-100l216 255l-54.5 120.5l-55.5 120.5h91l71 -184l142 184h100l-207 -244l58 -126l58 -126h-93z" />
    <glyph glyph-name="y" unicode="y" horiz-adv-x="413" 
d="M456 495q-57 -158 -113.5 -286.5t-116.5 -226.5q-23 -36 -49 -68.5t-59 -58t-75 -41.5t-95 -18l-2 70q52 5 97 29t87 82l-81 518h86l29 -226q6 -45 12.5 -103.5t6.5 -115.5h3q59 104 104 220t83 225h83z" />
    <glyph glyph-name="z" unicode="z" horiz-adv-x="425" 
d="M-18 0l14 68l333 355h-250l14 72h344l-13 -70l-326 -349h258l-15 -76h-359z" />
    <glyph glyph-name="braceleft" unicode="{" horiz-adv-x="256" 
d="M131 -103q-19 0 -35.5 7.5t-28 21.5t-16 34t0.5 44l27 139q11 53 -1.5 88t-50.5 40l10 51q20 3 37 14.5t30 29t21.5 40t13.5 46.5l26 136q10 49 42 78.5t70 29.5h66l-10 -54h-40q-14 0 -24 -8t-17.5 -20.5t-12.5 -28t-8 -30.5l-25 -125q-6 -32 -19 -55.5t-28 -39.5
t-29.5 -24.5t-22.5 -11.5v-3q7 -3 17.5 -11.5t19.5 -24.5t13 -39t-2 -54l-25 -130q-3 -15 -4 -30.5t2 -28t10 -20.5t20 -8h40l-10 -53h-57z" />
    <glyph glyph-name="bar" unicode="|" horiz-adv-x="204" 
d="M70 -162v878h65v-878h-65z" />
    <glyph glyph-name="braceright" unicode="}" horiz-adv-x="256" 
d="M257 271q-40 -5 -65 -40t-36 -88l-27 -139q-9 -49 -41 -78t-70 -29h-67l10 53h41q13 0 23.5 8t18 20.5t12.5 28t8 30.5l25 130q6 31 19 54t28 39t29 24.5t23 11.5l1 3q-8 3 -19 11.5t-19.5 24.5t-12 39.5t2.5 55.5l24 125q3 15 5.5 30.5t0.5 28t-9.5 20.5t-24.5 8h-41
l9 50h65q47 0 64.5 -29.5t8.5 -74.5l-27 -136q-5 -24 -4.5 -46.5t6.5 -40t18 -29t31 -14.5l-10 -51v0z" />
    <glyph glyph-name="asciitilde" unicode="~" horiz-adv-x="500" 
d="M499 317q-29 -50 -62 -73t-79 -23q-20 0 -43.5 10t-48 22.5t-48.5 22.5t-45 10q-26 0 -43.5 -12t-41.5 -38l-46 34q35 50 71 70t75 20q23 0 46.5 -10t46 -22.5t44.5 -22.5t43 -10q23 0 42 13.5t42 43.5z" />
    <glyph glyph-name="Adieresis" unicode="&#xc4;" horiz-adv-x="586" 
d="M450 0l-24 160h-283l-86 -160h-93l385 696h77l114 -696h-90zM389 431l-20 158h-2l-79 -154l-106 -199h235zM445 750l17 88h88l-17 -88h-88zM265 750l17 88h88l-17 -88h-88z" />
    <glyph glyph-name="Eacute" unicode="&#xc9;" horiz-adv-x="532" 
d="M340 780l172 122l47 -61l-190 -103zM34 0l136 696h421l-16 -81h-335l-43 -225h294l-15 -77h-294l-46 -232h365l-15 -81h-452z" />
    <glyph glyph-name="Odieresis" unicode="&#xd6;" horiz-adv-x="579" 
d="M366 701q49 0 90 -15t70.5 -42t46 -64.5t16.5 -82.5q0 -24 -4.5 -54t-10.5 -62.5t-13.5 -65.5t-13.5 -63q-12 -58 -35.5 -105.5t-58.5 -81.5t-82 -52.5t-107 -18.5q-59 0 -100.5 16t-67.5 44t-38 65.5t-12 80.5q0 24 4.5 55.5t11 65t14.5 67t14 61.5q12 53 32.5 99
t53.5 80t79.5 53.5t110.5 19.5zM360 622q-47 0 -79.5 -16.5t-55 -42t-35 -58t-18.5 -63.5l-36 -185q-7 -36 -5 -69.5t17 -59t44.5 -41t78.5 -15.5q40 0 71.5 14.5t55 39t39.5 58.5t25 73l13 57t13 60t10 58t4 50q0 62 -36.5 101t-105.5 39zM446 750l17 88h88l-17 -88h-88z
M266 750l17 88h88l-17 -88h-88z" />
    <glyph glyph-name="Udieresis" unicode="&#xdc;" horiz-adv-x="606" 
d="M549 232q-11 -54 -33 -97.5t-56.5 -75t-81.5 -48.5t-106 -17q-51 0 -93 17.5t-70 50t-39.5 78.5t-0.5 102l88 454h86l-86 -442q-8 -39 -4.5 -72t18 -56.5t41 -37t66.5 -13.5q72 0 122 45t65 124l88 452h86zM445 750l17 88h88l-17 -88h-88zM265 750l17 88h88l-17 -88h-88z
" />
    <glyph glyph-name="dieresistonos" unicode="&#x385;" horiz-adv-x="383" 
d="M361 589l17 89h85l-17 -89h-85zM81 589l18 89h85l-17 -89h-86zM193 571l107 177l76 -25l-133 -172z" />
    <glyph glyph-name="agrave" unicode="&#xe0;" horiz-adv-x="495" 
d="M277 501q36 0 70.5 -14.5t50.5 -46.5l3 1l13 54h77l-96 -495h-80l11 54l-3 2q-30 -34 -60 -48t-73 -14q-39 0 -66.5 13t-45 36.5t-26 55t-8.5 68.5q0 52 13.5 111t42 108.5t72.5 82t105 32.5zM125 165q0 -16 3.5 -33.5t13.5 -32.5t26.5 -25t43.5 -10q45 0 75.5 27
t50 66.5t28 84t8.5 79.5q0 46 -19.5 76t-69.5 30q-47 0 -78 -27t-49 -67t-25.5 -85.5t-7.5 -82.5zM316 554l-87 184l68 16l68 -185z" />
    <glyph glyph-name="acircumflex" unicode="&#xe2;" horiz-adv-x="495" 
d="M277 501q36 0 70.5 -14.5t50.5 -46.5l3 1l13 54h77l-96 -495h-80l11 54l-3 2q-30 -34 -60 -48t-73 -14q-39 0 -66.5 13t-45 36.5t-26 55t-8.5 68.5q0 52 13.5 111t42 108.5t72.5 82t105 32.5zM125 165q0 -16 3.5 -33.5t13.5 -32.5t26.5 -25t43.5 -10q45 0 75.5 27
t50 66.5t28 84t8.5 79.5q0 46 -19.5 76t-69.5 30q-47 0 -78 -27t-49 -67t-25.5 -85.5t-7.5 -82.5zM349 662l-164 -110l-32 38l180 153h53l114 -151l-48 -39z" />
    <glyph glyph-name="adieresis" unicode="&#xe4;" horiz-adv-x="495" 
d="M277 501q36 0 70.5 -14.5t50.5 -46.5l3 1l13 54h77l-96 -495h-80l11 54l-3 2q-30 -34 -60 -48t-73 -14q-39 0 -66.5 13t-45 36.5t-26 55t-8.5 68.5q0 52 13.5 111t42 108.5t72.5 82t105 32.5zM125 165q0 -16 3.5 -33.5t13.5 -32.5t26.5 -25t43.5 -10q45 0 75.5 27
t50 66.5t28 84t8.5 79.5q0 46 -19.5 76t-69.5 30q-47 0 -78 -27t-49 -67t-25.5 -85.5t-7.5 -82.5zM369 597l17 88h87l-17 -88h-87zM193 597l17 88h86l-17 -88h-86z" />
    <glyph glyph-name="tonos" unicode="&#x384;" horiz-adv-x="491" 
d="M263 571l107 177l76 -25l-133 -172z" />
    <glyph glyph-name="dieresis" unicode="&#xa8;" horiz-adv-x="481" 
d="M359 597l17 88h87l-17 -88h-87zM183 597l17 88h86l-17 -88h-86z" />
    <glyph glyph-name="ccedilla" unicode="&#xe7;" horiz-adv-x="422" 
d="M387 62q-35 -30 -83 -48t-96 -20l-15 -33q25 -2 42.5 -9t27.5 -17.5t14.5 -22.5t4.5 -24q0 -17 -7.5 -34.5t-22.5 -31.5t-38.5 -23t-55.5 -9h-16t-24.5 1.5t-28 5t-26.5 9.5l20 46q20 -9 41.5 -12t35.5 -3q19 0 38.5 10t19.5 32q0 20 -14 31t-40 11h-12l-17 16l28 60
q-34 6 -59 22t-41.5 41t-24.5 56.5t-8 67.5q0 64 16.5 121.5t49 101t81.5 69t115 25.5q44 0 86 -17t70 -52l-60 -58q-19 22 -45 35.5t-56 13.5q-46 0 -79 -21t-54 -53.5t-31 -72t-10 -77.5q0 -28 5 -50.5t17 -39t32 -25.5t51 -9q36 0 68 16.5t53 31.5l48 -61v0z" />
    <glyph glyph-name="eacute" unicode="&#xe9;" horiz-adv-x="470" 
d="M285 501q81 0 126 -36t45 -99q0 -31 -12.5 -61t-45.5 -53t-89 -37.5t-143 -14.5h-21.5t-22.5 1q-2 -11 -2 -17.5v-10.5q0 -57 24.5 -80t73.5 -23q15 0 32.5 4t35.5 10.5t34 15t28 16.5l40 -59q-37 -30 -85.5 -46.5t-96.5 -16.5q-85 0 -125 46t-40 134q0 56 13.5 114
t43 105.5t76 77.5t111.5 30zM280 424q-35 0 -60 -13t-42 -34t-27 -48t-16 -56q12 -1 22.5 -1h21.5q64 0 102.5 9t59.5 22t27.5 28t6.5 26q0 32 -24 49.5t-71 17.5zM250 571l107 177l76 -25l-134 -172z" />
    <glyph glyph-name="egrave" unicode="&#xe8;" horiz-adv-x="470" 
d="M285 501q81 0 126 -36t45 -99q0 -31 -12.5 -61t-45.5 -53t-89 -37.5t-143 -14.5h-21.5t-22.5 1q-2 -11 -2 -17.5v-10.5q0 -57 24.5 -80t73.5 -23q15 0 32.5 4t35.5 10.5t34 15t28 16.5l40 -59q-37 -30 -85.5 -46.5t-96.5 -16.5q-85 0 -125 46t-40 134q0 56 13.5 114
t43 105.5t76 77.5t111.5 30zM280 424q-35 0 -60 -13t-42 -34t-27 -48t-16 -56q12 -1 22.5 -1h21.5q64 0 102.5 9t59.5 22t27.5 28t6.5 26q0 32 -24 49.5t-71 17.5zM288 554l-87 184l68 16l68 -185z" />
    <glyph glyph-name="ecircumflex" unicode="&#xea;" horiz-adv-x="470" 
d="M285 501q81 0 126 -36t45 -99q0 -31 -12.5 -61t-45.5 -53t-89 -37.5t-143 -14.5h-21.5t-22.5 1q-2 -11 -2 -17.5v-10.5q0 -57 24.5 -80t73.5 -23q15 0 32.5 4t35.5 10.5t34 15t28 16.5l40 -59q-37 -30 -85.5 -46.5t-96.5 -16.5q-85 0 -125 46t-40 134q0 56 13.5 114
t43 105.5t76 77.5t111.5 30zM280 424q-35 0 -60 -13t-42 -34t-27 -48t-16 -56q12 -1 22.5 -1h21.5q64 0 102.5 9t59.5 22t27.5 28t6.5 26q0 32 -24 49.5t-71 17.5zM331 662l-164 -110l-32 38l180 153h53l114 -151l-48 -39z" />
    <glyph glyph-name="edieresis" unicode="&#xeb;" horiz-adv-x="470" 
d="M285 501q81 0 126 -36t45 -99q0 -31 -12.5 -61t-45.5 -53t-89 -37.5t-143 -14.5h-21.5t-22.5 1q-2 -11 -2 -17.5v-10.5q0 -57 24.5 -80t73.5 -23q15 0 32.5 4t35.5 10.5t34 15t28 16.5l40 -59q-37 -30 -85.5 -46.5t-96.5 -16.5q-85 0 -125 46t-40 134q0 56 13.5 114
t43 105.5t76 77.5t111.5 30zM280 424q-35 0 -60 -13t-42 -34t-27 -48t-16 -56q12 -1 22.5 -1h21.5q64 0 102.5 9t59.5 22t27.5 28t6.5 26q0 32 -24 49.5t-71 17.5zM359 597l17 88h87l-17 -88h-87zM183 597l17 88h86l-17 -88h-86z" />
    <glyph glyph-name="sterling" unicode="&#xa3;" horiz-adv-x="500" 
d="M240 294q-14 -61 -37.5 -115.5t-65.5 -102.5h300l-14 -76h-406l13 64q46 49 81 106.5t50 123.5h-93l13 65h79q-2 32 -8.5 63.5t-6.5 64.5q0 43 14 81.5t40.5 67.5t63.5 46.5t83 17.5q64 0 110 -22t73 -84l-72 -38q-17 38 -44 52.5t-68 14.5q-27 0 -47.5 -12.5t-35 -32.5
t-21.5 -44.5t-7 -48.5q0 -32 6.5 -63t6.5 -63h150l-14 -65h-143z" />
    <glyph glyph-name="trademark" unicode="&#x2122;" horiz-adv-x="844" 
d="M723 292l-1 254l-99 -195h-53l-100 195v-254h-62v403h62l129 -258l126 258h61v-403h-63zM224 638v-345h-63v345h-124v58h311v-58h-124z" />
    <glyph glyph-name="bullet" unicode="&#x2022;" horiz-adv-x="408" 
d="M338 266q0 -27 -10.5 -51t-28.5 -41.5t-42 -28t-51 -10.5t-51 10.5t-42 28t-28 41.5t-10 51t10 51t28 41.5t42 28t51 10.5t51 -10.5t42 -28t28.5 -41.5t10.5 -51z" />
    <glyph glyph-name="perthousand" unicode="&#x2030;" horiz-adv-x="1110" 
d="M581 -4q-48 0 -81 25.5t-34 69.5q0 15 3 27l18 91.5t17 91.5q9 50 46 84.5t99 34.5q47 0 80 -26t34 -69q0 -7 -1 -14t-2 -13l-9.5 -51.5l-8.5 -45t-8.5 -42.5t-8.5 -43q-5 -25 -16.5 -47t-29 -38t-42 -25.5t-56.5 -9.5zM696 315q0 21 -14 34t-38 13q-32 0 -51 -20
t-24 -47l-34 -178q-2 -10 -2 -15q0 -21 13.5 -34t37.5 -13q32 0 51 20t26 47l16.5 87l16.5 88q2 10 2 18zM197 275q-48 0 -81 25.5t-34 69.5q0 15 3 27l18 91.5t17 91.5q9 50 46 84.5t99 34.5q47 0 80 -26t34 -69q0 -7 -1 -14t-2 -13l-9.5 -51.5l-8.5 -45t-8.5 -42.5
t-8.5 -43q-5 -25 -16.5 -47t-29 -38t-42 -25.5t-56.5 -9.5zM312 594q0 21 -14 34t-38 13q-32 0 -50.5 -20t-24.5 -47l-34 -178q-2 -10 -2 -15q0 -21 13.5 -34t37.5 -13q32 0 51 20t26 47l16.5 87l16.5 88q2 10 2 18zM186 -17h-71l567 730h72zM903 -4q-48 0 -81 25.5
t-34 69.5q0 15 3 27l18 91.5t17 91.5q9 50 46 84.5t99 34.5q47 0 80 -26t34 -69q0 -7 -1 -14t-2 -13l-9.5 -51.5l-8.5 -45t-8.5 -42.5t-8.5 -43q-5 -25 -16.5 -47t-29 -38t-42 -25.5t-56.5 -9.5zM1018 315q0 21 -14 34t-38 13q-32 0 -51 -20t-24 -47l-34 -178q-2 -10 -2 -15
q0 -21 13.5 -34t37.5 -13q32 0 51 20t26 47l16.5 87l16.5 88q2 10 2 18z" />
    <glyph glyph-name="ocircumflex" unicode="&#xf4;" horiz-adv-x="495" 
d="M287 500q80 0 127.5 -47.5t47.5 -127.5q0 -57 -12 -116t-40 -107t-74 -78t-113 -30q-88 0 -134.5 44t-46.5 126q0 66 15 127t45 107.5t76 74t109 27.5zM278 427q-45 0 -75 -26t-48 -64.5t-25.5 -83.5t-7.5 -82q0 -15 4 -33t15 -33.5t30 -26t50 -10.5q45 0 75 23t49 59.5
t27 81t8 88.5q0 55 -28.5 81t-73.5 26zM349 662l-164 -110l-32 38l180 153h53l114 -151l-48 -39z" />
    <glyph glyph-name="odieresis" unicode="&#xf6;" horiz-adv-x="495" 
d="M287 500q80 0 127.5 -47.5t47.5 -127.5q0 -57 -12 -116t-40 -107t-74 -78t-113 -30q-88 0 -134.5 44t-46.5 126q0 66 15 127t45 107.5t76 74t109 27.5zM278 427q-45 0 -75 -26t-48 -64.5t-25.5 -83.5t-7.5 -82q0 -15 4 -33t15 -33.5t30 -26t50 -10.5q45 0 75 23t49 59.5
t27 81t8 88.5q0 55 -28.5 81t-73.5 26zM349 597l17 88h87l-17 -88h-87zM173 597l17 88h86l-17 -88h-86z" />
    <glyph glyph-name="sfthyphen" unicode="&#xad;" horiz-adv-x="392" 
d="M56 230l15 75h288l-15 -75h-288z" />
    <glyph glyph-name="ugrave" unicode="&#xf9;" horiz-adv-x="518" 
d="M305 554l-87 184l68 16l68 -185zM330 0l11 56h-3q-30 -32 -68.5 -47t-76.5 -15q-37 0 -65.5 11t-47 33t-24.5 54t2 73l64 330h80l-57 -297q-6 -29 -6 -52t9.5 -39.5t29.5 -25.5t55 -9q24 0 46 9t40 25.5t31 39.5t19 52l58 297h80l-96 -495h-81z" />
    <glyph glyph-name="ucircumflex" unicode="&#xfb;" horiz-adv-x="518" 
d="M330 0l11 56h-3q-30 -32 -68.5 -47t-76.5 -15q-37 0 -65.5 11t-47 33t-24.5 54t2 73l64 330h80l-57 -297q-6 -29 -6 -52t9.5 -39.5t29.5 -25.5t55 -9q24 0 46 9t40 25.5t31 39.5t19 52l58 297h80l-96 -495h-81zM350 662l-164 -110l-32 38l180 153h53l114 -151l-48 -39z
" />
    <glyph glyph-name="udieresis" unicode="&#xfc;" horiz-adv-x="518" 
d="M330 0l11 56h-3q-30 -32 -68.5 -47t-76.5 -15q-37 0 -65.5 11t-47 33t-24.5 54t2 73l64 330h80l-57 -297q-6 -29 -6 -52t9.5 -39.5t29.5 -25.5t55 -9q24 0 46 9t40 25.5t31 39.5t19 52l58 297h80l-96 -495h-81zM376 597l17 88h87l-17 -88h-87zM200 597l17 88h86l-17 -88
h-86z" />
    <glyph glyph-name="dagger" unicode="&#x2020;" horiz-adv-x="457" 
d="M303 390l-112 -576h-78l112 576h-167l13 66h167l46 240h79l-47 -240h167l-13 -66h-167z" />
    <glyph glyph-name="Gamma" unicode="&#x393;" horiz-adv-x="514" 
d="M240 615l-119 -615h-87l136 696h431l-16 -81h-345z" />
    <glyph glyph-name="Delta" unicode="&#x394;" horiz-adv-x="586" 
d="M-34 0l385 696h75l114 -696h-574zM390 428l-20 161h-2l-83 -162l-186 -350h341z" />
    <glyph glyph-name="Delta" unicode="&#x2206;" horiz-adv-x="586" 
d="M-34 0l385 696h75l114 -696h-574zM390 428l-20 161h-2l-83 -162l-186 -350h341z" />
    <glyph glyph-name="Theta" unicode="&#x398;" horiz-adv-x="580" 
d="M200 389h249l-14 -75h-249zM375 701q50 0 89.5 -15t66.5 -42t41.5 -64.5t14.5 -82.5q0 -28 -6 -58l-36 -187q-11 -59 -34.5 -107t-59 -81.5t-83.5 -51.5t-109 -18q-53 0 -93 16t-67 44t-40.5 65.5t-13.5 80.5q0 28 6 58l38 189q10 51 32.5 97t58 81t84.5 55.5t111 20.5z
M365 618q-40 0 -72.5 -15t-56.5 -39.5t-40 -56.5t-22 -65l-36 -185q-1 -10 -2.5 -20t-1.5 -20q0 -29 8 -54.5t25 -44.5t42 -30.5t60 -11.5q37 0 68 14t55.5 38t41 57t24.5 72l36 185q4 19 4 40q0 59 -34.5 97.5t-98.5 38.5z" />
    <glyph glyph-name="Lambda" unicode="&#x39b;" horiz-adv-x="586" 
d="M450 0l-8.5 59.5t-6 42t-5 35t-6.5 39.5q-3 22 -7 55l-10 82l-15 117l-22 160h-3l-84 -160l-60.5 -117l-42 -82t-28.5 -55l-95 -176h-91l385 696h75l114 -696h-90z" />
    <glyph glyph-name="Xi" unicode="&#x39e;" horiz-adv-x="557" 
d="M135 615l16 81h437l-16 -81h-437zM130 313l15 77h335l-15 -77h-335zM16 0l16 81h451l-16 -81h-451z" />
    <glyph glyph-name="Pi" unicode="&#x3a0;" horiz-adv-x="623" 
d="M423 0l120 619h-302l-120 -619h-87l136 696h474l-135 -696h-86z" />
    <glyph glyph-name="germandbls" unicode="&#xdf;" horiz-adv-x="507" 
d="M23 0l103 530q17 89 67.5 139.5t145.5 50.5q43 0 73.5 -14t49 -36t27 -49.5t8.5 -53.5q0 -22 -6 -46t-19 -46t-32 -39.5t-44 -26.5q42 -15 57.5 -48t15.5 -77q0 -50 -14.5 -101.5t-43 -93.5t-72.5 -68.5t-102 -26.5q-25 0 -52 8l11 74q15 -6 37 -6q42 0 71.5 24t47.5 58
t26.5 71.5t8.5 64.5q0 17 -4 32.5t-13 27t-24 18t-37 6.5h-36l14 71h22q28 0 48 12t33 29.5t19 37.5t6 35t-4.5 31t-14.5 29.5t-26.5 22.5t-41.5 9q-31 0 -52.5 -11t-35 -28.5t-21 -37.5t-10.5 -38l-104 -534h-82z" />
    <glyph glyph-name="registered" unicode="&#xae;" horiz-adv-x="560" 
d="M488 492q0 -45 -16 -82.5t-44 -65.5t-66 -43.5t-83 -15.5q-44 0 -82.5 15.5t-66.5 43.5t-44 65.5t-16 82.5t16 83.5t44 66.5t66.5 44t82.5 16q45 0 83 -16t66 -44t44 -66.5t16 -83.5zM448 492q0 37 -13 68.5t-35.5 54.5t-53.5 36t-67 13t-67 -13t-53.5 -36t-35.5 -54.5
t-13 -68.5q0 -36 13 -67.5t35.5 -54t53.5 -35.5t67 -13t67 13t53.5 35.5t35.5 54t13 67.5zM284 472h-42v-101h-41v242h100q30 0 51 -18.5t21 -50.5q0 -23 -13 -40.5t-34 -25.5l56 -107h-47zM242 576v-66h52q17 0 27.5 9t10.5 25q0 32 -37 32h-53z" />
    <glyph glyph-name="copyright" unicode="&#xa9;" horiz-adv-x="803" 
d="M553 215q-18 -46 -55 -72t-91 -26q-38 0 -67 13t-48.5 35t-29 51t-9.5 62v116q0 32 9.5 61t29 51t48.5 35t67 13q54 0 91 -26t54 -71l-59 -26q-11 27 -33 44.5t-52 17.5q-23 0 -40.5 -8.5t-29 -23t-17 -33t-5.5 -37.5v-109q0 -20 5.5 -38.5t17 -33.5t29 -24t40.5 -9
q31 0 52.5 18.5t32.5 47.5zM404 -8q-76 0 -139.5 26.5t-110 73.5t-72.5 110.5t-26 138.5t26.5 139.5t73.5 111.5t110.5 73.5t137.5 26.5t138 -26.5t111 -73.5t73.5 -111.5t26.5 -139.5t-26.5 -138.5t-73.5 -110.5t-111 -73.5t-138 -26.5zM404 631q-61 0 -113 -22t-90.5 -61
t-60 -92t-21.5 -115t21.5 -114.5t60 -91t90.5 -60.5t113 -22t113 22t90.5 60.5t60 91t21.5 114.5t-21.5 115t-60 92t-90.5 61t-113 22z" />
    <glyph glyph-name="Sigma" unicode="&#x3a3;" horiz-adv-x="495" 
d="M-8 0l15 77l220 281l-112 268l14 70h418l-15 -77h-317l113 -261l-220 -277h331l-15 -81h-432z" />
    <glyph glyph-name="Iotadieresis" unicode="&#x3aa;" horiz-adv-x="236" 
d="M34 0l136 696h86l-135 -696h-87zM270 750l17 88h88l-17 -88h-88zM90 750l17 88h88l-17 -88h-88z" />
    <glyph glyph-name="section" unicode="&#xa7;" horiz-adv-x="466" 
d="M327 702q51 0 96.5 -14.5t74.5 -45.5l-50 -58q-29 27 -60 37t-61 10q-24 0 -45 -6.5t-36.5 -18.5t-24 -28t-8.5 -35q0 -17 10 -30t26 -24t36.5 -20t41.5 -16q22 -8 46 -18.5t43.5 -27.5t32.5 -40.5t13 -56.5q0 -45 -20.5 -76t-49.5 -57q8 -14 13 -32.5t5 -38.5
q0 -38 -16 -71t-44.5 -58t-68.5 -39t-88 -14q-28 0 -55 5.5t-51 16t-43 25t-31 31.5l51 52q24 -32 58.5 -45.5t72.5 -13.5q27 0 51.5 6.5t43 19t29 31.5t10.5 43q0 32 -28 53.5t-77 38.5q-66 23 -103 53.5t-37 81.5q0 44 18 77.5t55 60.5q-12 17 -20 33t-8 42
q0 42 17.5 73.5t45.5 52t63.5 31t71.5 10.5zM269 390q-15 6 -28.5 14l-28.5 17q-21 -12 -36.5 -35t-15.5 -45q0 -26 20 -42.5t48.5 -29t59.5 -23.5t54 -24q19 14 31 35t12 46q0 33 -32.5 51t-83.5 36z" />
    <glyph glyph-name="degree" unicode="&#xb0;" horiz-adv-x="385" 
d="M326 568q0 -28 -10.5 -52.5t-28.5 -42.5t-42.5 -28.5t-52.5 -10.5t-52.5 10.5t-42.5 28.5t-28.5 42.5t-10.5 52.5t10.5 52.5t28.5 42.5t42.5 28.5t52.5 10.5q30 0 55 -10.5t42.5 -28.5t27 -42.5t9.5 -52.5zM272 568q0 33 -23 56.5t-57 23.5q-33 0 -56.5 -23.5
t-23.5 -56.5t22.5 -56.5t57.5 -23.5q34 0 57 23.5t23 56.5z" />
    <glyph glyph-name="periodcentered" unicode="&#xb7;" horiz-adv-x="238" 
d="M88 207l21 111h103l-21 -111h-103z" />
    <glyph glyph-name="Alpha" unicode="&#x391;" horiz-adv-x="586" 
d="M450 0l-24 160h-283l-86 -160h-93l385 696h77l114 -696h-90zM389 431l-20 158h-2l-79 -154l-106 -199h235z" />
    <glyph glyph-name="plusminus" unicode="&#xb1;" horiz-adv-x="500" 
d="M302 291l-34 -174h-64l34 174h-184l13 64h184l33 174h64l-33 -174h183l-13 -64h-183zM-2 0l12 64h431l-12 -64h-431z" />
    <glyph glyph-name="yen" unicode="&#xa5;" horiz-adv-x="500" 
d="M337 362h117l-11 -54h-142l-15 -21l-14 -75h153l-11 -54h-153l-31 -158h-78l31 158h-152l10 54h152l15 75l-6 21h-142l11 54h115l-98 334h86l53 -197l34 -141l87 140l131 198h87z" />
    <glyph glyph-name="Beta" unicode="&#x392;" horiz-adv-x="586" 
d="M34 0l136 696h238q39 0 73 -8.5t59 -27.5t39.5 -48.5t14.5 -72.5q0 -69 -36.5 -116t-102.5 -65l-1 -3q47 -16 72 -51.5t25 -84.5q0 -46 -18.5 -86t-49 -69.5t-71.5 -46.5t-86 -17h-292zM241 619l-44 -225h161q29 0 56 9t47.5 26.5t33 42t12.5 55.5q0 24 -10 41.5t-26 29
t-37 16.5t-42 5h-151zM183 318l-47 -237h176q30 0 57.5 10.5t48.5 29t33.5 44.5t12.5 57q0 47 -31 71.5t-75 24.5h-175z" />
    <glyph glyph-name="Epsilon" unicode="&#x395;" horiz-adv-x="532" 
d="M34 0l136 696h421l-16 -81h-335l-43 -225h294l-15 -77h-294l-46 -232h365l-15 -81h-452z" />
    <glyph glyph-name="Zeta" unicode="&#x396;" horiz-adv-x="495" 
d="M-8 0l15 77l438 542h-320l15 77h419l-14 -70l-440 -545h334l-15 -81h-432z" />
    <glyph glyph-name="Eta" unicode="&#x397;" horiz-adv-x="623" 
d="M423 0l60 313h-301l-61 -313h-87l136 696h86l-59 -306h301l60 306h86l-135 -696h-86z" />
    <glyph glyph-name="Iota" unicode="&#x399;" horiz-adv-x="236" 
d="M34 0l136 696h86l-135 -696h-87z" />
    <glyph glyph-name="Kappa" unicode="&#x39a;" horiz-adv-x="606" 
d="M461 0l-133 358l-171 -168l-36 -190h-87l136 696h86l-72 -376l3 1l156 161l217 214h105l-270 -270l162 -426h-96z" />
    <glyph glyph-name="Mu" unicode="&#x39c;" horiz-adv-x="733" 
d="M543 0l97 494h-4l-78 -131l-168 -260h-76l-67 268l-27 123h-3l-96 -494h-87l136 696h86l81 -325l36 -162h3l98 161l206 326h85l-136 -696h-86z" />
    <glyph glyph-name="Phi" unicode="&#x3a6;" horiz-adv-x="717" 
d="M360 0h-85l10 54q-60 6 -102 26t-68.5 50t-38 69.5t-11.5 85.5q0 81 24 149t68.5 118.5t107 80t139.5 32.5l6 31h85l-6 -31q115 -4 170.5 -65.5t55.5 -164.5q0 -78 -21 -145.5t-63.5 -118.5t-107.5 -82t-153 -35zM384 126q64 0 111 27t77.5 70.5t45 99t14.5 114.5
q0 32 -8 59t-26.5 46.5t-48.5 32t-74 16.5zM390 592q-59 -5 -105 -29t-77 -63.5t-47 -92t-16 -113.5q0 -33 8 -62t26 -51.5t47.5 -37t72.5 -17.5z" />
    <glyph glyph-name="Upsilondieresis" unicode="&#x3ab;" horiz-adv-x="498" 
d="M303 275l-54 -275h-82l54 275l-124 421h86l58 -201l34 -130l91 139l129 192h94zM396 750l17 88h88l-17 -88h-88zM216 750l17 88h88l-17 -88h-88z" />
    <glyph glyph-name="Psi" unicode="&#x3a8;" horiz-adv-x="711" 
d="M687 394q-20 -107 -96.5 -170t-201.5 -69l-30 -155h-86l30 156q-51 4 -93.5 22.5t-70.5 50t-39.5 75.5t-0.5 100l57 292h86l-54 -280q-8 -42 -2.5 -74.5t23 -55t45.5 -34.5t65 -13l89 457h86l-89 -457q74 1 128.5 44.5t70.5 122.5l56 290h86l-59 -302v0z" />
    <glyph glyph-name="Omega" unicode="&#x3a9;" horiz-adv-x="568" 
d="M322 95q53 17 87 64.5t47 110.5l35 166q7 34 3.5 68t-20 61t-45.5 44t-73 17q-42 0 -74.5 -16t-55.5 -42t-37 -59t-21 -66l-34 -173q-4 -20 -4 -45q0 -43 18.5 -78t57.5 -52l-19 -95h-205l15 81h104q-32 21 -44 56t-12 76q0 18 2 36.5t5 35.5l30 160q10 51 30 97.5
t53.5 82t81 56.5t112.5 21q64 0 109.5 -21.5t72.5 -57.5t36 -83t-1 -98l-32 -167q-6 -31 -14 -60t-20.5 -54t-30.5 -45.5t-43 -34.5h85l-15 -81h-202l18 95v0z" />
    <glyph glyph-name="alphatonos" unicode="&#x3ac;" horiz-adv-x="495" 
d="M277 501q36 0 68.5 -15t52.5 -46l3 1l10 54h80l-96 -495h-80l11 54l-3 2q-30 -34 -65.5 -48t-78.5 -14q-37 0 -62.5 12t-41.5 33.5t-23 50.5t-7 63q0 54 12.5 115.5t40.5 113t72 85.5t107 34zM130 169q0 -45 18.5 -69t69.5 -24q40 0 68.5 25.5t47.5 63t28 79.5t9 76
q0 45 -19 72.5t-67 27.5q-30 0 -53.5 -13.5t-40.5 -35t-29 -49t-19 -55t-10 -53.5t-3 -45zM253 571l107 177l76 -25l-133 -172z" />
    <glyph glyph-name="Nu" unicode="&#x39d;" horiz-adv-x="660" 
d="M463 0l-173 398l-61 152l-3 -1l-105 -549h-87l136 696h85l166 -384l67 -164l3 -1l106 549h85l-135 -696h-84z" />
    <glyph glyph-name="Omicron" unicode="&#x39f;" horiz-adv-x="579" 
d="M366 701q49 0 90 -15t70.5 -42t46 -64.5t16.5 -82.5q0 -24 -4.5 -54t-10.5 -62.5t-13.5 -65.5t-13.5 -63q-12 -58 -35.5 -105.5t-58.5 -81.5t-82 -52.5t-107 -18.5q-59 0 -100.5 16t-67.5 44t-38 65.5t-12 80.5q0 24 4.5 55.5t11 65t14.5 67t14 61.5q12 53 32.5 99
t53.5 80t79.5 53.5t110.5 19.5zM360 622q-47 0 -79.5 -16.5t-55 -42t-35 -58t-18.5 -63.5l-36 -185q-7 -36 -5 -69.5t17 -59t44.5 -41t78.5 -15.5q40 0 71.5 14.5t55 39t39.5 58.5t25 73l13 57t13 60t10 58t4 50q0 62 -36.5 101t-105.5 39z" />
    <glyph glyph-name="Rho" unicode="&#x3a1;" horiz-adv-x="561" 
d="M121 0h-87l136 696h245q42 0 77 -11t60.5 -33.5t39.5 -55.5t14 -77q0 -53 -20.5 -97t-55 -75.5t-80.5 -49t-97 -17.5h-178zM516 508q0 54 -32.5 80.5t-83.5 26.5h-160l-49 -254h169q32 0 60.5 11t49.5 30.5t33.5 46.5t12.5 59z" />
    <glyph glyph-name="Tau" unicode="&#x3a4;" horiz-adv-x="476" 
d="M362 619l-121 -619h-86l120 619h-194l15 77h475l-15 -77h-194z" />
    <glyph glyph-name="guillemotleft" unicode="&#xab;" horiz-adv-x="459" 
d="M311 46l-90 186l159 186h82l-159 -186l86 -186h-78zM139 46l-90 186l159 186h82l-160 -186l87 -186h-78z" />
    <glyph glyph-name="guillemotright" unicode="&#xbb;" horiz-adv-x="459" 
d="M13 46l160 186l-87 186h78l91 -186l-164 -186h-78zM185 46l161 186l-88 186h78l91 -186l-164 -186h-78z" />
    <glyph glyph-name="ellipsis" unicode="&#x2026;" horiz-adv-x="809" 
d="M43 0l21 111h103l-21 -111h-103zM306 0l21 111h103l-21 -111h-103zM576 0l21 111h103l-21 -111h-103z" />
    <glyph glyph-name="Upsilon" unicode="&#x3a5;" horiz-adv-x="498" 
d="M303 275l-54 -275h-82l54 275l-124 421h86l58 -201l34 -130l91 139l129 192h94z" />
    <glyph glyph-name="Chi" unicode="&#x3a7;" horiz-adv-x="513" 
d="M382 0l-105 289l-217 -289h-96l279 357l-130 339h91l94 -271l201 271h96l-262 -339l141 -357h-92z" />
    <glyph glyph-name="Alphatonos" unicode="&#x386;" horiz-adv-x="586" 
d="M450 0l-24 160h-283l-86 -160h-93l385 696h77l114 -696h-90zM389 431l-20 158h-2l-79 -154l-106 -199h235zM9 551l107 177l76 -25l-133 -172z" />
    <glyph glyph-name="Epsilontonos" unicode="&#x388;" horiz-adv-x="532" 
d="M34 0l136 696h421l-16 -81h-335l-43 -225h294l-15 -77h-294l-46 -232h365l-15 -81h-452zM-68 551l107 177l76 -25l-133 -172z" />
    <glyph glyph-name="oe" unicode="&#x153;" horiz-adv-x="800" 
d="M615 501q81 0 126 -36t45 -99q0 -31 -12.5 -61t-45.5 -53t-89 -37.5t-143 -14.5h-21.5t-22.5 1q-2 -11 -2 -17.5v-10.5q0 -57 24.5 -80t73.5 -23q15 0 32.5 4t35.5 10.5t34 15t28 16.5l40 -59q-37 -30 -85.5 -46.5t-96.5 -16.5q-56 0 -91.5 19.5t-54.5 57.5
q-32 -43 -75 -60t-92 -17q-88 0 -134.5 44t-46.5 126q0 66 15.5 127t46 107.5t76.5 74t107 27.5q50 0 92 -22.5t62 -59.5q0 -1 0.5 -1.5t0.5 -1.5q29 38 72 62t101 24zM278 427q-44 0 -74 -26t-48 -64.5t-26 -83.5t-8 -82q0 -15 4.5 -33t15 -33.5t29 -26t46.5 -10.5
q49 0 80.5 24t50 60.5t25.5 81t7 86.5q0 55 -28.5 81t-73.5 26zM610 424q-37 0 -62.5 -13t-42 -34t-25.5 -48t-15 -56q12 -1 22.5 -1h21.5q64 0 102.5 9t59.5 22t27.5 28t6.5 26q0 32 -24 49.5t-71 17.5z" />
    <glyph glyph-name="endash" unicode="&#x2013;" horiz-adv-x="490" 
d="M24 230l15 77h451l-15 -77h-451z" />
    <glyph glyph-name="afii00208" unicode="&#x2015;" horiz-adv-x="980" 
d="M24 230l15 77h941l-15 -77h-941z" />
    <glyph glyph-name="quotedblleft" unicode="&#x201c;" horiz-adv-x="307" 
d="M187 737h51l-54 -113h28l-22 -111h-103l21 109zM330 737h51l-54 -113h28l-22 -111h-103l21 109z" />
    <glyph glyph-name="quotedblright" unicode="&#x201d;" horiz-adv-x="307" 
d="M291 513h-51l54 113h-28l22 111h103l-21 -109zM148 513h-51l54 113h-28l22 111h103l-21 -109z" />
    <glyph glyph-name="quoteleft" unicode="&#x2018;" horiz-adv-x="220" 
d="M217 737h51l-54 -113h28l-22 -111h-103l21 109z" />
    <glyph glyph-name="quoteright" unicode="&#x2019;" horiz-adv-x="220" 
d="M168 513h-51l54 113h-28l22 111h103l-21 -109z" />
    <glyph glyph-name="divide" unicode="&#xf7;" horiz-adv-x="500" 
d="M317 530q20 0 33 -13t13 -33q0 -14 -6 -26t-15.5 -21.5t-22 -15t-25.5 -5.5q-21 0 -34 13t-13 33q0 27 21.5 47.5t48.5 20.5zM38 262l13 63h451l-13 -63h-451zM247 172q21 0 34 -12.5t13 -32.5q0 -28 -21.5 -48t-47.5 -20q-21 0 -34 13t-13 33q0 27 21 47t48 20z" />
    <glyph glyph-name="Etatonos" unicode="&#x389;" horiz-adv-x="623" 
d="M423 0l60 313h-301l-61 -313h-87l136 696h86l-59 -306h301l60 306h86l-135 -696h-86zM-74 551l107 177l76 -25l-133 -172z" />
    <glyph glyph-name="Iotatonos" unicode="&#x38a;" horiz-adv-x="236" 
d="M34 0l136 696h86l-135 -696h-87zM-78 551l107 177l76 -25l-133 -172z" />
    <glyph glyph-name="Omicrontonos" unicode="&#x38c;" horiz-adv-x="579" 
d="M366 701q49 0 90 -15t70.5 -42t46 -64.5t16.5 -82.5q0 -24 -4.5 -54t-10.5 -62.5t-13.5 -65.5t-13.5 -63q-12 -58 -35.5 -105.5t-58.5 -81.5t-82 -52.5t-107 -18.5q-59 0 -100.5 16t-67.5 44t-38 65.5t-12 80.5q0 24 4.5 55.5t11 65t14.5 67t14 61.5q12 53 32.5 99
t53.5 80t79.5 53.5t110.5 19.5zM360 622q-47 0 -79.5 -16.5t-55 -42t-35 -58t-18.5 -63.5l-36 -185q-7 -36 -5 -69.5t17 -59t44.5 -41t78.5 -15.5q40 0 71.5 14.5t55 39t39.5 58.5t25 73l13 57t13 60t10 58t4 50q0 62 -36.5 101t-105.5 39zM-70 551l107 177l76 -25
l-133 -172z" />
    <glyph glyph-name="Upsilontonos" unicode="&#x38e;" horiz-adv-x="498" 
d="M303 275l-54 -275h-82l54 275l-124 421h86l58 -201l34 -130l91 139l129 192h94zM-115 551l107 177l76 -25l-133 -172z" />
    <glyph glyph-name="epsilontonos" unicode="&#x3ad;" horiz-adv-x="431" 
d="M394 64q-81 -68 -189 -68q-29 0 -59 7t-54 22.5t-39.5 39.5t-15.5 58q0 24 8 46.5t22 41t33 32.5t42 20q-29 11 -43.5 33.5t-14.5 53.5q0 38 18 66.5t46.5 47t63.5 28t70 9.5q22 0 45.5 -4t45.5 -12t41.5 -20.5t33.5 -29.5l-58 -61q-15 20 -44.5 33t-58.5 13
q-20 0 -41 -3t-38 -11t-28 -21.5t-11 -34.5q0 -20 10 -31t24.5 -16t30.5 -6t29 -1h57l-13 -70h-78q-18 0 -37 -5t-35 -15.5t-26.5 -27t-10.5 -40.5q0 -20 10 -32.5t25.5 -19t33.5 -9t34 -2.5q32 0 64 15t55 35zM253 571l107 177l76 -25l-133 -172z" />
    <glyph glyph-name="etatonos" unicode="&#x3ae;" horiz-adv-x="514" 
d="M303 -131l83 428q5 28 5 45q0 38 -20.5 58.5t-72.5 20.5q-24 0 -46 -9t-40 -25.5t-31 -39.5t-18 -50l-58 -297h-81l96 495h81l-11 -59h3q30 32 69 48.5t78 16.5q27 0 52 -8.5t44 -25.5t30 -42t11 -57q0 -9 -1 -18.5t-3 -19.5l-89 -461h-81zM243 571l107 177l76 -25
l-133 -172z" />
    <glyph glyph-name="omicrontonos" unicode="&#x3cc;" horiz-adv-x="495" 
d="M287 500q80 0 127.5 -47.5t47.5 -127.5q0 -57 -12 -116t-40 -107t-74 -78t-113 -30q-88 0 -134.5 44t-46.5 126q0 66 15 127t45 107.5t76 74t109 27.5zM278 427q-45 0 -75 -26t-48 -64.5t-25.5 -83.5t-7.5 -82q0 -15 4 -33t15 -33.5t30 -26t50 -10.5q45 0 75 23t49 59.5
t27 81t8 88.5q0 55 -28.5 81t-73.5 26zM273 571l107 177l76 -25l-133 -172z" />
    <glyph glyph-name="Omegatonos" unicode="&#x38f;" horiz-adv-x="568" 
d="M322 95q53 17 87 64.5t47 110.5l35 166q7 34 3.5 68t-20 61t-45.5 44t-73 17q-42 0 -74.5 -16t-55.5 -42t-37 -59t-21 -66l-34 -173q-4 -20 -4 -45q0 -43 18.5 -78t57.5 -52l-19 -95h-205l15 81h104q-32 21 -44 56t-12 76q0 18 2 36.5t5 35.5l30 160q10 51 30 97.5
t53.5 82t81 56.5t112.5 21q64 0 109.5 -21.5t72.5 -57.5t36 -83t-1 -98l-32 -167q-6 -31 -14 -60t-20.5 -54t-30.5 -45.5t-43 -34.5h85l-15 -81h-202zM-83 551l107 177l76 -25l-133 -172z" />
    <glyph glyph-name="upsilontonos" unicode="&#x3cd;" horiz-adv-x="518" 
d="M446 173q-16 -80 -71 -129.5t-141 -49.5q-38 0 -70.5 10t-56 29.5t-36.5 47.5t-13 63q0 9 1 19t3 20l61 312h80l-58 -297q-3 -15 -3 -30q0 -44 25 -69.5t67 -25.5q57 0 91.5 34t45.5 91l58 297h80zM263 571l107 177l76 -25l-133 -172z" />
    <glyph glyph-name="alpha" unicode="&#x3b1;" horiz-adv-x="495" 
d="M277 501q36 0 68.5 -15t52.5 -46l3 1l10 54h80l-96 -495h-80l11 54l-3 2q-30 -34 -65.5 -48t-78.5 -14q-37 0 -62.5 12t-41.5 33.5t-23 50.5t-7 63q0 54 12.5 115.5t40.5 113t72 85.5t107 34zM130 169q0 -45 18.5 -69t69.5 -24q40 0 68.5 25.5t47.5 63t28 79.5t9 76
q0 45 -19 72.5t-67 27.5q-30 0 -53.5 -13.5t-40.5 -35t-29 -49t-19 -55t-10 -53.5t-3 -45z" />
    <glyph glyph-name="beta" unicode="&#x3b2;" horiz-adv-x="507" 
d="M339 720q43 0 73.5 -14t49 -36t27 -49.5t8.5 -53.5q0 -22 -6 -46t-19 -46t-32 -39.5t-44 -26.5q42 -15 57.5 -48t15.5 -77q0 -50 -14.5 -101.5t-43 -93.5t-72.5 -68.5t-102 -26.5q-35 0 -66.5 13t-52.5 47l-3 -1l-34 -184h-81l126 661q17 89 67.5 139.5t145.5 50.5z
M328 649q-31 0 -52.5 -11t-35 -28.5t-21 -37.5t-10.5 -38l-54 -283q-3 -17 -5.5 -36t-2.5 -38q0 -21 4 -40.5t13.5 -34t26 -23.5t42.5 -9q42 0 71.5 24t47.5 58t26.5 71.5t8.5 64.5q0 17 -4 32.5t-13 27t-24 18t-37 6.5h-79l14 71h65q28 0 48 12t33 29.5t19 37.5t6 35
t-4.5 31t-14.5 29.5t-26.5 22.5t-41.5 9z" />
    <glyph glyph-name="psi" unicode="&#x3c8;" horiz-adv-x="612" 
d="M547 180q-17 -85 -82 -133t-160 -53l-38 -193h-80l37 193q-36 2 -66.5 14t-52 33t-34 49.5t-12.5 62.5q0 18 3 36l58 306h80l-57 -295q-3 -18 -3 -34q0 -46 27 -70.5t73 -26.5l86 446h80l-86 -446q63 3 101 37.5t49 93.5l58 295h80l-61 -315v0z" />
    <glyph glyph-name="delta" unicode="&#x3b4;" horiz-adv-x="481" 
d="M294 424q-42 -1 -74 -22.5t-54 -56.5t-33.5 -80t-11.5 -93t26 -76t75 -28q41 0 71 18.5t49.5 51t29 75.5t9.5 92q0 55 -25.5 81.5t-61.5 37.5zM338 729q45 0 85.5 -10t73.5 -30l-39 -70q-28 16 -54.5 24t-57.5 8q-41 0 -70.5 -18.5t-29.5 -50.5q0 -16 9.5 -28t24.5 -23.5
t34.5 -22t39.5 -23.5t39.5 -29t34.5 -37t24 -48t9 -63q0 -64 -15 -121t-45 -100t-76 -68t-109 -25q-82 0 -129 43t-47 128q0 54 12 103.5t35 89.5t56.5 70t76.5 45q-26 19 -42 47.5t-16 54.5q0 40 15.5 69t40.5 48t56.5 28t63.5 9z" />
    <glyph glyph-name="epsilon" unicode="&#x3b5;" horiz-adv-x="431" 
d="M394 64q-81 -68 -189 -68q-29 0 -59 7t-54 22.5t-39.5 39.5t-15.5 58q0 24 8 46.5t22 41t33 32.5t42 20q-29 11 -43.5 33.5t-14.5 53.5q0 38 18 66.5t46.5 47t63.5 28t70 9.5q22 0 45.5 -4t45.5 -12t41.5 -20.5t33.5 -29.5l-58 -61q-15 20 -44.5 33t-58.5 13
q-20 0 -41 -3t-38 -11t-28 -21.5t-11 -34.5q0 -20 10 -31t24.5 -16t30.5 -6t29 -1h57l-13 -70h-78q-18 0 -37 -5t-35 -15.5t-26.5 -27t-10.5 -40.5q0 -20 10 -32.5t25.5 -19t33.5 -9t34 -2.5q32 0 64 15t55 35l52 -61v0z" />
    <glyph glyph-name="phi" unicode="&#x3c6;" horiz-adv-x="598" 
d="M210 -6q-45 4 -77 19.5t-52.5 38t-30 51t-9.5 60.5q0 55 10.5 109.5t33.5 99.5t59.5 78t88.5 45l12 -70q-30 -10 -53 -33t-39 -56t-24 -74.5t-8 -88.5q0 -17 5 -35t17 -33.5t32 -26.5t50 -12l84 435h78q52 0 86.5 -16.5t54.5 -42t28.5 -55.5t8.5 -57q0 -74 -15.5 -135.5
t-48.5 -106t-84.5 -69.5t-124.5 -25l-37 -193h-82zM307 65q58 3 93 29.5t53.5 65.5t24 83t5.5 81q0 25 -8.5 43.5t-23.5 30.5t-34.5 18t-41.5 6z" />
    <glyph glyph-name="gamma" unicode="&#x3b3;" horiz-adv-x="402" 
d="M195 150q56 88 99 172.5l88 173.5h90l-62.5 -122.5l-60.5 -111.5l-64.5 -112.5l-74.5 -125.5l-44 -224h-81l41 209q-8 100 -19.5 188t-27.5 178q-3 17 -6 26.5t-7.5 14t-11 5.5t-17.5 1h-4l7 69q15 5 25.5 7t21.5 2q33 0 47.5 -19t19.5 -51q5 -30 10 -65t9.5 -72
t8.5 -73.5t7 -69.5h6z" />
    <glyph glyph-name="eta" unicode="&#x3b7;" horiz-adv-x="514" 
d="M303 -131l83 428q5 28 5 45q0 38 -20.5 58.5t-72.5 20.5q-24 0 -46 -9t-40 -25.5t-31 -39.5t-18 -50l-58 -297h-81l96 495h81l-11 -59h3q30 32 69 48.5t78 16.5q27 0 52 -8.5t44 -25.5t30 -42t11 -57q0 -9 -1 -18.5t-3 -19.5l-89 -461h-81z" />
    <glyph glyph-name="iota" unicode="&#x3b9;" horiz-adv-x="233" 
d="M148 0q-8 -1 -11.5 -1h-8.5q-59 0 -75 28t-5 84l75 383h80l-74 -379q-5 -23 1 -33t33 -12z" />
    <glyph glyph-name="xi" unicode="&#x3be;" horiz-adv-x="405" 
d="M471 604q-53 37 -119 37q-29 0 -55.5 -10t-46 -27t-31 -40.5t-11.5 -51.5q0 -23 11 -38t29 -23.5t41.5 -11.5t49.5 -3h71l-13 -71h-100q-39 0 -71.5 -18t-56 -45.5t-36 -59.5t-12.5 -60q0 -32 17.5 -52t44 -33.5t57 -23.5t57 -23t44 -31.5t17.5 -48.5q0 -20 -9.5 -42
t-23 -43t-29 -40.5l-28.5 -34.5l-62 31l14.5 21t18.5 29t15.5 30t6.5 24q0 17 -16.5 27.5t-42 20l-54.5 20.5t-54.5 29.5t-42 47.5t-16.5 74q0 38 11 76t32.5 71t52 57.5t69.5 36.5q-44 16 -63 45t-19 67q0 45 18 82t48.5 64t71.5 41.5t88 14.5q21 0 44 -2t46 -7t44.5 -13
t38.5 -21l-46 -72v0z" />
    <glyph glyph-name="kappa" unicode="&#x3ba;" horiz-adv-x="490" 
d="M356 0l-109 247l-113 -106l-27 -141h-80l96 495h80l-46 -231l3 1l248 230h103l-204 -193l140 -302h-91z" />
    <glyph glyph-name="lambda" unicode="&#x3bb;" horiz-adv-x="419" 
d="M402 -2q-14 -3 -25 -3.5t-20 -0.5q-57 0 -66 63l-24 178l-17 139h-3l-85 -165l-114 -209h-93l276 493l-11 107q-3 26 -12.5 38.5t-40.5 12.5h-8.5t-9.5 -1l5 75q14 3 28 4t25 1q46 0 66.5 -25t26.5 -73l66 -513q2 -17 4 -27t6 -15.5t11 -7.5t19 -2z" />
    <glyph glyph-name="mu" unicode="&#xb5;" horiz-adv-x="512" 
d="M331 0l11 56h-3q-30 -32 -69 -47t-77 -15q-21 0 -41.5 6.5t-37.5 20.5l-3 -1l-43 -220h-80l135 695h80l-58 -297q-11 -57 12 -92t77 -35q24 0 46 9t40 26t31 40t19 52l58 297h80l-96 -495h-81z" />
    <glyph glyph-name="mu" unicode="&#x3bc;" horiz-adv-x="512" 
d="M331 0l11 56h-3q-30 -32 -69 -47t-77 -15q-21 0 -41.5 6.5t-37.5 20.5l-3 -1l-43 -220h-80l135 695h80l-58 -297q-11 -57 12 -92t77 -35q24 0 46 9t40 26t31 40t19 52l58 297h80l-96 -495h-81z" />
    <glyph glyph-name="nu" unicode="&#x3bd;" horiz-adv-x="428" 
d="M470 494q-34 -73 -67 -137l-66.5 -123l-68.5 -116.5l-74 -117.5h-69l-83 494h82l32 -205q7 -45 12.5 -89.5t7.5 -90.5h3l55 94.5l50.5 92l48 95t47.5 103.5h90z" />
    <glyph glyph-name="omicron" unicode="&#x3bf;" horiz-adv-x="495" 
d="M287 500q80 0 127.5 -47.5t47.5 -127.5q0 -57 -12 -116t-40 -107t-74 -78t-113 -30q-88 0 -134.5 44t-46.5 126q0 66 15 127t45 107.5t76 74t109 27.5zM278 427q-45 0 -75 -26t-48 -64.5t-25.5 -83.5t-7.5 -82q0 -15 4 -33t15 -33.5t30 -26t50 -10.5q45 0 75 23t49 59.5
t27 81t8 88.5q0 55 -28.5 81t-73.5 26z" />
    <glyph glyph-name="pi" unicode="&#x3c0;" horiz-adv-x="518" 
d="M331 0l83 423h-225l-82 -423h-80l96 496h385l-96 -496h-81z" />
    <glyph glyph-name="omegatonos" unicode="&#x3ce;" horiz-adv-x="737" 
d="M583 495q70 -18 100 -58t30 -110q0 -66 -12.5 -126.5t-40 -106t-71 -72.5t-105.5 -27q-46 0 -81.5 18t-55.5 56q-29 -35 -67 -54.5t-84 -19.5q-40 0 -68.5 13t-47 35.5t-27 53t-8.5 66.5q0 68 14.5 127.5t43 104.5t70 72.5t95.5 31.5v-73q-35 -3 -62 -25t-45 -57.5
t-27 -80t-9 -91.5q0 -46 20.5 -73t63.5 -27q56 0 82 33.5t37 89.5l36 185h80l-36 -185q-3 -18 -3 -33q0 -43 24.5 -66t71.5 -23q31 0 55.5 19t41.5 52t26 77.5t9 94.5q0 45 -17 71t-55 35zM381 571l107 177l76 -25l-133 -172z" />
    <glyph glyph-name="rho" unicode="&#x3c1;" horiz-adv-x="502" 
d="M227 69q49 0 80.5 24t50 61t25.5 81.5t7 84.5q0 55 -28.5 81t-73.5 26q-35 0 -64 -20t-49.5 -54.5t-31.5 -81.5t-11 -101q0 -19 5 -37t16.5 -31.5t29.5 -22.5t44 -10zM233 -6q-46 0 -76 18t-50 42l-4 -4l-49 -250h-80l90 466q9 46 26.5 88t46 74.5t68 52t92.5 19.5
q80 0 127.5 -47.5t47.5 -127.5q0 -71 -15 -132t-45 -105t-74.5 -69t-104.5 -25z" />
    <glyph glyph-name="sigma" unicode="&#x3c3;" horiz-adv-x="497" 
d="M423 422q19 -21 26.5 -46.5t7.5 -54.5q0 -58 -13.5 -116.5t-42 -105t-73.5 -76t-109 -29.5q-88 0 -135 44.5t-47 123.5q0 69 16 129.5t47 105.5t74.5 71t99.5 26h251l-12 -70h-88zM272 420q-43 0 -72.5 -24.5t-48 -61.5t-26.5 -80t-8 -80q0 -15 4 -33.5t14.5 -34.5
t29.5 -27t48 -11q46 0 76.5 22.5t49.5 58t27 79t8 85.5q0 55 -28.5 81t-73.5 26z" />
    <glyph glyph-name="tau" unicode="&#x3c4;" horiz-adv-x="334" 
d="M233 423l-55 -287q-5 -23 0.5 -41.5t35.5 -18.5h26l-14 -76h-43q-49 0 -75 29.5t-15 86.5l60 307h-102l14 72h299l-14 -72h-117z" />
    <glyph glyph-name="theta" unicode="&#x3b8;" horiz-adv-x="481" 
d="M333 731q81 0 121 -42t40 -135q0 -38 -5 -78.5t-11 -77.5q-19 -109 -40.5 -187.5t-46.5 -116.5q-27 -42 -71 -71t-108 -29q-86 0 -129 40t-43 131q0 35 7 94.5t20 124.5t32 127.5t42 104.5q32 57 80.5 86t111.5 29zM142 349q-14 -66 -18.5 -107t-4.5 -67q0 -21 3.5 -40.5
t13.5 -34t28.5 -23t48.5 -8.5q46 0 77.5 24t49.5 68q7 17 22 62.5t28 125.5h-248zM322 655q-35 0 -63.5 -17.5t-48.5 -49.5q-11 -17 -25.5 -56.5t-29.5 -108.5h248q8 46 11 78t3 52q0 47 -21.5 74.5t-73.5 27.5z" />
    <glyph glyph-name="omega" unicode="&#x3c9;" horiz-adv-x="737" 
d="M583 495q70 -18 100 -58t30 -110q0 -66 -12.5 -126.5t-40 -106t-71 -72.5t-105.5 -27q-46 0 -81.5 18t-55.5 56q-29 -35 -67 -54.5t-84 -19.5q-40 0 -68.5 13t-47 35.5t-27 53t-8.5 66.5q0 68 14.5 127.5t43 104.5t70 72.5t95.5 31.5v-73q-35 -3 -62 -25t-45 -57.5
t-27 -80t-9 -91.5q0 -46 20.5 -73t63.5 -27q56 0 82 33.5t37 89.5l36 185h80l-36 -185q-3 -18 -3 -33q0 -43 24.5 -66t71.5 -23q31 0 55.5 19t41.5 52t26 77.5t9 94.5q0 45 -17 71t-55 35z" />
    <glyph glyph-name="sigma1" unicode="&#x3c2;" horiz-adv-x="400" 
d="M401 373q-21 25 -54 37.5t-60 12.5q-30 0 -60 -12t-53.5 -38t-38 -67.5t-14.5 -99.5q0 -41 12.5 -70.5t56.5 -49.5l95 -44q30 -14 43 -32t13 -41q0 -37 -26 -76.5t-61 -77.5l-57 35q16 25 25.5 42.5t14.5 28.5t6.5 17t1.5 9q0 11 -6.5 20t-25.5 17l-66 29t-57 35.5
t-40 55t-15 86.5q0 83 23 142t59 96.5t81.5 55t90.5 17.5q42 0 86 -14.5t76 -54.5l-50 -59v0z" />
    <glyph glyph-name="chi" unicode="&#x3c7;" horiz-adv-x="454" 
d="M288 0l-76 191l-150 -191h-100l216 255l-54.5 120.5l-55.5 120.5h91l71 -184l142 184h100l-207 -244l58 -126l58 -126h-93z" />
    <glyph glyph-name="upsilon" unicode="&#x3c5;" horiz-adv-x="518" 
d="M446 173q-16 -80 -71 -129.5t-141 -49.5q-38 0 -70.5 10t-56 29.5t-36.5 47.5t-13 63q0 9 1 19t3 20l61 312h80l-58 -297q-3 -15 -3 -30q0 -44 25 -69.5t67 -25.5q57 0 91.5 34t45.5 91l58 297h80z" />
    <glyph glyph-name="zeta" unicode="&#x3b6;" horiz-adv-x="381" 
d="M121 184q0 -34 17 -55t42.5 -35t55 -24t55 -22t42.5 -29t17 -45q0 -21 -9.5 -44t-24 -44.5t-30.5 -41.5l-29 -35l-59 34q5 8 14.5 21.5l19 28t16.5 28.5t7 23q0 17 -17 27t-42 19.5l-54.5 21t-54.5 31t-42 50t-17 77.5q0 44 18 89.5t48 90.5t68.5 87.5t79.5 80t80.5 68.5
t72.5 53h-239l14 72h356l-14 -68q-29 -20 -69.5 -51t-84 -69t-86 -81t-76 -87.5t-54.5 -88t-21 -82.5z" />
    <glyph glyph-name="upsilondieresis" unicode="&#x3cb;" horiz-adv-x="518" 
d="M446 173q-16 -80 -71 -129.5t-141 -49.5q-38 0 -70.5 10t-56 29.5t-36.5 47.5t-13 63q0 9 1 19t3 20l61 312h80l-58 -297q-3 -15 -3 -30q0 -44 25 -69.5t67 -25.5q57 0 91.5 34t45.5 91l58 297h80zM372 597l17 88h87l-17 -88h-87zM196 597l17 88h86l-17 -88h-86z" />
    <glyph glyph-name="upsilondieresistonos" unicode="&#x3b0;" horiz-adv-x="518" 
d="M446 173q-16 -80 -71 -129.5t-141 -49.5q-38 0 -70.5 10t-56 29.5t-36.5 47.5t-13 63q0 9 1 19t3 20l61 312h80l-58 -297q-3 -15 -3 -30q0 -44 25 -69.5t67 -25.5q57 0 91.5 34t45.5 91l58 297h80zM429 589l17 89h85l-17 -89h-85zM149 589l18 89h85l-17 -89h-86zM261 571
l107 177l76 -25l-133 -172z" />
    <glyph glyph-name="space" unicode=" " horiz-adv-x="224" 
 />
    <glyph glyph-name="Euro" unicode="&#x20ac;" horiz-adv-x="500" 
d="M177 375l-10 -56h210l-11 -54h-210l-5 -26q-6 -32 -4.5 -62.5t13.5 -54t35.5 -37.5t60.5 -14q52 0 92 31t67 76l77 -37q-19 -33 -45.5 -60.5t-58 -46.5t-67.5 -29.5t-74 -10.5q-56 0 -95 19.5t-61.5 53.5t-28.5 80t4 98l3 20h-44l11 54h44l10 56h-44l11 54h44l4 23
q10 51 31.5 96.5t54 79t77 53.5t100.5 20q77 0 123.5 -40.5t64.5 -106.5l-83 -33q-4 19 -14 37t-24 32.5t-32.5 23t-39.5 8.5q-39 0 -68.5 -14.5t-50.5 -39t-34 -56t-19 -64.5l-3 -19h210l-11 -54h-210z" />
    <glyph glyph-name="brokenbar" unicode="&#xa6;" horiz-adv-x="204" 
d="M70 304v412h65v-412h-65zM135 246v-408h-65v408h65z" />
    <glyph glyph-name="logicalnot" unicode="&#xac;" horiz-adv-x="500" 
d="M442 70h-77l37 192h-363l13 64h441z" />
    <glyph glyph-name="exclam" unicode="!" horiz-adv-x="241" 
d="M144 177h-60l92 519h79zM37 0l19 98h90l-19 -98h-90z" />
    <glyph glyph-name="cedilla" unicode="&#xb8;" horiz-adv-x="431" 
d="M230 40l-37 -79q25 -2 42.5 -9t27.5 -17.5t14.5 -22.5t4.5 -24q0 -17 -7.5 -34.5t-22.5 -31.5t-38.5 -23t-55.5 -9h-16t-24.5 1.5t-28 5t-26.5 9.5l20 46q20 -9 41.5 -12t35.5 -3q19 0 38.5 10t19.5 32q0 20 -14 31t-40 11h-12l-17 16l51 107z" />
    <glyph glyph-name="AE" unicode="&#xc6;" horiz-adv-x="977" 
d="M461 0l28 204h-259l-158 -204h-92l541 696h478l-11 -81h-352l-32 -225h300l-11 -77h-300l-32 -232h352l-11 -81h-441zM289 280h211l51 337z" />
    <glyph glyph-name="Ccedilla" unicode="&#xc7;" horiz-adv-x="543" 
d="M531 142q-40 -72 -107 -109t-148 -39l-15 -33q25 -2 42.5 -9t27.5 -17.5t14.5 -22.5t4.5 -24q0 -17 -7.5 -34.5t-22.5 -31.5t-38.5 -23t-55.5 -9h-16t-24.5 1.5t-28 5t-26.5 9.5l20 46q20 -9 41.5 -12t35.5 -3q19 0 38.5 10t19.5 32q0 20 -14 31t-40 11h-12l-17 16l28 59
q-44 5 -77 23t-55 45.5t-33 62.5t-11 74q0 30 6 60l38 190q10 51 31 96.5t54.5 79.5t80 54t107.5 20q85 0 141.5 -40.5t78.5 -106.5l-84 -37q-5 19 -17 38t-29 33.5t-40 23.5t-51 9q-44 0 -76 -16t-54.5 -41.5t-36 -58t-19.5 -65.5l-36 -181q-2 -11 -3 -22t-1 -22
q0 -28 5.5 -53t20 -43.5t40 -29.5t64.5 -11q54 0 101 28.5t73 75.5z" />
    <glyph glyph-name="Ntilde" unicode="&#xd1;" horiz-adv-x="660" 
d="M463 0l-173 398l-61 152l-3 -1l-105 -549h-87l136 696h85l166 -384l67 -164l3 -1l106 549h85l-135 -696h-84zM385 859q18 0 36.5 -7.5t36.5 -16l34 -16t29 -7.5q15 0 29.5 10.5t34.5 34.5l46 -29q-26 -50 -56 -69.5t-62 -19.5q-18 0 -36.5 7t-36.5 15.5t-34.5 15.5
t-31.5 7q-17 0 -30 -8.5t-36 -31.5l-43 26q28 48 59 68.5t61 20.5z" />
    <glyph glyph-name="ae" unicode="&#xe6;" horiz-adv-x="799" 
d="M609 501q82 0 127 -37t44 -100q0 -33 -15 -64.5t-52.5 -54.5t-102 -35.5t-164.5 -8.5q-2 -11 -2 -17.5v-10.5q0 -32 6 -52t18.5 -31t31 -15.5t42.5 -4.5q15 0 32.5 4t35.5 10.5t34 15t28 16.5l40 -59q-37 -30 -85.5 -46.5t-96.5 -16.5q-62 0 -98.5 22t-52.5 65l-2 -9
q-31 -38 -82 -58t-116 -20q-77 0 -115 41t-32 106q3 32 17.5 59.5t38.5 47.5t57 31.5t73 10.5q26 0 43.5 -1t33.5 -2.5t34 -3.5l45 -5l11 65q8 41 -15 61t-83 20q-47 0 -76.5 -11.5t-49.5 -31.5l-47 55q35 32 82 48.5t98 16.5q25 0 50.5 -3t48 -9.5t40.5 -18t29 -27.5
q28 26 64 42t83 16zM604 424q-37 0 -62.5 -13t-42 -34t-25.5 -48t-15 -56q78 -4 125.5 3t73 20t33.5 29.5t8 31.5q0 32 -24 49.5t-71 17.5zM111 146q-7 -35 15.5 -56t77.5 -21q24 0 48 6t44.5 18t34.5 29t19 39l11 51l-40 5t-30.5 3.5t-29.5 2t-36 1.5q-48 0 -77.5 -21.5
t-36.5 -56.5z" />
    <glyph glyph-name="eth" unicode="&#xf0;" horiz-adv-x="493" 
d="M360 596q-20 27 -49.5 44t-68.5 21l23 67q57 -7 97.5 -30t66.5 -58l82 52l20 -32l-81 -52q17 -33 24.5 -70.5t7.5 -76.5q0 -38 -3 -87.5t-13 -101.5t-28.5 -102t-49 -89t-75 -63t-106.5 -24q-83 0 -130 44.5t-47 131.5q0 66 16 122.5t45.5 97t72.5 63.5t97 23q22 0 43 -6
t39 -16t32 -24.5t22 -30.5h4q2 13 3 25.5t1 24.5q0 31 -6 60t-19 55l-69 -44l-20 32zM262 403q-43 0 -72 -21t-47 -54.5t-26 -74.5t-8 -81q0 -49 26.5 -76.5t75.5 -27.5q73 0 117.5 60t44.5 173q0 26 -9.5 45t-25 32t-35.5 19t-41 6z" />
    <glyph glyph-name="otilde" unicode="&#xf5;" horiz-adv-x="495" 
d="M287 500q80 0 127.5 -47.5t47.5 -127.5q0 -57 -12 -116t-40 -107t-74 -78t-113 -30q-88 0 -134.5 44t-46.5 126q0 66 15 127t45 107.5t76 74t109 27.5zM278 427q-45 0 -75 -26t-48 -64.5t-25.5 -83.5t-7.5 -82q0 -15 4 -33t15 -33.5t30 -26t50 -10.5q45 0 75 23t49 59.5
t27 81t8 88.5q0 55 -28.5 81t-73.5 26zM264 699q18 0 36.5 -7.5t36.5 -16l34 -16t29 -7.5q15 0 29.5 10.5t34.5 34.5l46 -29q-26 -50 -56 -69.5t-62 -19.5q-18 0 -36.5 7t-36.5 15.5t-34.5 15.5t-31.5 7q-17 0 -30 -8.5t-36 -31.5l-43 26q28 48 59 68.5t61 20.5z" />
    <glyph glyph-name="florin" unicode="&#x192;" horiz-adv-x="500" 
d="M153 424h98l16 69q8 34 22.5 71t38.5 67t59 49.5t85 19.5q23 0 43.5 -4t35.5 -10l-13.5 -37.5t-12.5 -37.5q-14 5 -32 7.5t-32 2.5q-23 0 -40.5 -10t-30 -27.5t-21 -39.5t-14.5 -46l-16 -74h106l-7 -73h-117l-52 -228q-11 -48 -26 -87t-37.5 -67t-53 -43.5t-71.5 -15.5
q-21 0 -47 5.5t-46 13.5q8 20 15 33.5t15 33.5q32 -13 59 -13q42 0 65.5 38t37.5 101l53 229h-87z" />
    <glyph glyph-name="circumflex" unicode="&#x2c6;" horiz-adv-x="491" 
d="M349 662l-164 -110l-32 38l180 153h53l114 -151l-48 -39z" />
    <glyph glyph-name="caron" unicode="&#x2c7;" horiz-adv-x="491" 
d="M489 743l32 -39l-172 -151h-53l-120 153l46 38l110 -111z" />
    <glyph glyph-name="breve" unicode="&#x2d8;" horiz-adv-x="511" 
d="M275 707q-1 -10 1.5 -22t10 -22t19.5 -17t30 -7q36 0 57.5 21.5t26.5 46.5h77q-6 -24 -18.5 -48t-32.5 -43.5t-48 -31.5t-67 -12q-74 0 -103.5 37t-23.5 98h71z" />
    <glyph glyph-name="multiply" unicode="&#xd7;" horiz-adv-x="587" 
d="M345 235l134 -175l-51 -38l-134 174l-196 -159l-38 50l195 159l-127 166l51 38l128 -165l195 158l38 -50z" />
    <glyph glyph-name="acute" unicode="&#xb4;" horiz-adv-x="491" 
d="M309 571l107 177l76 -25l-134 -172z" />
    <glyph glyph-name="tilde" unicode="&#x2dc;" horiz-adv-x="491" 
d="M274 699q18 0 36.5 -7.5t36.5 -16l34 -16t29 -7.5q15 0 29.5 10.5t34.5 34.5l46 -29q-26 -50 -56 -69.5t-62 -19.5q-18 0 -36.5 7t-36.5 15.5t-34.5 15.5t-31.5 7q-17 0 -30 -8.5t-36 -31.5l-43 26q28 48 59 68.5t61 20.5z" />
    <glyph glyph-name="Dieresis" unicode="&#xf6cb;" horiz-adv-x="532" 
d="M446 750l17 88h88l-17 -88h-88zM266 750l17 88h88l-17 -88h-88z" />
    <glyph glyph-name="uni1FBD" unicode="&#x1fbd;" horiz-adv-x="495" 
d="M293 570q19 20 30 43t11 39q0 15 -11 28t-43 18l45 81q45 -8 71 -29.5t26 -56.5q0 -9 -4 -24.5t-14 -35t-27.5 -40.5t-44.5 -42z" />
    <glyph glyph-name="uni1FBE" unicode="&#x1fbe;" horiz-adv-x="495" 
d="M265 -67q-5 -28 -9.5 -46.5t-6.5 -28.5q-4 -17 -4 -30q0 -33 41 -33h17l-14 -70h-28q-44 0 -70 17.5t-26 59.5q0 14 3 31l20 100h77z" />
    <glyph glyph-name="uni1FC1" unicode="&#x1fc1;" horiz-adv-x="495" 
d="M355 589l17 89h87l-17 -89h-87zM190 589l17 89h87l-17 -89h-87zM288 834q18 0 36.5 -7.5t36.5 -16l34 -16t29 -7.5q15 0 29.5 10.5t34.5 34.5l46 -29q-26 -50 -56 -69.5t-62 -19.5q-18 0 -36.5 7t-36.5 15.5t-34.5 15.5t-31.5 7q-17 0 -30 -8.5t-36 -31.5l-43 26
q28 48 59 68.5t61 20.5z" />
    <glyph glyph-name="uni1FCD" unicode="&#x1fcd;" horiz-adv-x="495" 
d="M162 571q19 20 30 43t11 39q0 15 -11 28t-43 18l45 81q45 -8 71 -29.5t26 -56.5q0 -9 -4 -24.5t-14 -35t-27.5 -40.5t-44.5 -42zM293 763l99 17l91 -210l-46 -16z" />
    <glyph glyph-name="uni1FCE" unicode="&#x1fce;" horiz-adv-x="495" 
d="M243 569q20 21 30 43.5t10 39.5q0 15 -10.5 27.5t-42.5 17.5l44 81q45 -8 71.5 -29.5t26.5 -57.5q0 -10 -4 -25.5t-14.5 -34.5t-27.5 -40t-44 -41zM409 552l-43 16l123 210l92 -17z" />
    <glyph glyph-name="uni1FCF" unicode="&#x1fcf;" horiz-adv-x="505" 
d="M279 548q21 19 33 37.5t12 31.5q0 12 -11.5 20t-41.5 13l41 65q43 -6 67.5 -22t24.5 -43q0 -8 -3.5 -20t-13 -27t-26.5 -33t-44 -37zM298 841q18 0 36.5 -7.5t36.5 -16l34 -16t29 -7.5q15 0 29.5 10.5t34.5 34.5l46 -29q-26 -50 -56 -69.5t-62 -19.5q-18 0 -36.5 7
t-36.5 15.5t-34.5 15.5t-31.5 7q-17 0 -30 -8.5t-36 -31.5l-43 26q28 48 59 68.5t61 20.5z" />
    <glyph glyph-name="uni1FDD" unicode="&#x1fdd;" horiz-adv-x="495" 
d="M167 545q-23 26 -32.5 53.5t-9.5 49.5q0 26 10.5 47t29.5 36.5t44.5 26t54.5 15.5l13 -81q-24 -4 -39 -12t-23.5 -18t-11 -21.5t-2.5 -22.5q0 -13 3 -27t10 -27zM284 763l99 17l91 -210l-46 -16z" />
    <glyph glyph-name="uni1FDE" unicode="&#x1fde;" horiz-adv-x="495" 
d="M230 550q-23 26 -32.5 53t-9.5 49q0 27 10.5 48t29 36.5t44 26t54.5 15.5l14 -81q-47 -8 -62 -28.5t-15 -42.5q0 -14 3.5 -29t10.5 -28zM358 554l-43 16l131 210l92 -17z" />
    <glyph glyph-name="uni1FDF" unicode="&#x1fdf;" horiz-adv-x="495" 
d="M279 532q-26 26 -35 49.5t-9 40.5q0 39 32 61.5t89 30.5l15 -65q-41 -6 -54.5 -18.5t-13.5 -30.5q0 -25 20 -53zM268 844q18 0 36.5 -7.5t36.5 -16l34 -16t29 -7.5q15 0 29.5 10.5t34.5 34.5l46 -29q-26 -50 -56 -69.5t-62 -19.5q-18 0 -36.5 7t-36.5 15.5t-34.5 15.5
t-31.5 7q-17 0 -30 -8.5t-36 -31.5l-43 26q28 48 59 68.5t61 20.5z" />
    <glyph glyph-name="uni1FED" unicode="&#x1fed;" horiz-adv-x="495" 
d="M116 589l18 89h87l-18 -89h-87zM381 589l18 89h87l-18 -89h-87zM185 763l99 17l91 -210l-46 -16z" />
    <glyph glyph-name="uni1FEE" unicode="&#x1fee;" horiz-adv-x="495" 
d="M411 589l18 89h87l-18 -89h-87zM146 589l18 89h87l-18 -89h-87zM300 552l-43 16l123 210l92 -17z" />
    <glyph glyph-name="uni1FFE" unicode="&#x1ffe;" horiz-adv-x="495" 
d="M295 551q-23 26 -32.5 53.5t-9.5 49.5q0 26 10.5 47t29.5 36.5t44.5 26t54.5 15.5l13 -81q-24 -4 -39 -12t-23.5 -18t-11 -21.5t-2.5 -22.5q0 -13 3 -27t10 -27z" />
    <glyph glyph-name="Circumflex" unicode="&#xf6c0;" horiz-adv-x="532" 
d="M419 828l-170 -89l-22 38l176 131h53l118 -129l-38 -37z" />
    <glyph glyph-name="commaaccent" unicode="&#xf6c3;" horiz-adv-x="592" 
d="M279 -257h-51l56 88h-35l22 111h103l-21 -109z" />
    <glyph glyph-name="Caron" unicode="&#xf6ca;" horiz-adv-x="598" 
d="M381 820l172 89l22 -38l-176 -131h-53l-118 129l36 35z" />
    <glyph glyph-name="DieresisAcute" unicode="&#xf6cc;" horiz-adv-x="532" 
d="M495 774l17 89h87l-17 -89h-87zM211 774l16 89h87l-17 -89h-86zM325 762l114 178l66 -40l-138 -166z" />
    <glyph glyph-name="DieresisGrave" unicode="&#xf6cd;" horiz-adv-x="532" 
d="M489 774l17 89h87l-17 -89h-87zM205 774l16 89h87l-17 -89h-86zM437 734l-138 166l66 40l114 -178z" />
    <glyph glyph-name="Grave" unicode="&#xf6ce;" horiz-adv-x="532" 
d="M381 738l-190 103l47 61l172 -122z" />
    <glyph glyph-name="Hungarumlaut" unicode="&#xf6cf;" horiz-adv-x="579" 
d="M246 780l148 122l59 -61l-170 -103zM409 780l172 122l47 -61l-190 -103z" />
    <glyph glyph-name="Macron" unicode="&#xf6d0;" horiz-adv-x="586" 
d="M263 769l15 75h268l-15 -75h-268z" />
    <glyph glyph-name="cyrBreve" unicode="&#xf6d1;" horiz-adv-x="586" 
d="M346 870q-5 -26 9.5 -44.5t46.5 -18.5q20 0 35 6t25 15.5t16 20.5t8 21h75q-4 -22 -15.5 -45t-31.5 -41.5t-50 -30.5t-71 -12q-39 0 -63.5 13t-38 32t-17 41.5t-0.5 42.5h72z" />
    <glyph glyph-name="cyrbreve" unicode="&#xf6d4;" horiz-adv-x="495" 
d="M284 707q-5 -26 9.5 -44.5t46.5 -18.5q16 0 30.5 6t26.5 15.5t19.5 20.5t9.5 21h72q-5 -22 -16.5 -45t-31.5 -41.5t-49.5 -30.5t-70.5 -12q-39 0 -63.5 13t-38 32t-17 41.5t-0.5 42.5h73z" />
    <glyph glyph-name="uniF6D9" unicode="&#xf6d9;" horiz-adv-x="834" 
d="M728 0q-27 0 -48.5 6t-35 19.5t-18 35.5t1.5 54l74 381h82l-73 -374q-9 -47 42 -47h24l-14 -75h-35z" />
    <glyph glyph-name="uniF6DA" unicode="&#xf6da;" horiz-adv-x="495" 
d="M170 763l99 17l91 -210l-46 -16z" />
    <glyph glyph-name="uniF6DB" unicode="&#xf6db;" horiz-adv-x="495" 
d="M315 552l-43 16l123 210l92 -17z" />
    <glyph glyph-name="uniF6DC" unicode="&#xf6dc;" horiz-adv-x="495" 
d="M262 707q18 0 36.5 -7.5t36.5 -16l34 -16t29 -7.5q15 0 29.5 10.5t34.5 34.5l46 -29q-26 -50 -56 -69.5t-62 -19.5q-18 0 -36.5 7t-36.5 15.5t-34.5 15.5t-31.5 7q-17 0 -30 -8.5t-36 -31.5l-43 26q28 48 59 68.5t61 20.5z" />
    <glyph glyph-name="macron" unicode="&#xaf;" horiz-adv-x="495" 
d="M183 600l15 75h268l-15 -75h-268z" />
    <glyph glyph-name="uni1F00" unicode="&#x1f00;" horiz-adv-x="495" 
d="M277 501q36 0 68.5 -15t52.5 -46l3 1l10 54h80l-96 -495h-80l11 54l-3 2q-30 -34 -65.5 -48t-78.5 -14q-37 0 -62.5 12t-41.5 33.5t-23 50.5t-7 63q0 54 12.5 115.5t40.5 113t72 85.5t107 34zM130 169q0 -45 18.5 -69t69.5 -24q40 0 68.5 25.5t47.5 63t28 79.5t9 76
q0 45 -19 72.5t-67 27.5q-30 0 -53.5 -13.5t-40.5 -35t-29 -49t-19 -55t-10 -53.5t-3 -45zM293 570q19 20 30 43t11 39q0 15 -11 28t-43 18l45 81q45 -8 71 -29.5t26 -56.5q0 -9 -4 -24.5t-14 -35t-27.5 -40.5t-44.5 -42z" />
    <glyph glyph-name="uni1F01" unicode="&#x1f01;" horiz-adv-x="495" 
d="M277 501q36 0 68.5 -15t52.5 -46l3 1l10 54h80l-96 -495h-80l11 54l-3 2q-30 -34 -65.5 -48t-78.5 -14q-37 0 -62.5 12t-41.5 33.5t-23 50.5t-7 63q0 54 12.5 115.5t40.5 113t72 85.5t107 34zM130 169q0 -45 18.5 -69t69.5 -24q40 0 68.5 25.5t47.5 63t28 79.5t9 76
q0 45 -19 72.5t-67 27.5q-30 0 -53.5 -13.5t-40.5 -35t-29 -49t-19 -55t-10 -53.5t-3 -45zM302 551q-23 26 -32.5 53.5t-9.5 49.5q0 26 10.5 47t29.5 36.5t44.5 26t54.5 15.5l13 -81q-24 -4 -39 -12t-23.5 -18t-11 -21.5t-2.5 -22.5q0 -13 3 -27t10 -27z" />
    <glyph glyph-name="uni1F02" unicode="&#x1f02;" horiz-adv-x="495" 
d="M277 501q36 0 68.5 -15t52.5 -46l3 1l10 54h80l-96 -495h-80l11 54l-3 2q-30 -34 -65.5 -48t-78.5 -14q-37 0 -62.5 12t-41.5 33.5t-23 50.5t-7 63q0 54 12.5 115.5t40.5 113t72 85.5t107 34zM130 169q0 -45 18.5 -69t69.5 -24q40 0 68.5 25.5t47.5 63t28 79.5t9 76
q0 45 -19 72.5t-67 27.5q-30 0 -53.5 -13.5t-40.5 -35t-29 -49t-19 -55t-10 -53.5t-3 -45zM162 571q19 20 30 43t11 39q0 15 -11 28t-43 18l45 81q45 -8 71 -29.5t26 -56.5q0 -9 -4 -24.5t-14 -35t-27.5 -40.5t-44.5 -42zM293 763l99 17l91 -210l-46 -16z" />
    <glyph glyph-name="uni1F03" unicode="&#x1f03;" horiz-adv-x="495" 
d="M277 501q36 0 68.5 -15t52.5 -46l3 1l10 54h80l-96 -495h-80l11 54l-3 2q-30 -34 -65.5 -48t-78.5 -14q-37 0 -62.5 12t-41.5 33.5t-23 50.5t-7 63q0 54 12.5 115.5t40.5 113t72 85.5t107 34zM130 169q0 -45 18.5 -69t69.5 -24q40 0 68.5 25.5t47.5 63t28 79.5t9 76
q0 45 -19 72.5t-67 27.5q-30 0 -53.5 -13.5t-40.5 -35t-29 -49t-19 -55t-10 -53.5t-3 -45zM167 545q-23 26 -32.5 53.5t-9.5 49.5q0 26 10.5 47t29.5 36.5t44.5 26t54.5 15.5l13 -81q-24 -4 -39 -12t-23.5 -18t-11 -21.5t-2.5 -22.5q0 -13 3 -27t10 -27zM284 763l99 17
l91 -210l-46 -16z" />
    <glyph glyph-name="uni1F04" unicode="&#x1f04;" horiz-adv-x="495" 
d="M277 501q36 0 68.5 -15t52.5 -46l3 1l10 54h80l-96 -495h-80l11 54l-3 2q-30 -34 -65.5 -48t-78.5 -14q-37 0 -62.5 12t-41.5 33.5t-23 50.5t-7 63q0 54 12.5 115.5t40.5 113t72 85.5t107 34zM130 169q0 -45 18.5 -69t69.5 -24q40 0 68.5 25.5t47.5 63t28 79.5t9 76
q0 45 -19 72.5t-67 27.5q-30 0 -53.5 -13.5t-40.5 -35t-29 -49t-19 -55t-10 -53.5t-3 -45zM223 569q20 21 30 43.5t10 39.5q0 15 -10.5 27.5t-42.5 17.5l44 81q45 -8 71.5 -29.5t26.5 -57.5q0 -10 -4 -25.5t-14.5 -34.5t-27.5 -40t-44 -41zM389 552l-43 16l123 210l92 -17z
" />
    <glyph glyph-name="uni1F05" unicode="&#x1f05;" horiz-adv-x="495" 
d="M277 501q36 0 68.5 -15t52.5 -46l3 1l10 54h80l-96 -495h-80l11 54l-3 2q-30 -34 -65.5 -48t-78.5 -14q-37 0 -62.5 12t-41.5 33.5t-23 50.5t-7 63q0 54 12.5 115.5t40.5 113t72 85.5t107 34zM130 169q0 -45 18.5 -69t69.5 -24q40 0 68.5 25.5t47.5 63t28 79.5t9 76
q0 45 -19 72.5t-67 27.5q-30 0 -53.5 -13.5t-40.5 -35t-29 -49t-19 -55t-10 -53.5t-3 -45zM230 550q-23 26 -32.5 53t-9.5 49q0 27 10.5 48t29 36.5t44 26t54.5 15.5l14 -81q-47 -8 -62 -28.5t-15 -42.5q0 -14 3.5 -29t10.5 -28zM358 554l-43 16l131 210l92 -17z" />
    <glyph glyph-name="uni1F06" unicode="&#x1f06;" horiz-adv-x="495" 
d="M277 501q36 0 68.5 -15t52.5 -46l3 1l10 54h80l-96 -495h-80l11 54l-3 2q-30 -34 -65.5 -48t-78.5 -14q-37 0 -62.5 12t-41.5 33.5t-23 50.5t-7 63q0 54 12.5 115.5t40.5 113t72 85.5t107 34zM130 169q0 -45 18.5 -69t69.5 -24q40 0 68.5 25.5t47.5 63t28 79.5t9 76
q0 45 -19 72.5t-67 27.5q-30 0 -53.5 -13.5t-40.5 -35t-29 -49t-19 -55t-10 -53.5t-3 -45zM279 548q21 19 33 37.5t12 31.5q0 12 -11.5 20t-41.5 13l41 65q43 -6 67.5 -22t24.5 -43q0 -8 -3.5 -20t-13 -27t-26.5 -33t-44 -37zM298 841q18 0 36.5 -7.5t36.5 -16l34 -16
t29 -7.5q15 0 29.5 10.5t34.5 34.5l46 -29q-26 -50 -56 -69.5t-62 -19.5q-18 0 -36.5 7t-36.5 15.5t-34.5 15.5t-31.5 7q-17 0 -30 -8.5t-36 -31.5l-43 26q28 48 59 68.5t61 20.5z" />
    <glyph glyph-name="uni1F07" unicode="&#x1f07;" horiz-adv-x="495" 
d="M277 501q36 0 68.5 -15t52.5 -46l3 1l10 54h80l-96 -495h-80l11 54l-3 2q-30 -34 -65.5 -48t-78.5 -14q-37 0 -62.5 12t-41.5 33.5t-23 50.5t-7 63q0 54 12.5 115.5t40.5 113t72 85.5t107 34zM130 169q0 -45 18.5 -69t69.5 -24q40 0 68.5 25.5t47.5 63t28 79.5t9 76
q0 45 -19 72.5t-67 27.5q-30 0 -53.5 -13.5t-40.5 -35t-29 -49t-19 -55t-10 -53.5t-3 -45zM279 532q-26 26 -35 49.5t-9 40.5q0 39 32 61.5t89 30.5l15 -65q-41 -6 -54.5 -18.5t-13.5 -30.5q0 -25 20 -53zM268 844q18 0 36.5 -7.5t36.5 -16l34 -16t29 -7.5q15 0 29.5 10.5
t34.5 34.5l46 -29q-26 -50 -56 -69.5t-62 -19.5q-18 0 -36.5 7t-36.5 15.5t-34.5 15.5t-31.5 7q-17 0 -30 -8.5t-36 -31.5l-43 26q28 48 59 68.5t61 20.5z" />
    <glyph glyph-name="uni1F08" unicode="&#x1f08;" horiz-adv-x="586" 
d="M450 0l-24 160h-283l-86 -160h-93l385 696h77l114 -696h-90zM389 431l-20 158h-2l-79 -154l-106 -199h235zM36 514q19 20 30 43t11 39q0 15 -11 28t-43 18l45 81q45 -8 71 -29.5t26 -56.5q0 -9 -4 -24.5t-14 -35t-27.5 -40.5t-44.5 -42z" />
    <glyph glyph-name="uni1F09" unicode="&#x1f09;" horiz-adv-x="586" 
d="M450 0l-24 160h-283l-86 -160h-93l385 696h77l114 -696h-90zM389 431l-20 158h-2l-79 -154l-106 -199h235zM67 496q-23 26 -32.5 53.5t-9.5 49.5q0 26 10.5 47t29.5 36.5t44.5 26t54.5 15.5l13 -81q-24 -4 -39 -12t-23.5 -18t-11 -21.5t-2.5 -22.5q0 -13 3 -27t10 -27z
" />
    <glyph glyph-name="uni1F0A" unicode="&#x1f0a;" horiz-adv-x="586" 
d="M450 0l-24 160h-283l-86 -160h-93l385 696h77l114 -696h-90zM389 431l-20 158h-2l-79 -154l-106 -199h235zM-123 515q19 20 30 43t11 39q0 15 -11 28t-43 18l45 81q45 -8 71 -29.5t26 -56.5q0 -9 -4 -24.5t-14 -35t-27.5 -40.5t-44.5 -42zM8 707l99 17l91 -210l-46 -16z
" />
    <glyph glyph-name="uni1F0B" unicode="&#x1f0b;" horiz-adv-x="586" 
d="M450 0l-24 160h-283l-86 -160h-93l385 696h77l114 -696h-90zM389 431l-20 158h-2l-79 -154l-106 -199h235zM-117 490q-23 26 -32.5 53.5t-9.5 49.5q0 26 10.5 47t29.5 36.5t44.5 26t54.5 15.5l13 -81q-24 -4 -39 -12t-23.5 -18t-11 -21.5t-2.5 -22.5q0 -13 3 -27t10 -27z
M0 708l99 17l91 -210l-46 -16z" />
    <glyph glyph-name="uni1F0C" unicode="&#x1f0c;" horiz-adv-x="586" 
d="M450 0l-24 160h-283l-86 -160h-93l385 696h77l114 -696h-90zM389 431l-20 158h-2l-79 -154l-106 -199h235zM-92 512q20 21 30 43.5t10 39.5q0 15 -10.5 27.5t-42.5 17.5l44 81q45 -8 71.5 -29.5t26.5 -57.5q0 -10 -4 -25.5t-14.5 -34.5t-27.5 -40t-44 -41zM74 495l-43 16
l123 210l92 -17z" />
    <glyph glyph-name="uni1F0D" unicode="&#x1f0d;" horiz-adv-x="586" 
d="M450 0l-24 160h-283l-86 -160h-93l385 696h77l114 -696h-90zM389 431l-20 158h-2l-79 -154l-106 -199h235zM-54 495q-23 26 -32.5 53t-9.5 49q0 27 10.5 48t29 36.5t44 26t54.5 15.5l14 -81q-47 -8 -62 -28.5t-15 -42.5q0 -14 3.5 -29t10.5 -28zM74 499l-43 16l131 210
l92 -17z" />
    <glyph glyph-name="uni1F0E" unicode="&#x1f0e;" horiz-adv-x="586" 
d="M450 0l-24 160h-283l-86 -160h-93l385 696h77l114 -696h-90zM389 431l-20 158h-2l-79 -154l-106 -199h235zM-24 438q21 19 33 37.5t12 31.5q0 12 -11.5 20t-41.5 13l41 65q43 -6 67.5 -22t24.5 -43q0 -8 -3.5 -20t-13 -27t-26.5 -33t-44 -37zM-5 731q18 0 36.5 -7.5
t36.5 -16l34 -16t29 -7.5q15 0 29.5 10.5t34.5 34.5l46 -29q-26 -50 -56 -69.5t-62 -19.5q-18 0 -36.5 7t-36.5 15.5t-34.5 15.5t-31.5 7q-17 0 -30 -8.5t-36 -31.5l-43 26q28 48 59 68.5t61 20.5z" />
    <glyph glyph-name="uni1F0F" unicode="&#x1f0f;" horiz-adv-x="586" 
d="M450 0l-24 160h-283l-86 -160h-93l385 696h77l114 -696h-90zM389 431l-20 158h-2l-79 -154l-106 -199h235zM-11 423q-26 26 -35 49.5t-9 40.5q0 39 32 61.5t89 30.5l15 -65q-41 -6 -54.5 -18.5t-13.5 -30.5q0 -25 20 -53zM-22 735q18 0 36.5 -7.5t36.5 -16l34 -16
t29 -7.5q15 0 29.5 10.5t34.5 34.5l46 -29q-26 -50 -56 -69.5t-62 -19.5q-18 0 -36.5 7t-36.5 15.5t-34.5 15.5t-31.5 7q-17 0 -30 -8.5t-36 -31.5l-43 26q28 48 59 68.5t61 20.5z" />
    <glyph glyph-name="uni1F10" unicode="&#x1f10;" horiz-adv-x="431" 
d="M394 64q-81 -68 -189 -68q-29 0 -59 7t-54 22.5t-39.5 39.5t-15.5 58q0 24 8 46.5t22 41t33 32.5t42 20q-29 11 -43.5 33.5t-14.5 53.5q0 38 18 66.5t46.5 47t63.5 28t70 9.5q22 0 45.5 -4t45.5 -12t41.5 -20.5t33.5 -29.5l-58 -61q-15 20 -44.5 33t-58.5 13
q-20 0 -41 -3t-38 -11t-28 -21.5t-11 -34.5q0 -20 10 -31t24.5 -16t30.5 -6t29 -1h57l-13 -70h-78q-18 0 -37 -5t-35 -15.5t-26.5 -27t-10.5 -40.5q0 -20 10 -32.5t25.5 -19t33.5 -9t34 -2.5q32 0 64 15t55 35zM260 570q19 20 30 43t11 39q0 15 -11 28t-43 18l45 81
q45 -8 71 -29.5t26 -56.5q0 -9 -4 -24.5t-14 -35t-27.5 -40.5t-44.5 -42z" />
    <glyph glyph-name="uni1F11" unicode="&#x1f11;" horiz-adv-x="431" 
d="M394 64q-81 -68 -189 -68q-29 0 -59 7t-54 22.5t-39.5 39.5t-15.5 58q0 24 8 46.5t22 41t33 32.5t42 20q-29 11 -43.5 33.5t-14.5 53.5q0 38 18 66.5t46.5 47t63.5 28t70 9.5q22 0 45.5 -4t45.5 -12t41.5 -20.5t33.5 -29.5l-58 -61q-15 20 -44.5 33t-58.5 13
q-20 0 -41 -3t-38 -11t-28 -21.5t-11 -34.5q0 -20 10 -31t24.5 -16t30.5 -6t29 -1h57l-13 -70h-78q-18 0 -37 -5t-35 -15.5t-26.5 -27t-10.5 -40.5q0 -20 10 -32.5t25.5 -19t33.5 -9t34 -2.5q32 0 64 15t55 35zM278 551q-23 26 -32.5 53.5t-9.5 49.5q0 26 10.5 47t29.5 36.5
t44.5 26t54.5 15.5l13 -81q-24 -4 -39 -12t-23.5 -18t-11 -21.5t-2.5 -22.5q0 -13 3 -27t10 -27z" />
    <glyph glyph-name="uni1F12" unicode="&#x1f12;" horiz-adv-x="431" 
d="M394 64q-81 -68 -189 -68q-29 0 -59 7t-54 22.5t-39.5 39.5t-15.5 58q0 24 8 46.5t22 41t33 32.5t42 20q-29 11 -43.5 33.5t-14.5 53.5q0 38 18 66.5t46.5 47t63.5 28t70 9.5q22 0 45.5 -4t45.5 -12t41.5 -20.5t33.5 -29.5l-58 -61q-15 20 -44.5 33t-58.5 13
q-20 0 -41 -3t-38 -11t-28 -21.5t-11 -34.5q0 -20 10 -31t24.5 -16t30.5 -6t29 -1h57l-13 -70h-78q-18 0 -37 -5t-35 -15.5t-26.5 -27t-10.5 -40.5q0 -20 10 -32.5t25.5 -19t33.5 -9t34 -2.5q32 0 64 15t55 35zM128 571q19 20 30 43t11 39q0 15 -11 28t-43 18l45 81
q45 -8 71 -29.5t26 -56.5q0 -9 -4 -24.5t-14 -35t-27.5 -40.5t-44.5 -42zM259 763l99 17l91 -210l-46 -16z" />
    <glyph glyph-name="uni1F13" unicode="&#x1f13;" horiz-adv-x="431" 
d="M394 64q-81 -68 -189 -68q-29 0 -59 7t-54 22.5t-39.5 39.5t-15.5 58q0 24 8 46.5t22 41t33 32.5t42 20q-29 11 -43.5 33.5t-14.5 53.5q0 38 18 66.5t46.5 47t63.5 28t70 9.5q22 0 45.5 -4t45.5 -12t41.5 -20.5t33.5 -29.5l-58 -61q-15 20 -44.5 33t-58.5 13
q-20 0 -41 -3t-38 -11t-28 -21.5t-11 -34.5q0 -20 10 -31t24.5 -16t30.5 -6t29 -1h57l-13 -70h-78q-18 0 -37 -5t-35 -15.5t-26.5 -27t-10.5 -40.5q0 -20 10 -32.5t25.5 -19t33.5 -9t34 -2.5q32 0 64 15t55 35zM132 545q-23 26 -32.5 53.5t-9.5 49.5q0 26 10.5 47t29.5 36.5
t44.5 26t54.5 15.5l13 -81q-24 -4 -39 -12t-23.5 -18t-11 -21.5t-2.5 -22.5q0 -13 3 -27t10 -27zM249 763l99 17l91 -210l-46 -16z" />
    <glyph glyph-name="uni1F14" unicode="&#x1f14;" horiz-adv-x="431" 
d="M394 64q-81 -68 -189 -68q-29 0 -59 7t-54 22.5t-39.5 39.5t-15.5 58q0 24 8 46.5t22 41t33 32.5t42 20q-29 11 -43.5 33.5t-14.5 53.5q0 38 18 66.5t46.5 47t63.5 28t70 9.5q22 0 45.5 -4t45.5 -12t41.5 -20.5t33.5 -29.5l-58 -61q-15 20 -44.5 33t-58.5 13
q-20 0 -41 -3t-38 -11t-28 -21.5t-11 -34.5q0 -20 10 -31t24.5 -16t30.5 -6t29 -1h57l-13 -70h-78q-18 0 -37 -5t-35 -15.5t-26.5 -27t-10.5 -40.5q0 -20 10 -32.5t25.5 -19t33.5 -9t34 -2.5q32 0 64 15t55 35zM211 569q20 21 30 43.5t10 39.5q0 15 -10.5 27.5t-42.5 17.5
l44 81q45 -8 71.5 -29.5t26.5 -57.5q0 -10 -4 -25.5t-14.5 -34.5t-27.5 -40t-44 -41zM377 552l-43 16l123 210l92 -17z" />
    <glyph glyph-name="uni1F15" unicode="&#x1f15;" horiz-adv-x="431" 
d="M394 64q-81 -68 -189 -68q-29 0 -59 7t-54 22.5t-39.5 39.5t-15.5 58q0 24 8 46.5t22 41t33 32.5t42 20q-29 11 -43.5 33.5t-14.5 53.5q0 38 18 66.5t46.5 47t63.5 28t70 9.5q22 0 45.5 -4t45.5 -12t41.5 -20.5t33.5 -29.5l-58 -61q-15 20 -44.5 33t-58.5 13
q-20 0 -41 -3t-38 -11t-28 -21.5t-11 -34.5q0 -20 10 -31t24.5 -16t30.5 -6t29 -1h57l-13 -70h-78q-18 0 -37 -5t-35 -15.5t-26.5 -27t-10.5 -40.5q0 -20 10 -32.5t25.5 -19t33.5 -9t34 -2.5q32 0 64 15t55 35zM240 550q-23 26 -32.5 53t-9.5 49q0 27 10.5 48t29 36.5t44 26
t54.5 15.5l14 -81q-47 -8 -62 -28.5t-15 -42.5q0 -14 3.5 -29t10.5 -28zM368 554l-43 16l131 210l92 -17z" />
    <glyph glyph-name="uni1F18" unicode="&#x1f18;" horiz-adv-x="532" 
d="M34 0l136 696h421l-16 -81h-335l-43 -225h294l-15 -77h-294l-46 -232h365l-15 -81h-452zM-57 520q19 20 30 43t11 39q0 15 -11 28t-43 18l45 81q45 -8 71 -29.5t26 -56.5q0 -9 -4 -24.5t-14 -35t-27.5 -40.5t-44.5 -42z" />
    <glyph glyph-name="uni1F19" unicode="&#x1f19;" horiz-adv-x="532" 
d="M34 0l136 696h421l-16 -81h-335l-43 -225h294l-15 -77h-294l-46 -232h365l-15 -81h-452zM-43 501q-23 26 -32.5 53.5t-9.5 49.5q0 26 10.5 47t29.5 36.5t44.5 26t54.5 15.5l13 -81q-24 -4 -39 -12t-23.5 -18t-11 -21.5t-2.5 -22.5q0 -13 3 -27t10 -27z" />
    <glyph glyph-name="uni1F1A" unicode="&#x1f1a;" horiz-adv-x="532" 
d="M34 0l136 696h421l-16 -81h-335l-43 -225h294l-15 -77h-294l-46 -232h365l-15 -81h-452zM-242 521q19 20 30 43t11 39q0 15 -11 28t-43 18l45 81q45 -8 71 -29.5t26 -56.5q0 -9 -4 -24.5t-14 -35t-27.5 -40.5t-44.5 -42zM-111 713l99 17l91 -210l-46 -16z" />
    <glyph glyph-name="uni1F1B" unicode="&#x1f1b;" horiz-adv-x="532" 
d="M34 0l136 696h421l-16 -81h-335l-43 -225h294l-15 -77h-294l-46 -232h365l-15 -81h-452zM-230 495q-23 26 -32.5 53.5t-9.5 49.5q0 26 10.5 47t29.5 36.5t44.5 26t54.5 15.5l13 -81q-24 -4 -39 -12t-23.5 -18t-11 -21.5t-2.5 -22.5q0 -13 3 -27t10 -27zM-113 713l99 17
l91 -210l-46 -16z" />
    <glyph glyph-name="uni1F1C" unicode="&#x1f1c;" horiz-adv-x="532" 
d="M34 0l136 696h421l-16 -81h-335l-43 -225h294l-15 -77h-294l-46 -232h365l-15 -81h-452zM-180 519q20 21 30 43.5t10 39.5q0 15 -10.5 27.5t-42.5 17.5l44 81q45 -8 71.5 -29.5t26.5 -57.5q0 -10 -4 -25.5t-14.5 -34.5t-27.5 -40t-44 -41zM-14 502l-43 16l123 210l92 -17
z" />
    <glyph glyph-name="uni1F1D" unicode="&#x1f1d;" horiz-adv-x="532" 
d="M34 0l136 696h421l-16 -81h-335l-43 -225h294l-15 -77h-294l-46 -232h365l-15 -81h-452zM-194 500q-23 26 -32.5 53t-9.5 49q0 27 10.5 48t29 36.5t44 26t54.5 15.5l14 -81q-47 -8 -62 -28.5t-15 -42.5q0 -14 3.5 -29t10.5 -28zM-66 504l-43 16l131 210l92 -17z" />
    <glyph glyph-name="uni1F20" unicode="&#x1f20;" horiz-adv-x="514" 
d="M303 -131l83 428q5 28 5 45q0 38 -20.5 58.5t-72.5 20.5q-24 0 -46 -9t-40 -25.5t-31 -39.5t-18 -50l-58 -297h-81l96 495h81l-11 -59h3q30 32 69 48.5t78 16.5q27 0 52 -8.5t44 -25.5t30 -42t11 -57q0 -9 -1 -18.5t-3 -19.5l-89 -461h-81zM281 570q19 20 30 43t11 39
q0 15 -11 28t-43 18l45 81q45 -8 71 -29.5t26 -56.5q0 -9 -4 -24.5t-14 -35t-27.5 -40.5t-44.5 -42z" />
    <glyph glyph-name="uni1F21" unicode="&#x1f21;" horiz-adv-x="514" 
d="M303 -131l83 428q5 28 5 45q0 38 -20.5 58.5t-72.5 20.5q-24 0 -46 -9t-40 -25.5t-31 -39.5t-18 -50l-58 -297h-81l96 495h81l-11 -59h3q30 32 69 48.5t78 16.5q27 0 52 -8.5t44 -25.5t30 -42t11 -57q0 -9 -1 -18.5t-3 -19.5l-89 -461h-81zM283 551q-23 26 -32.5 53.5
t-9.5 49.5q0 26 10.5 47t29.5 36.5t44.5 26t54.5 15.5l13 -81q-24 -4 -39 -12t-23.5 -18t-11 -21.5t-2.5 -22.5q0 -13 3 -27t10 -27z" />
    <glyph glyph-name="uni1F22" unicode="&#x1f22;" horiz-adv-x="514" 
d="M303 -131l83 428q5 28 5 45q0 38 -20.5 58.5t-72.5 20.5q-24 0 -46 -9t-40 -25.5t-31 -39.5t-18 -50l-58 -297h-81l96 495h81l-11 -59h3q30 32 69 48.5t78 16.5q27 0 52 -8.5t44 -25.5t30 -42t11 -57q0 -9 -1 -18.5t-3 -19.5l-89 -461h-81zM151 571q19 20 30 43t11 39
q0 15 -11 28t-43 18l45 81q45 -8 71 -29.5t26 -56.5q0 -9 -4 -24.5t-14 -35t-27.5 -40.5t-44.5 -42zM282 763l99 17l91 -210l-46 -16z" />
    <glyph glyph-name="uni1F23" unicode="&#x1f23;" horiz-adv-x="514" 
d="M303 -131l83 428q5 28 5 45q0 38 -20.5 58.5t-72.5 20.5q-24 0 -46 -9t-40 -25.5t-31 -39.5t-18 -50l-58 -297h-81l96 495h81l-11 -59h3q30 32 69 48.5t78 16.5q27 0 52 -8.5t44 -25.5t30 -42t11 -57q0 -9 -1 -18.5t-3 -19.5l-89 -461h-81zM160 545q-23 26 -32.5 53.5
t-9.5 49.5q0 26 10.5 47t29.5 36.5t44.5 26t54.5 15.5l13 -81q-24 -4 -39 -12t-23.5 -18t-11 -21.5t-2.5 -22.5q0 -13 3 -27t10 -27zM277 763l99 17l91 -210l-46 -16z" />
    <glyph glyph-name="uni1F24" unicode="&#x1f24;" horiz-adv-x="514" 
d="M303 -131l83 428q5 28 5 45q0 38 -20.5 58.5t-72.5 20.5q-24 0 -46 -9t-40 -25.5t-31 -39.5t-18 -50l-58 -297h-81l96 495h81l-11 -59h3q30 32 69 48.5t78 16.5q27 0 52 -8.5t44 -25.5t30 -42t11 -57q0 -9 -1 -18.5t-3 -19.5l-89 -461h-81zM224 569q20 21 30 43.5
t10 39.5q0 15 -10.5 27.5t-42.5 17.5l44 81q45 -8 71.5 -29.5t26.5 -57.5q0 -10 -4 -25.5t-14.5 -34.5t-27.5 -40t-44 -41zM390 552l-43 16l123 210l92 -17z" />
    <glyph glyph-name="uni1F25" unicode="&#x1f25;" horiz-adv-x="514" 
d="M303 -131l83 428q5 28 5 45q0 38 -20.5 58.5t-72.5 20.5q-24 0 -46 -9t-40 -25.5t-31 -39.5t-18 -50l-58 -297h-81l96 495h81l-11 -59h3q30 32 69 48.5t78 16.5q27 0 52 -8.5t44 -25.5t30 -42t11 -57q0 -9 -1 -18.5t-3 -19.5l-89 -461h-81zM261 550q-23 26 -32.5 53
t-9.5 49q0 27 10.5 48t29 36.5t44 26t54.5 15.5l14 -81q-47 -8 -62 -28.5t-15 -42.5q0 -14 3.5 -29t10.5 -28zM389 554l-43 16l131 210l92 -17z" />
    <glyph glyph-name="uni1F26" unicode="&#x1f26;" horiz-adv-x="514" 
d="M303 -131l83 428q5 28 5 45q0 38 -20.5 58.5t-72.5 20.5q-24 0 -46 -9t-40 -25.5t-31 -39.5t-18 -50l-58 -297h-81l96 495h81l-11 -59h3q30 32 69 48.5t78 16.5q27 0 52 -8.5t44 -25.5t30 -42t11 -57q0 -9 -1 -18.5t-3 -19.5l-89 -461h-81zM257 548q21 19 33 37.5
t12 31.5q0 12 -11.5 20t-41.5 13l41 65q43 -6 67.5 -22t24.5 -43q0 -8 -3.5 -20t-13 -27t-26.5 -33t-44 -37zM276 841q18 0 36.5 -7.5t36.5 -16l34 -16t29 -7.5q15 0 29.5 10.5t34.5 34.5l46 -29q-26 -50 -56 -69.5t-62 -19.5q-18 0 -36.5 7t-36.5 15.5t-34.5 15.5t-31.5 7
q-17 0 -30 -8.5t-36 -31.5l-43 26q28 48 59 68.5t61 20.5z" />
    <glyph glyph-name="uni1F27" unicode="&#x1f27;" horiz-adv-x="514" 
d="M303 -131l83 428q5 28 5 45q0 38 -20.5 58.5t-72.5 20.5q-24 0 -46 -9t-40 -25.5t-31 -39.5t-18 -50l-58 -297h-81l96 495h81l-11 -59h3q30 32 69 48.5t78 16.5q27 0 52 -8.5t44 -25.5t30 -42t11 -57q0 -9 -1 -18.5t-3 -19.5l-89 -461h-81zM285 531q-26 26 -35 49.5
t-9 40.5q0 39 32 61.5t89 30.5l15 -65q-41 -6 -54.5 -18.5t-13.5 -30.5q0 -25 20 -53zM274 843q18 0 36.5 -7.5t36.5 -16l34 -16t29 -7.5q15 0 29.5 10.5t34.5 34.5l46 -29q-26 -50 -56 -69.5t-62 -19.5q-18 0 -36.5 7t-36.5 15.5t-34.5 15.5t-31.5 7q-17 0 -30 -8.5
t-36 -31.5l-43 26q28 48 59 68.5t61 20.5z" />
    <glyph glyph-name="uni1F28" unicode="&#x1f28;" horiz-adv-x="623" 
d="M423 0l60 313h-301l-61 -313h-87l136 696h86l-59 -306h301l60 306h86l-135 -696h-86zM-37 520q19 20 30 43t11 39q0 15 -11 28t-43 18l45 81q45 -8 71 -29.5t26 -56.5q0 -9 -4 -24.5t-14 -35t-27.5 -40.5t-44.5 -42z" />
    <glyph glyph-name="uni1F29" unicode="&#x1f29;" horiz-adv-x="623" 
d="M423 0l60 313h-301l-61 -313h-87l136 696h86l-59 -306h301l60 306h86l-135 -696h-86zM-39 501q-23 26 -32.5 53.5t-9.5 49.5q0 26 10.5 47t29.5 36.5t44.5 26t54.5 15.5l13 -81q-24 -4 -39 -12t-23.5 -18t-11 -21.5t-2.5 -22.5q0 -13 3 -27t10 -27z" />
    <glyph glyph-name="uni1F2A" unicode="&#x1f2a;" horiz-adv-x="623" 
d="M423 0l60 313h-301l-61 -313h-87l136 696h86l-59 -306h301l60 306h86l-135 -696h-86zM-227 521q19 20 30 43t11 39q0 15 -11 28t-43 18l45 81q45 -8 71 -29.5t26 -56.5q0 -9 -4 -24.5t-14 -35t-27.5 -40.5t-44.5 -42zM-96 713l99 17l91 -210l-46 -16z" />
    <glyph glyph-name="uni1F2B" unicode="&#x1f2b;" horiz-adv-x="623" 
d="M423 0l60 313h-301l-61 -313h-87l136 696h86l-59 -306h301l60 306h86l-135 -696h-86zM-216 495q-23 26 -32.5 53.5t-9.5 49.5q0 26 10.5 47t29.5 36.5t44.5 26t54.5 15.5l13 -81q-24 -4 -39 -12t-23.5 -18t-11 -21.5t-2.5 -22.5q0 -13 3 -27t10 -27zM-99 713l99 17
l91 -210l-46 -16z" />
    <glyph glyph-name="uni1F2C" unicode="&#x1f2c;" horiz-adv-x="623" 
d="M423 0l60 313h-301l-61 -313h-87l136 696h86l-59 -306h301l60 306h86l-135 -696h-86zM-209 519q20 21 30 43.5t10 39.5q0 15 -10.5 27.5t-42.5 17.5l44 81q45 -8 71.5 -29.5t26.5 -57.5q0 -10 -4 -25.5t-14.5 -34.5t-27.5 -40t-44 -41zM-43 502l-43 16l123 210l92 -17z
" />
    <glyph glyph-name="uni1F2D" unicode="&#x1f2d;" horiz-adv-x="623" 
d="M423 0l60 313h-301l-61 -313h-87l136 696h86l-59 -306h301l60 306h86l-135 -696h-86zM-184 500q-23 26 -32.5 53t-9.5 49q0 27 10.5 48t29 36.5t44 26t54.5 15.5l14 -81q-47 -8 -62 -28.5t-15 -42.5q0 -14 3.5 -29t10.5 -28zM-56 504l-43 16l131 210l92 -17z" />
    <glyph glyph-name="uni1F2E" unicode="&#x1f2e;" horiz-adv-x="623" 
d="M423 0l60 313h-301l-61 -313h-87l136 696h86l-59 -306h301l60 306h86l-135 -696h-86zM-141 439q21 19 33 37.5t12 31.5q0 12 -11.5 20t-41.5 13l41 65q43 -6 67.5 -22t24.5 -43q0 -8 -3.5 -20t-13 -27t-26.5 -33t-44 -37zM-122 732q18 0 36.5 -7.5t36.5 -16l34 -16
t29 -7.5q15 0 29.5 10.5t34.5 34.5l46 -29q-26 -50 -56 -69.5t-62 -19.5q-18 0 -36.5 7t-36.5 15.5t-34.5 15.5t-31.5 7q-17 0 -30 -8.5t-36 -31.5l-43 26q28 48 59 68.5t61 20.5z" />
    <glyph glyph-name="uni1F2F" unicode="&#x1f2f;" horiz-adv-x="623" 
d="M423 0l60 313h-301l-61 -313h-87l136 696h86l-59 -306h301l60 306h86l-135 -696h-86zM-132 423q-26 26 -35 49.5t-9 40.5q0 39 32 61.5t89 30.5l15 -65q-41 -6 -54.5 -18.5t-13.5 -30.5q0 -25 20 -53zM-143 735q18 0 36.5 -7.5t36.5 -16l34 -16t29 -7.5q15 0 29.5 10.5
t34.5 34.5l46 -29q-26 -50 -56 -69.5t-62 -19.5q-18 0 -36.5 7t-36.5 15.5t-34.5 15.5t-31.5 7q-17 0 -30 -8.5t-36 -31.5l-43 26q28 48 59 68.5t61 20.5z" />
    <glyph glyph-name="uni1F30" unicode="&#x1f30;" horiz-adv-x="233" 
d="M148 0q-8 -1 -11.5 -1h-8.5q-59 0 -75 28t-5 84l75 383h80l-74 -379q-5 -23 1 -33t33 -12zM143 570q19 20 30 43t11 39q0 15 -11 28t-43 18l45 81q45 -8 71 -29.5t26 -56.5q0 -9 -4 -24.5t-14 -35t-27.5 -40.5t-44.5 -42z" />
    <glyph glyph-name="uni1F31" unicode="&#x1f31;" horiz-adv-x="233" 
d="M148 0q-8 -1 -11.5 -1h-8.5q-59 0 -75 28t-5 84l75 383h80l-74 -379q-5 -23 1 -33t33 -12zM142 551q-23 26 -32.5 53.5t-9.5 49.5q0 26 10.5 47t29.5 36.5t44.5 26t54.5 15.5l13 -81q-24 -4 -39 -12t-23.5 -18t-11 -21.5t-2.5 -22.5q0 -13 3 -27t10 -27z" />
    <glyph glyph-name="uni1F32" unicode="&#x1f32;" horiz-adv-x="233" 
d="M148 0q-8 -1 -11.5 -1h-8.5q-59 0 -75 28t-5 84l75 383h80l-74 -379q-5 -23 1 -33t33 -12zM14 571q19 20 30 43t11 39q0 15 -11 28t-43 18l45 81q45 -8 71 -29.5t26 -56.5q0 -9 -4 -24.5t-14 -35t-27.5 -40.5t-44.5 -42zM145 763l99 17l91 -210l-46 -16z" />
    <glyph glyph-name="uni1F33" unicode="&#x1f33;" horiz-adv-x="233" 
d="M148 0q-8 -1 -11.5 -1h-8.5q-59 0 -75 28t-5 84l75 383h80l-74 -379q-5 -23 1 -33t33 -12zM26 547q-23 26 -32.5 53.5t-9.5 49.5q0 26 10.5 47t29.5 36.5t44.5 26t54.5 15.5l13 -81q-24 -4 -39 -12t-23.5 -18t-11 -21.5t-2.5 -22.5q0 -13 3 -27t10 -27zM143 765l99 17
l91 -210l-46 -16z" />
    <glyph glyph-name="uni1F34" unicode="&#x1f34;" horiz-adv-x="233" 
d="M148 0q-8 -1 -11.5 -1h-8.5q-59 0 -75 28t-5 84l75 383h80l-74 -379q-5 -23 1 -33t33 -12zM76 569q20 21 30 43.5t10 39.5q0 15 -10.5 27.5t-42.5 17.5l44 81q45 -8 71.5 -29.5t26.5 -57.5q0 -10 -4 -25.5t-14.5 -34.5t-27.5 -40t-44 -41zM242 552l-43 16l123 210l92 -17
z" />
    <glyph glyph-name="uni1F35" unicode="&#x1f35;" horiz-adv-x="233" 
d="M148 0q-8 -1 -11.5 -1h-8.5q-59 0 -75 28t-5 84l75 383h80l-74 -379q-5 -23 1 -33t33 -12zM121 550q-23 26 -32.5 53t-9.5 49q0 27 10.5 48t29 36.5t44 26t54.5 15.5l14 -81q-47 -8 -62 -28.5t-15 -42.5q0 -14 3.5 -29t10.5 -28zM249 554l-43 16l131 210l92 -17z" />
    <glyph glyph-name="uni1F36" unicode="&#x1f36;" horiz-adv-x="233" 
d="M148 0q-8 -1 -11.5 -1h-8.5q-59 0 -75 28t-5 84l75 383h80l-74 -379q-5 -23 1 -33t33 -12zM143 548q21 19 33 37.5t12 31.5q0 12 -11.5 20t-41.5 13l41 65q43 -6 67.5 -22t24.5 -43q0 -8 -3.5 -20t-13 -27t-26.5 -33t-44 -37zM162 841q18 0 36.5 -7.5t36.5 -16l34 -16
t29 -7.5q15 0 29.5 10.5t34.5 34.5l46 -29q-26 -50 -56 -69.5t-62 -19.5q-18 0 -36.5 7t-36.5 15.5t-34.5 15.5t-31.5 7q-17 0 -30 -8.5t-36 -31.5l-43 26q28 48 59 68.5t61 20.5z" />
    <glyph glyph-name="uni1F37" unicode="&#x1f37;" horiz-adv-x="233" 
d="M148 0q-8 -1 -11.5 -1h-8.5q-59 0 -75 28t-5 84l75 383h80l-74 -379q-5 -23 1 -33t33 -12zM156 532q-26 26 -35 49.5t-9 40.5q0 39 32 61.5t89 30.5l15 -65q-41 -6 -54.5 -18.5t-13.5 -30.5q0 -25 20 -53zM145 844q18 0 36.5 -7.5t36.5 -16l34 -16t29 -7.5
q15 0 29.5 10.5t34.5 34.5l46 -29q-26 -50 -56 -69.5t-62 -19.5q-18 0 -36.5 7t-36.5 15.5t-34.5 15.5t-31.5 7q-17 0 -30 -8.5t-36 -31.5l-43 26q28 48 59 68.5t61 20.5z" />
    <glyph glyph-name="uni1F38" unicode="&#x1f38;" horiz-adv-x="236" 
d="M34 0l136 696h86l-135 -696h-87zM-42 520q19 20 30 43t11 39q0 15 -11 28t-43 18l45 81q45 -8 71 -29.5t26 -56.5q0 -9 -4 -24.5t-14 -35t-27.5 -40.5t-44.5 -42z" />
    <glyph glyph-name="uni1F39" unicode="&#x1f39;" horiz-adv-x="236" 
d="M34 0l136 696h86l-135 -696h-87zM-42 501q-23 26 -32.5 53.5t-9.5 49.5q0 26 10.5 47t29.5 36.5t44.5 26t54.5 15.5l13 -81q-24 -4 -39 -12t-23.5 -18t-11 -21.5t-2.5 -22.5q0 -13 3 -27t10 -27z" />
    <glyph glyph-name="uni1F3A" unicode="&#x1f3a;" horiz-adv-x="236" 
d="M34 0l136 696h86l-135 -696h-87zM-226 521q19 20 30 43t11 39q0 15 -11 28t-43 18l45 81q45 -8 71 -29.5t26 -56.5q0 -9 -4 -24.5t-14 -35t-27.5 -40.5t-44.5 -42zM-95 713l99 17l91 -210l-46 -16z" />
    <glyph glyph-name="uni1F3B" unicode="&#x1f3b;" horiz-adv-x="236" 
d="M34 0l136 696h86l-135 -696h-87zM-218 495q-23 26 -32.5 53.5t-9.5 49.5q0 26 10.5 47t29.5 36.5t44.5 26t54.5 15.5l13 -81q-24 -4 -39 -12t-23.5 -18t-11 -21.5t-2.5 -22.5q0 -13 3 -27t10 -27zM-101 713l99 17l91 -210l-46 -16z" />
    <glyph glyph-name="uni1F3C" unicode="&#x1f3c;" horiz-adv-x="236" 
d="M34 0l136 696h86l-135 -696h-87zM-213 519q20 21 30 43.5t10 39.5q0 15 -10.5 27.5t-42.5 17.5l44 81q45 -8 71.5 -29.5t26.5 -57.5q0 -10 -4 -25.5t-14.5 -34.5t-27.5 -40t-44 -41zM-47 502l-43 16l123 210l92 -17z" />
    <glyph glyph-name="uni1F3D" unicode="&#x1f3d;" horiz-adv-x="236" 
d="M34 0l136 696h86l-135 -696h-87zM-184 500q-23 26 -32.5 53t-9.5 49q0 27 10.5 48t29 36.5t44 26t54.5 15.5l14 -81q-47 -8 -62 -28.5t-15 -42.5q0 -14 3.5 -29t10.5 -28zM-56 504l-43 16l131 210l92 -17z" />
    <glyph glyph-name="uni1F3E" unicode="&#x1f3e;" horiz-adv-x="236" 
d="M34 0l136 696h86l-135 -696h-87zM-155 438q21 19 33 37.5t12 31.5q0 12 -11.5 20t-41.5 13l41 65q43 -6 67.5 -22t24.5 -43q0 -8 -3.5 -20t-13 -27t-26.5 -33t-44 -37zM-136 731q18 0 36.5 -7.5t36.5 -16l34 -16t29 -7.5q15 0 29.5 10.5t34.5 34.5l46 -29
q-26 -50 -56 -69.5t-62 -19.5q-18 0 -36.5 7t-36.5 15.5t-34.5 15.5t-31.5 7q-17 0 -30 -8.5t-36 -31.5l-43 26q28 48 59 68.5t61 20.5z" />
    <glyph glyph-name="uni1F3F" unicode="&#x1f3f;" horiz-adv-x="236" 
d="M34 0l136 696h86l-135 -696h-87zM-143 422q-26 26 -35 49.5t-9 40.5q0 39 32 61.5t89 30.5l15 -65q-41 -6 -54.5 -18.5t-13.5 -30.5q0 -25 20 -53zM-154 734q18 0 36.5 -7.5t36.5 -16l34 -16t29 -7.5q15 0 29.5 10.5t34.5 34.5l46 -29q-26 -50 -56 -69.5t-62 -19.5
q-18 0 -36.5 7t-36.5 15.5t-34.5 15.5t-31.5 7q-17 0 -30 -8.5t-36 -31.5l-43 26q28 48 59 68.5t61 20.5z" />
    <glyph glyph-name="uni1F40" unicode="&#x1f40;" horiz-adv-x="495" 
d="M287 500q80 0 127.5 -47.5t47.5 -127.5q0 -57 -12 -116t-40 -107t-74 -78t-113 -30q-88 0 -134.5 44t-46.5 126q0 66 15 127t45 107.5t76 74t109 27.5zM278 427q-45 0 -75 -26t-48 -64.5t-25.5 -83.5t-7.5 -82q0 -15 4 -33t15 -33.5t30 -26t50 -10.5q45 0 75 23t49 59.5
t27 81t8 88.5q0 55 -28.5 81t-73.5 26zM293 570q19 20 30 43t11 39q0 15 -11 28t-43 18l45 81q45 -8 71 -29.5t26 -56.5q0 -9 -4 -24.5t-14 -35t-27.5 -40.5t-44.5 -42z" />
    <glyph glyph-name="uni1F41" unicode="&#x1f41;" horiz-adv-x="495" 
d="M287 500q80 0 127.5 -47.5t47.5 -127.5q0 -57 -12 -116t-40 -107t-74 -78t-113 -30q-88 0 -134.5 44t-46.5 126q0 66 15 127t45 107.5t76 74t109 27.5zM278 427q-45 0 -75 -26t-48 -64.5t-25.5 -83.5t-7.5 -82q0 -15 4 -33t15 -33.5t30 -26t50 -10.5q45 0 75 23t49 59.5
t27 81t8 88.5q0 55 -28.5 81t-73.5 26zM295 551q-23 26 -32.5 53.5t-9.5 49.5q0 26 10.5 47t29.5 36.5t44.5 26t54.5 15.5l13 -81q-24 -4 -39 -12t-23.5 -18t-11 -21.5t-2.5 -22.5q0 -13 3 -27t10 -27z" />
    <glyph glyph-name="uni1F42" unicode="&#x1f42;" horiz-adv-x="495" 
d="M287 500q80 0 127.5 -47.5t47.5 -127.5q0 -57 -12 -116t-40 -107t-74 -78t-113 -30q-88 0 -134.5 44t-46.5 126q0 66 15 127t45 107.5t76 74t109 27.5zM278 427q-45 0 -75 -26t-48 -64.5t-25.5 -83.5t-7.5 -82q0 -15 4 -33t15 -33.5t30 -26t50 -10.5q45 0 75 23t49 59.5
t27 81t8 88.5q0 55 -28.5 81t-73.5 26zM152 571q19 20 30 43t11 39q0 15 -11 28t-43 18l45 81q45 -8 71 -29.5t26 -56.5q0 -9 -4 -24.5t-14 -35t-27.5 -40.5t-44.5 -42zM283 763l99 17l91 -210l-46 -16z" />
    <glyph glyph-name="uni1F43" unicode="&#x1f43;" horiz-adv-x="495" 
d="M287 500q80 0 127.5 -47.5t47.5 -127.5q0 -57 -12 -116t-40 -107t-74 -78t-113 -30q-88 0 -134.5 44t-46.5 126q0 66 15 127t45 107.5t76 74t109 27.5zM278 427q-45 0 -75 -26t-48 -64.5t-25.5 -83.5t-7.5 -82q0 -15 4 -33t15 -33.5t30 -26t50 -10.5q45 0 75 23t49 59.5
t27 81t8 88.5q0 55 -28.5 81t-73.5 26zM167 545q-23 26 -32.5 53.5t-9.5 49.5q0 26 10.5 47t29.5 36.5t44.5 26t54.5 15.5l13 -81q-24 -4 -39 -12t-23.5 -18t-11 -21.5t-2.5 -22.5q0 -13 3 -27t10 -27zM284 763l99 17l91 -210l-46 -16z" />
    <glyph glyph-name="uni1F44" unicode="&#x1f44;" horiz-adv-x="495" 
d="M287 500q80 0 127.5 -47.5t47.5 -127.5q0 -57 -12 -116t-40 -107t-74 -78t-113 -30q-88 0 -134.5 44t-46.5 126q0 66 15 127t45 107.5t76 74t109 27.5zM278 427q-45 0 -75 -26t-48 -64.5t-25.5 -83.5t-7.5 -82q0 -15 4 -33t15 -33.5t30 -26t50 -10.5q45 0 75 23t49 59.5
t27 81t8 88.5q0 55 -28.5 81t-73.5 26zM235 569q20 21 30 43.5t10 39.5q0 15 -10.5 27.5t-42.5 17.5l44 81q45 -8 71.5 -29.5t26.5 -57.5q0 -10 -4 -25.5t-14.5 -34.5t-27.5 -40t-44 -41zM401 552l-43 16l123 210l92 -17z" />
    <glyph glyph-name="uni1F45" unicode="&#x1f45;" horiz-adv-x="495" 
d="M287 500q80 0 127.5 -47.5t47.5 -127.5q0 -57 -12 -116t-40 -107t-74 -78t-113 -30q-88 0 -134.5 44t-46.5 126q0 66 15 127t45 107.5t76 74t109 27.5zM278 427q-45 0 -75 -26t-48 -64.5t-25.5 -83.5t-7.5 -82q0 -15 4 -33t15 -33.5t30 -26t50 -10.5q45 0 75 23t49 59.5
t27 81t8 88.5q0 55 -28.5 81t-73.5 26zM246 550q-23 26 -32.5 53t-9.5 49q0 27 10.5 48t29 36.5t44 26t54.5 15.5l14 -81q-47 -8 -62 -28.5t-15 -42.5q0 -14 3.5 -29t10.5 -28zM374 554l-43 16l131 210l92 -17z" />
    <glyph glyph-name="uni1F48" unicode="&#x1f48;" horiz-adv-x="579" 
d="M366 701q49 0 90 -15t70.5 -42t46 -64.5t16.5 -82.5q0 -24 -4.5 -54t-10.5 -62.5t-13.5 -65.5t-13.5 -63q-12 -58 -35.5 -105.5t-58.5 -81.5t-82 -52.5t-107 -18.5q-59 0 -100.5 16t-67.5 44t-38 65.5t-12 80.5q0 24 4.5 55.5t11 65t14.5 67t14 61.5q12 53 32.5 99
t53.5 80t79.5 53.5t110.5 19.5zM360 622q-47 0 -79.5 -16.5t-55 -42t-35 -58t-18.5 -63.5l-36 -185q-7 -36 -5 -69.5t17 -59t44.5 -41t78.5 -15.5q40 0 71.5 14.5t55 39t39.5 58.5t25 73l13 57t13 60t10 58t4 50q0 62 -36.5 101t-105.5 39zM-45 520q19 20 30 43t11 39
q0 15 -11 28t-43 18l45 81q45 -8 71 -29.5t26 -56.5q0 -9 -4 -24.5t-14 -35t-27.5 -40.5t-44.5 -42z" />
    <glyph glyph-name="uni1F49" unicode="&#x1f49;" horiz-adv-x="579" 
d="M366 701q49 0 90 -15t70.5 -42t46 -64.5t16.5 -82.5q0 -24 -4.5 -54t-10.5 -62.5t-13.5 -65.5t-13.5 -63q-12 -58 -35.5 -105.5t-58.5 -81.5t-82 -52.5t-107 -18.5q-59 0 -100.5 16t-67.5 44t-38 65.5t-12 80.5q0 24 4.5 55.5t11 65t14.5 67t14 61.5q12 53 32.5 99
t53.5 80t79.5 53.5t110.5 19.5zM360 622q-47 0 -79.5 -16.5t-55 -42t-35 -58t-18.5 -63.5l-36 -185q-7 -36 -5 -69.5t17 -59t44.5 -41t78.5 -15.5q40 0 71.5 14.5t55 39t39.5 58.5t25 73l13 57t13 60t10 58t4 50q0 62 -36.5 101t-105.5 39zM-41 501q-23 26 -32.5 53.5
t-9.5 49.5q0 26 10.5 47t29.5 36.5t44.5 26t54.5 15.5l13 -81q-24 -4 -39 -12t-23.5 -18t-11 -21.5t-2.5 -22.5q0 -13 3 -27t10 -27z" />
    <glyph glyph-name="uni1F4A" unicode="&#x1f4a;" horiz-adv-x="579" 
d="M366 701q49 0 90 -15t70.5 -42t46 -64.5t16.5 -82.5q0 -24 -4.5 -54t-10.5 -62.5t-13.5 -65.5t-13.5 -63q-12 -58 -35.5 -105.5t-58.5 -81.5t-82 -52.5t-107 -18.5q-59 0 -100.5 16t-67.5 44t-38 65.5t-12 80.5q0 24 4.5 55.5t11 65t14.5 67t14 61.5q12 53 32.5 99
t53.5 80t79.5 53.5t110.5 19.5zM360 622q-47 0 -79.5 -16.5t-55 -42t-35 -58t-18.5 -63.5l-36 -185q-7 -36 -5 -69.5t17 -59t44.5 -41t78.5 -15.5q40 0 71.5 14.5t55 39t39.5 58.5t25 73l13 57t13 60t10 58t4 50q0 62 -36.5 101t-105.5 39zM-261 521q19 20 30 43t11 39
q0 15 -11 28t-43 18l45 81q45 -8 71 -29.5t26 -56.5q0 -9 -4 -24.5t-14 -35t-27.5 -40.5t-44.5 -42zM-130 713l99 17l91 -210l-46 -16z" />
    <glyph glyph-name="uni1F4B" unicode="&#x1f4b;" horiz-adv-x="579" 
d="M366 701q49 0 90 -15t70.5 -42t46 -64.5t16.5 -82.5q0 -24 -4.5 -54t-10.5 -62.5t-13.5 -65.5t-13.5 -63q-12 -58 -35.5 -105.5t-58.5 -81.5t-82 -52.5t-107 -18.5q-59 0 -100.5 16t-67.5 44t-38 65.5t-12 80.5q0 24 4.5 55.5t11 65t14.5 67t14 61.5q12 53 32.5 99
t53.5 80t79.5 53.5t110.5 19.5zM360 622q-47 0 -79.5 -16.5t-55 -42t-35 -58t-18.5 -63.5l-36 -185q-7 -36 -5 -69.5t17 -59t44.5 -41t78.5 -15.5q40 0 71.5 14.5t55 39t39.5 58.5t25 73l13 57t13 60t10 58t4 50q0 62 -36.5 101t-105.5 39zM-258 495q-23 26 -32.5 53.5
t-9.5 49.5q0 26 10.5 47t29.5 36.5t44.5 26t54.5 15.5l13 -81q-24 -4 -39 -12t-23.5 -18t-11 -21.5t-2.5 -22.5q0 -13 3 -27t10 -27zM-141 713l99 17l91 -210l-46 -16z" />
    <glyph glyph-name="uni1F4C" unicode="&#x1f4c;" horiz-adv-x="579" 
d="M366 701q49 0 90 -15t70.5 -42t46 -64.5t16.5 -82.5q0 -24 -4.5 -54t-10.5 -62.5t-13.5 -65.5t-13.5 -63q-12 -58 -35.5 -105.5t-58.5 -81.5t-82 -52.5t-107 -18.5q-59 0 -100.5 16t-67.5 44t-38 65.5t-12 80.5q0 24 4.5 55.5t11 65t14.5 67t14 61.5q12 53 32.5 99
t53.5 80t79.5 53.5t110.5 19.5zM360 622q-47 0 -79.5 -16.5t-55 -42t-35 -58t-18.5 -63.5l-36 -185q-7 -36 -5 -69.5t17 -59t44.5 -41t78.5 -15.5q40 0 71.5 14.5t55 39t39.5 58.5t25 73l13 57t13 60t10 58t4 50q0 62 -36.5 101t-105.5 39zM-177 519q20 21 30 43.5t10 39.5
q0 15 -10.5 27.5t-42.5 17.5l44 81q45 -8 71.5 -29.5t26.5 -57.5q0 -10 -4 -25.5t-14.5 -34.5t-27.5 -40t-44 -41zM-11 502l-43 16l123 210l92 -17z" />
    <glyph glyph-name="uni1F4D" unicode="&#x1f4d;" horiz-adv-x="579" 
d="M366 701q49 0 90 -15t70.5 -42t46 -64.5t16.5 -82.5q0 -24 -4.5 -54t-10.5 -62.5t-13.5 -65.5t-13.5 -63q-12 -58 -35.5 -105.5t-58.5 -81.5t-82 -52.5t-107 -18.5q-59 0 -100.5 16t-67.5 44t-38 65.5t-12 80.5q0 24 4.5 55.5t11 65t14.5 67t14 61.5q12 53 32.5 99
t53.5 80t79.5 53.5t110.5 19.5zM360 622q-47 0 -79.5 -16.5t-55 -42t-35 -58t-18.5 -63.5l-36 -185q-7 -36 -5 -69.5t17 -59t44.5 -41t78.5 -15.5q40 0 71.5 14.5t55 39t39.5 58.5t25 73l13 57t13 60t10 58t4 50q0 62 -36.5 101t-105.5 39zM-189 500q-23 26 -32.5 53
t-9.5 49q0 27 10.5 48t29 36.5t44 26t54.5 15.5l14 -81q-47 -8 -62 -28.5t-15 -42.5q0 -14 3.5 -29t10.5 -28zM-61 504l-43 16l131 210l92 -17z" />
    <glyph glyph-name="uni1F50" unicode="&#x1f50;" horiz-adv-x="518" 
d="M446 173q-16 -80 -71 -129.5t-141 -49.5q-38 0 -70.5 10t-56 29.5t-36.5 47.5t-13 63q0 9 1 19t3 20l61 312h80l-58 -297q-3 -15 -3 -30q0 -44 25 -69.5t67 -25.5q57 0 91.5 34t45.5 91l58 297h80zM285 570q19 20 30 43t11 39q0 15 -11 28t-43 18l45 81q45 -8 71 -29.5
t26 -56.5q0 -9 -4 -24.5t-14 -35t-27.5 -40.5t-44.5 -42z" />
    <glyph glyph-name="uni1F51" unicode="&#x1f51;" horiz-adv-x="518" 
d="M446 173q-16 -80 -71 -129.5t-141 -49.5q-38 0 -70.5 10t-56 29.5t-36.5 47.5t-13 63q0 9 1 19t3 20l61 312h80l-58 -297q-3 -15 -3 -30q0 -44 25 -69.5t67 -25.5q57 0 91.5 34t45.5 91l58 297h80zM305 551q-23 26 -32.5 53.5t-9.5 49.5q0 26 10.5 47t29.5 36.5t44.5 26
t54.5 15.5l13 -81q-24 -4 -39 -12t-23.5 -18t-11 -21.5t-2.5 -22.5q0 -13 3 -27t10 -27z" />
    <glyph glyph-name="uni1F52" unicode="&#x1f52;" horiz-adv-x="518" 
d="M446 173q-16 -80 -71 -129.5t-141 -49.5q-38 0 -70.5 10t-56 29.5t-36.5 47.5t-13 63q0 9 1 19t3 20l61 312h80l-58 -297q-3 -15 -3 -30q0 -44 25 -69.5t67 -25.5q57 0 91.5 34t45.5 91l58 297h80zM157 571q19 20 30 43t11 39q0 15 -11 28t-43 18l45 81q45 -8 71 -29.5
t26 -56.5q0 -9 -4 -24.5t-14 -35t-27.5 -40.5t-44.5 -42zM288 763l99 17l91 -210l-46 -16z" />
    <glyph glyph-name="uni1F53" unicode="&#x1f53;" horiz-adv-x="518" 
d="M446 173q-16 -80 -71 -129.5t-141 -49.5q-38 0 -70.5 10t-56 29.5t-36.5 47.5t-13 63q0 9 1 19t3 20l61 312h80l-58 -297q-3 -15 -3 -30q0 -44 25 -69.5t67 -25.5q57 0 91.5 34t45.5 91l58 297h80zM177 545q-23 26 -32.5 53.5t-9.5 49.5q0 26 10.5 47t29.5 36.5t44.5 26
t54.5 15.5l13 -81q-24 -4 -39 -12t-23.5 -18t-11 -21.5t-2.5 -22.5q0 -13 3 -27t10 -27zM294 763l99 17l91 -210l-46 -16z" />
    <glyph glyph-name="uni1F54" unicode="&#x1f54;" horiz-adv-x="518" 
d="M446 173q-16 -80 -71 -129.5t-141 -49.5q-38 0 -70.5 10t-56 29.5t-36.5 47.5t-13 63q0 9 1 19t3 20l61 312h80l-58 -297q-3 -15 -3 -30q0 -44 25 -69.5t67 -25.5q57 0 91.5 34t45.5 91l58 297h80zM235 569q20 21 30 43.5t10 39.5q0 15 -10.5 27.5t-42.5 17.5l44 81
q45 -8 71.5 -29.5t26.5 -57.5q0 -10 -4 -25.5t-14.5 -34.5t-27.5 -40t-44 -41zM401 552l-43 16l123 210l92 -17z" />
    <glyph glyph-name="uni1F55" unicode="&#x1f55;" horiz-adv-x="518" 
d="M446 173q-16 -80 -71 -129.5t-141 -49.5q-38 0 -70.5 10t-56 29.5t-36.5 47.5t-13 63q0 9 1 19t3 20l61 312h80l-58 -297q-3 -15 -3 -30q0 -44 25 -69.5t67 -25.5q57 0 91.5 34t45.5 91l58 297h80zM266 550q-23 26 -32.5 53t-9.5 49q0 27 10.5 48t29 36.5t44 26
t54.5 15.5l14 -81q-47 -8 -62 -28.5t-15 -42.5q0 -14 3.5 -29t10.5 -28zM394 554l-43 16l131 210l92 -17z" />
    <glyph glyph-name="uni1F56" unicode="&#x1f56;" horiz-adv-x="518" 
d="M446 173q-16 -80 -71 -129.5t-141 -49.5q-38 0 -70.5 10t-56 29.5t-36.5 47.5t-13 63q0 9 1 19t3 20l61 312h80l-58 -297q-3 -15 -3 -30q0 -44 25 -69.5t67 -25.5q57 0 91.5 34t45.5 91l58 297h80zM264 548q21 19 33 37.5t12 31.5q0 12 -11.5 20t-41.5 13l41 65
q43 -6 67.5 -22t24.5 -43q0 -8 -3.5 -20t-13 -27t-26.5 -33t-44 -37zM283 841q18 0 36.5 -7.5t36.5 -16l34 -16t29 -7.5q15 0 29.5 10.5t34.5 34.5l46 -29q-26 -50 -56 -69.5t-62 -19.5q-18 0 -36.5 7t-36.5 15.5t-34.5 15.5t-31.5 7q-17 0 -30 -8.5t-36 -31.5l-43 26
q28 48 59 68.5t61 20.5z" />
    <glyph glyph-name="uni1F57" unicode="&#x1f57;" horiz-adv-x="518" 
d="M446 173q-16 -80 -71 -129.5t-141 -49.5q-38 0 -70.5 10t-56 29.5t-36.5 47.5t-13 63q0 9 1 19t3 20l61 312h80l-58 -297q-3 -15 -3 -30q0 -44 25 -69.5t67 -25.5q57 0 91.5 34t45.5 91l58 297h80zM293 532q-26 26 -35 49.5t-9 40.5q0 39 32 61.5t89 30.5l15 -65
q-41 -6 -54.5 -18.5t-13.5 -30.5q0 -25 20 -53zM282 844q18 0 36.5 -7.5t36.5 -16l34 -16t29 -7.5q15 0 29.5 10.5t34.5 34.5l46 -29q-26 -50 -56 -69.5t-62 -19.5q-18 0 -36.5 7t-36.5 15.5t-34.5 15.5t-31.5 7q-17 0 -30 -8.5t-36 -31.5l-43 26q28 48 59 68.5t61 20.5z
" />
    <glyph glyph-name="uni1F59" unicode="&#x1f59;" horiz-adv-x="498" 
d="M303 275l-54 -275h-82l54 275l-124 421h86l58 -201l34 -130l91 139l129 192h94zM-60 501q-23 26 -32.5 53.5t-9.5 49.5q0 26 10.5 47t29.5 36.5t44.5 26t54.5 15.5l13 -81q-24 -4 -39 -12t-23.5 -18t-11 -21.5t-2.5 -22.5q0 -13 3 -27t10 -27z" />
    <glyph glyph-name="uni1F5B" unicode="&#x1f5b;" horiz-adv-x="498" 
d="M303 275l-54 -275h-82l54 275l-124 421h86l58 -201l34 -130l91 139l129 192h94zM-238 495q-23 26 -32.5 53.5t-9.5 49.5q0 26 10.5 47t29.5 36.5t44.5 26t54.5 15.5l13 -81q-24 -4 -39 -12t-23.5 -18t-11 -21.5t-2.5 -22.5q0 -13 3 -27t10 -27zM-121 713l99 17l91 -210
l-46 -16z" />
    <glyph glyph-name="uni1F5D" unicode="&#x1f5d;" horiz-adv-x="498" 
d="M303 275l-54 -275h-82l54 275l-124 421h86l58 -201l34 -130l91 139l129 192h94zM-248 500q-23 26 -32.5 53t-9.5 49q0 27 10.5 48t29 36.5t44 26t54.5 15.5l14 -81q-47 -8 -62 -28.5t-15 -42.5q0 -14 3.5 -29t10.5 -28zM-120 504l-43 16l131 210l92 -17z" />
    <glyph glyph-name="uni1F5F" unicode="&#x1f5f;" horiz-adv-x="498" 
d="M303 275l-54 -275h-82l54 275l-124 421h86l58 -201l34 -130l91 139l129 192h94zM-170 424q-26 26 -35 49.5t-9 40.5q0 39 32 61.5t89 30.5l15 -65q-41 -6 -54.5 -18.5t-13.5 -30.5q0 -25 20 -53zM-181 736q18 0 36.5 -7.5t36.5 -16l34 -16t29 -7.5q15 0 29.5 10.5
t34.5 34.5l46 -29q-26 -50 -56 -69.5t-62 -19.5q-18 0 -36.5 7t-36.5 15.5t-34.5 15.5t-31.5 7q-17 0 -30 -8.5t-36 -31.5l-43 26q28 48 59 68.5t61 20.5z" />
    <glyph glyph-name="uni1F60" unicode="&#x1f60;" horiz-adv-x="737" 
d="M583 495q70 -18 100 -58t30 -110q0 -66 -12.5 -126.5t-40 -106t-71 -72.5t-105.5 -27q-46 0 -81.5 18t-55.5 56q-29 -35 -67 -54.5t-84 -19.5q-40 0 -68.5 13t-47 35.5t-27 53t-8.5 66.5q0 68 14.5 127.5t43 104.5t70 72.5t95.5 31.5v-73q-35 -3 -62 -25t-45 -57.5
t-27 -80t-9 -91.5q0 -46 20.5 -73t63.5 -27q56 0 82 33.5t37 89.5l36 185h80l-36 -185q-3 -18 -3 -33q0 -43 24.5 -66t71.5 -23q31 0 55.5 19t41.5 52t26 77.5t9 94.5q0 45 -17 71t-55 35zM396 570q19 20 30 43t11 39q0 15 -11 28t-43 18l45 81q45 -8 71 -29.5t26 -56.5
q0 -9 -4 -24.5t-14 -35t-27.5 -40.5t-44.5 -42z" />
    <glyph glyph-name="uni1F61" unicode="&#x1f61;" horiz-adv-x="737" 
d="M583 495q70 -18 100 -58t30 -110q0 -66 -12.5 -126.5t-40 -106t-71 -72.5t-105.5 -27q-46 0 -81.5 18t-55.5 56q-29 -35 -67 -54.5t-84 -19.5q-40 0 -68.5 13t-47 35.5t-27 53t-8.5 66.5q0 68 14.5 127.5t43 104.5t70 72.5t95.5 31.5v-73q-35 -3 -62 -25t-45 -57.5
t-27 -80t-9 -91.5q0 -46 20.5 -73t63.5 -27q56 0 82 33.5t37 89.5l36 185h80l-36 -185q-3 -18 -3 -33q0 -43 24.5 -66t71.5 -23q31 0 55.5 19t41.5 52t26 77.5t9 94.5q0 45 -17 71t-55 35zM415 551q-23 26 -32.5 53.5t-9.5 49.5q0 26 10.5 47t29.5 36.5t44.5 26t54.5 15.5
l13 -81q-24 -4 -39 -12t-23.5 -18t-11 -21.5t-2.5 -22.5q0 -13 3 -27t10 -27z" />
    <glyph glyph-name="uni1F62" unicode="&#x1f62;" horiz-adv-x="737" 
d="M583 495q70 -18 100 -58t30 -110q0 -66 -12.5 -126.5t-40 -106t-71 -72.5t-105.5 -27q-46 0 -81.5 18t-55.5 56q-29 -35 -67 -54.5t-84 -19.5q-40 0 -68.5 13t-47 35.5t-27 53t-8.5 66.5q0 68 14.5 127.5t43 104.5t70 72.5t95.5 31.5v-73q-35 -3 -62 -25t-45 -57.5
t-27 -80t-9 -91.5q0 -46 20.5 -73t63.5 -27q56 0 82 33.5t37 89.5l36 185h80l-36 -185q-3 -18 -3 -33q0 -43 24.5 -66t71.5 -23q31 0 55.5 19t41.5 52t26 77.5t9 94.5q0 45 -17 71t-55 35zM272 571q19 20 30 43t11 39q0 15 -11 28t-43 18l45 81q45 -8 71 -29.5t26 -56.5
q0 -9 -4 -24.5t-14 -35t-27.5 -40.5t-44.5 -42zM403 763l99 17l91 -210l-46 -16z" />
    <glyph glyph-name="uni1F63" unicode="&#x1f63;" horiz-adv-x="737" 
d="M583 495q70 -18 100 -58t30 -110q0 -66 -12.5 -126.5t-40 -106t-71 -72.5t-105.5 -27q-46 0 -81.5 18t-55.5 56q-29 -35 -67 -54.5t-84 -19.5q-40 0 -68.5 13t-47 35.5t-27 53t-8.5 66.5q0 68 14.5 127.5t43 104.5t70 72.5t95.5 31.5v-73q-35 -3 -62 -25t-45 -57.5
t-27 -80t-9 -91.5q0 -46 20.5 -73t63.5 -27q56 0 82 33.5t37 89.5l36 185h80l-36 -185q-3 -18 -3 -33q0 -43 24.5 -66t71.5 -23q31 0 55.5 19t41.5 52t26 77.5t9 94.5q0 45 -17 71t-55 35zM284 545q-23 26 -32.5 53.5t-9.5 49.5q0 26 10.5 47t29.5 36.5t44.5 26t54.5 15.5
l13 -81q-24 -4 -39 -12t-23.5 -18t-11 -21.5t-2.5 -22.5q0 -13 3 -27t10 -27zM401 763l99 17l91 -210l-46 -16z" />
    <glyph glyph-name="uni1F64" unicode="&#x1f64;" horiz-adv-x="737" 
d="M583 495q70 -18 100 -58t30 -110q0 -66 -12.5 -126.5t-40 -106t-71 -72.5t-105.5 -27q-46 0 -81.5 18t-55.5 56q-29 -35 -67 -54.5t-84 -19.5q-40 0 -68.5 13t-47 35.5t-27 53t-8.5 66.5q0 68 14.5 127.5t43 104.5t70 72.5t95.5 31.5v-73q-35 -3 -62 -25t-45 -57.5
t-27 -80t-9 -91.5q0 -46 20.5 -73t63.5 -27q56 0 82 33.5t37 89.5l36 185h80l-36 -185q-3 -18 -3 -33q0 -43 24.5 -66t71.5 -23q31 0 55.5 19t41.5 52t26 77.5t9 94.5q0 45 -17 71t-55 35zM347 569q20 21 30 43.5t10 39.5q0 15 -10.5 27.5t-42.5 17.5l44 81
q45 -8 71.5 -29.5t26.5 -57.5q0 -10 -4 -25.5t-14.5 -34.5t-27.5 -40t-44 -41zM513 552l-43 16l123 210l92 -17z" />
    <glyph glyph-name="uni1F65" unicode="&#x1f65;" horiz-adv-x="737" 
d="M583 495q70 -18 100 -58t30 -110q0 -66 -12.5 -126.5t-40 -106t-71 -72.5t-105.5 -27q-46 0 -81.5 18t-55.5 56q-29 -35 -67 -54.5t-84 -19.5q-40 0 -68.5 13t-47 35.5t-27 53t-8.5 66.5q0 68 14.5 127.5t43 104.5t70 72.5t95.5 31.5v-73q-35 -3 -62 -25t-45 -57.5
t-27 -80t-9 -91.5q0 -46 20.5 -73t63.5 -27q56 0 82 33.5t37 89.5l36 185h80l-36 -185q-3 -18 -3 -33q0 -43 24.5 -66t71.5 -23q31 0 55.5 19t41.5 52t26 77.5t9 94.5q0 45 -17 71t-55 35zM381 550q-23 26 -32.5 53t-9.5 49q0 27 10.5 48t29 36.5t44 26t54.5 15.5l14 -81
q-47 -8 -62 -28.5t-15 -42.5q0 -14 3.5 -29t10.5 -28zM509 554l-43 16l131 210l92 -17z" />
    <glyph glyph-name="uni1F66" unicode="&#x1f66;" horiz-adv-x="737" 
d="M583 495q70 -18 100 -58t30 -110q0 -66 -12.5 -126.5t-40 -106t-71 -72.5t-105.5 -27q-46 0 -81.5 18t-55.5 56q-29 -35 -67 -54.5t-84 -19.5q-40 0 -68.5 13t-47 35.5t-27 53t-8.5 66.5q0 68 14.5 127.5t43 104.5t70 72.5t95.5 31.5v-73q-35 -3 -62 -25t-45 -57.5
t-27 -80t-9 -91.5q0 -46 20.5 -73t63.5 -27q56 0 82 33.5t37 89.5l36 185h80l-36 -185q-3 -18 -3 -33q0 -43 24.5 -66t71.5 -23q31 0 55.5 19t41.5 52t26 77.5t9 94.5q0 45 -17 71t-55 35zM382 548q21 19 33 37.5t12 31.5q0 12 -11.5 20t-41.5 13l41 65q43 -6 67.5 -22
t24.5 -43q0 -8 -3.5 -20t-13 -27t-26.5 -33t-44 -37zM401 841q18 0 36.5 -7.5t36.5 -16l34 -16t29 -7.5q15 0 29.5 10.5t34.5 34.5l46 -29q-26 -50 -56 -69.5t-62 -19.5q-18 0 -36.5 7t-36.5 15.5t-34.5 15.5t-31.5 7q-17 0 -30 -8.5t-36 -31.5l-43 26q28 48 59 68.5
t61 20.5z" />
    <glyph glyph-name="uni1F67" unicode="&#x1f67;" horiz-adv-x="737" 
d="M583 495q70 -18 100 -58t30 -110q0 -66 -12.5 -126.5t-40 -106t-71 -72.5t-105.5 -27q-46 0 -81.5 18t-55.5 56q-29 -35 -67 -54.5t-84 -19.5q-40 0 -68.5 13t-47 35.5t-27 53t-8.5 66.5q0 68 14.5 127.5t43 104.5t70 72.5t95.5 31.5v-73q-35 -3 -62 -25t-45 -57.5
t-27 -80t-9 -91.5q0 -46 20.5 -73t63.5 -27q56 0 82 33.5t37 89.5l36 185h80l-36 -185q-3 -18 -3 -33q0 -43 24.5 -66t71.5 -23q31 0 55.5 19t41.5 52t26 77.5t9 94.5q0 45 -17 71t-55 35zM402 532q-26 26 -35 49.5t-9 40.5q0 39 32 61.5t89 30.5l15 -65q-41 -6 -54.5 -18.5
t-13.5 -30.5q0 -25 20 -53zM391 844q18 0 36.5 -7.5t36.5 -16l34 -16t29 -7.5q15 0 29.5 10.5t34.5 34.5l46 -29q-26 -50 -56 -69.5t-62 -19.5q-18 0 -36.5 7t-36.5 15.5t-34.5 15.5t-31.5 7q-17 0 -30 -8.5t-36 -31.5l-43 26q28 48 59 68.5t61 20.5z" />
    <glyph glyph-name="uni1F68" unicode="&#x1f68;" horiz-adv-x="568" 
d="M322 95q53 17 87 64.5t47 110.5l35 166q7 34 3.5 68t-20 61t-45.5 44t-73 17q-42 0 -74.5 -16t-55.5 -42t-37 -59t-21 -66l-34 -173q-4 -20 -4 -45q0 -43 18.5 -78t57.5 -52l-19 -95h-205l15 81h104q-32 21 -44 56t-12 76q0 18 2 36.5t5 35.5l30 160q10 51 30 97.5
t53.5 82t81 56.5t112.5 21q64 0 109.5 -21.5t72.5 -57.5t36 -83t-1 -98l-32 -167q-6 -31 -14 -60t-20.5 -54t-30.5 -45.5t-43 -34.5h85l-15 -81h-202zM-41 520q19 20 30 43t11 39q0 15 -11 28t-43 18l45 81q45 -8 71 -29.5t26 -56.5q0 -9 -4 -24.5t-14 -35t-27.5 -40.5
t-44.5 -42z" />
    <glyph glyph-name="uni1F69" unicode="&#x1f69;" horiz-adv-x="568" 
d="M322 95q53 17 87 64.5t47 110.5l35 166q7 34 3.5 68t-20 61t-45.5 44t-73 17q-42 0 -74.5 -16t-55.5 -42t-37 -59t-21 -66l-34 -173q-4 -20 -4 -45q0 -43 18.5 -78t57.5 -52l-19 -95h-205l15 81h104q-32 21 -44 56t-12 76q0 18 2 36.5t5 35.5l30 160q10 51 30 97.5
t53.5 82t81 56.5t112.5 21q64 0 109.5 -21.5t72.5 -57.5t36 -83t-1 -98l-32 -167q-6 -31 -14 -60t-20.5 -54t-30.5 -45.5t-43 -34.5h85l-15 -81h-202zM-39 501q-23 26 -32.5 53.5t-9.5 49.5q0 26 10.5 47t29.5 36.5t44.5 26t54.5 15.5l13 -81q-24 -4 -39 -12t-23.5 -18
t-11 -21.5t-2.5 -22.5q0 -13 3 -27t10 -27z" />
    <glyph glyph-name="uni1F6A" unicode="&#x1f6a;" horiz-adv-x="568" 
d="M322 95q53 17 87 64.5t47 110.5l35 166q7 34 3.5 68t-20 61t-45.5 44t-73 17q-42 0 -74.5 -16t-55.5 -42t-37 -59t-21 -66l-34 -173q-4 -20 -4 -45q0 -43 18.5 -78t57.5 -52l-19 -95h-205l15 81h104q-32 21 -44 56t-12 76q0 18 2 36.5t5 35.5l30 160q10 51 30 97.5
t53.5 82t81 56.5t112.5 21q64 0 109.5 -21.5t72.5 -57.5t36 -83t-1 -98l-32 -167q-6 -31 -14 -60t-20.5 -54t-30.5 -45.5t-43 -34.5h85l-15 -81h-202zM-277 521q19 20 30 43t11 39q0 15 -11 28t-43 18l45 81q45 -8 71 -29.5t26 -56.5q0 -9 -4 -24.5t-14 -35t-27.5 -40.5
t-44.5 -42zM-146 713l99 17l91 -210l-46 -16z" />
    <glyph glyph-name="uni1F6B" unicode="&#x1f6b;" horiz-adv-x="568" 
d="M322 95q53 17 87 64.5t47 110.5l35 166q7 34 3.5 68t-20 61t-45.5 44t-73 17q-42 0 -74.5 -16t-55.5 -42t-37 -59t-21 -66l-34 -173q-4 -20 -4 -45q0 -43 18.5 -78t57.5 -52l-19 -95h-205l15 81h104q-32 21 -44 56t-12 76q0 18 2 36.5t5 35.5l30 160q10 51 30 97.5
t53.5 82t81 56.5t112.5 21q64 0 109.5 -21.5t72.5 -57.5t36 -83t-1 -98l-32 -167q-6 -31 -14 -60t-20.5 -54t-30.5 -45.5t-43 -34.5h85l-15 -81h-202zM-257 495q-23 26 -32.5 53.5t-9.5 49.5q0 26 10.5 47t29.5 36.5t44.5 26t54.5 15.5l13 -81q-24 -4 -39 -12t-23.5 -18
t-11 -21.5t-2.5 -22.5q0 -13 3 -27t10 -27zM-140 713l99 17l91 -210l-46 -16z" />
    <glyph glyph-name="uni1F6C" unicode="&#x1f6c;" horiz-adv-x="568" 
d="M322 95q53 17 87 64.5t47 110.5l35 166q7 34 3.5 68t-20 61t-45.5 44t-73 17q-42 0 -74.5 -16t-55.5 -42t-37 -59t-21 -66l-34 -173q-4 -20 -4 -45q0 -43 18.5 -78t57.5 -52l-19 -95h-205l15 81h104q-32 21 -44 56t-12 76q0 18 2 36.5t5 35.5l30 160q10 51 30 97.5
t53.5 82t81 56.5t112.5 21q64 0 109.5 -21.5t72.5 -57.5t36 -83t-1 -98l-32 -167q-6 -31 -14 -60t-20.5 -54t-30.5 -45.5t-43 -34.5h85l-15 -81h-202zM-167 519q20 21 30 43.5t10 39.5q0 15 -10.5 27.5t-42.5 17.5l44 81q45 -8 71.5 -29.5t26.5 -57.5q0 -10 -4 -25.5
t-14.5 -34.5t-27.5 -40t-44 -41zM-1 502l-43 16l123 210l92 -17z" />
    <glyph glyph-name="uni1F6D" unicode="&#x1f6d;" horiz-adv-x="568" 
d="M322 95q53 17 87 64.5t47 110.5l35 166q7 34 3.5 68t-20 61t-45.5 44t-73 17q-42 0 -74.5 -16t-55.5 -42t-37 -59t-21 -66l-34 -173q-4 -20 -4 -45q0 -43 18.5 -78t57.5 -52l-19 -95h-205l15 81h104q-32 21 -44 56t-12 76q0 18 2 36.5t5 35.5l30 160q10 51 30 97.5
t53.5 82t81 56.5t112.5 21q64 0 109.5 -21.5t72.5 -57.5t36 -83t-1 -98l-32 -167q-6 -31 -14 -60t-20.5 -54t-30.5 -45.5t-43 -34.5h85l-15 -81h-202zM-126 500q-23 26 -32.5 53t-9.5 49q0 27 10.5 48t29 36.5t44 26t54.5 15.5l14 -81q-47 -8 -62 -28.5t-15 -42.5
q0 -14 3.5 -29t10.5 -28zM2 504l-43 16l131 210l92 -17z" />
    <glyph glyph-name="uni1F6E" unicode="&#x1f6e;" horiz-adv-x="568" 
d="M322 95q53 17 87 64.5t47 110.5l35 166q7 34 3.5 68t-20 61t-45.5 44t-73 17q-42 0 -74.5 -16t-55.5 -42t-37 -59t-21 -66l-34 -173q-4 -20 -4 -45q0 -43 18.5 -78t57.5 -52l-19 -95h-205l15 81h104q-32 21 -44 56t-12 76q0 18 2 36.5t5 35.5l30 160q10 51 30 97.5
t53.5 82t81 56.5t112.5 21q64 0 109.5 -21.5t72.5 -57.5t36 -83t-1 -98l-32 -167q-6 -31 -14 -60t-20.5 -54t-30.5 -45.5t-43 -34.5h85l-15 -81h-202zM-113 437q21 19 33 37.5t12 31.5q0 12 -11.5 20t-41.5 13l41 65q43 -6 67.5 -22t24.5 -43q0 -8 -3.5 -20t-13 -27
t-26.5 -33t-44 -37zM-94 730q18 0 36.5 -7.5t36.5 -16l34 -16t29 -7.5q15 0 29.5 10.5t34.5 34.5l46 -29q-26 -50 -56 -69.5t-62 -19.5q-18 0 -36.5 7t-36.5 15.5t-34.5 15.5t-31.5 7q-17 0 -30 -8.5t-36 -31.5l-43 26q28 48 59 68.5t61 20.5z" />
    <glyph glyph-name="uni1F6F" unicode="&#x1f6f;" horiz-adv-x="568" 
d="M322 95q53 17 87 64.5t47 110.5l35 166q7 34 3.5 68t-20 61t-45.5 44t-73 17q-42 0 -74.5 -16t-55.5 -42t-37 -59t-21 -66l-34 -173q-4 -20 -4 -45q0 -43 18.5 -78t57.5 -52l-19 -95h-205l15 81h104q-32 21 -44 56t-12 76q0 18 2 36.5t5 35.5l30 160q10 51 30 97.5
t53.5 82t81 56.5t112.5 21q64 0 109.5 -21.5t72.5 -57.5t36 -83t-1 -98l-32 -167q-6 -31 -14 -60t-20.5 -54t-30.5 -45.5t-43 -34.5h85l-15 -81h-202zM-102 422q-26 26 -35 49.5t-9 40.5q0 39 32 61.5t89 30.5l15 -65q-41 -6 -54.5 -18.5t-13.5 -30.5q0 -25 20 -53z
M-113 734q18 0 36.5 -7.5t36.5 -16l34 -16t29 -7.5q15 0 29.5 10.5t34.5 34.5l46 -29q-26 -50 -56 -69.5t-62 -19.5q-18 0 -36.5 7t-36.5 15.5t-34.5 15.5t-31.5 7q-17 0 -30 -8.5t-36 -31.5l-43 26q28 48 59 68.5t61 20.5z" />
    <glyph glyph-name="uni1F70" unicode="&#x1f70;" horiz-adv-x="495" 
d="M277 501q36 0 68.5 -15t52.5 -46l3 1l10 54h80l-96 -495h-80l11 54l-3 2q-30 -34 -65.5 -48t-78.5 -14q-37 0 -62.5 12t-41.5 33.5t-23 50.5t-7 63q0 54 12.5 115.5t40.5 113t72 85.5t107 34zM130 169q0 -45 18.5 -69t69.5 -24q40 0 68.5 25.5t47.5 63t28 79.5t9 76
q0 45 -19 72.5t-67 27.5q-30 0 -53.5 -13.5t-40.5 -35t-29 -49t-19 -55t-10 -53.5t-3 -45zM170 763l99 17l91 -210l-46 -16z" />
    <glyph glyph-name="uni1F71" unicode="&#x1f71;" horiz-adv-x="495" 
d="M277 501q36 0 68.5 -15t52.5 -46l3 1l10 54h80l-96 -495h-80l11 54l-3 2q-30 -34 -65.5 -48t-78.5 -14q-37 0 -62.5 12t-41.5 33.5t-23 50.5t-7 63q0 54 12.5 115.5t40.5 113t72 85.5t107 34zM130 169q0 -45 18.5 -69t69.5 -24q40 0 68.5 25.5t47.5 63t28 79.5t9 76
q0 45 -19 72.5t-67 27.5q-30 0 -53.5 -13.5t-40.5 -35t-29 -49t-19 -55t-10 -53.5t-3 -45zM315 552l-43 16l123 210l92 -17z" />
    <glyph glyph-name="uni1F72" unicode="&#x1f72;" horiz-adv-x="431" 
d="M394 64q-81 -68 -189 -68q-29 0 -59 7t-54 22.5t-39.5 39.5t-15.5 58q0 24 8 46.5t22 41t33 32.5t42 20q-29 11 -43.5 33.5t-14.5 53.5q0 38 18 66.5t46.5 47t63.5 28t70 9.5q22 0 45.5 -4t45.5 -12t41.5 -20.5t33.5 -29.5l-58 -61q-15 20 -44.5 33t-58.5 13
q-20 0 -41 -3t-38 -11t-28 -21.5t-11 -34.5q0 -20 10 -31t24.5 -16t30.5 -6t29 -1h57l-13 -70h-78q-18 0 -37 -5t-35 -15.5t-26.5 -27t-10.5 -40.5q0 -20 10 -32.5t25.5 -19t33.5 -9t34 -2.5q32 0 64 15t55 35zM170 763l99 17l91 -210l-46 -16z" />
    <glyph glyph-name="uni1F73" unicode="&#x1f73;" horiz-adv-x="431" 
d="M394 64q-81 -68 -189 -68q-29 0 -59 7t-54 22.5t-39.5 39.5t-15.5 58q0 24 8 46.5t22 41t33 32.5t42 20q-29 11 -43.5 33.5t-14.5 53.5q0 38 18 66.5t46.5 47t63.5 28t70 9.5q22 0 45.5 -4t45.5 -12t41.5 -20.5t33.5 -29.5l-58 -61q-15 20 -44.5 33t-58.5 13
q-20 0 -41 -3t-38 -11t-28 -21.5t-11 -34.5q0 -20 10 -31t24.5 -16t30.5 -6t29 -1h57l-13 -70h-78q-18 0 -37 -5t-35 -15.5t-26.5 -27t-10.5 -40.5q0 -20 10 -32.5t25.5 -19t33.5 -9t34 -2.5q32 0 64 15t55 35zM315 552l-43 16l123 210l92 -17z" />
    <glyph glyph-name="uni1F74" unicode="&#x1f74;" horiz-adv-x="514" 
d="M303 -131l83 428q5 28 5 45q0 38 -20.5 58.5t-72.5 20.5q-24 0 -46 -9t-40 -25.5t-31 -39.5t-18 -50l-58 -297h-81l96 495h81l-11 -59h3q30 32 69 48.5t78 16.5q27 0 52 -8.5t44 -25.5t30 -42t11 -57q0 -9 -1 -18.5t-3 -19.5l-89 -461h-81zM170 763l99 17l91 -210
l-46 -16z" />
    <glyph glyph-name="uni1F75" unicode="&#x1f75;" horiz-adv-x="514" 
d="M303 -131l83 428q5 28 5 45q0 38 -20.5 58.5t-72.5 20.5q-24 0 -46 -9t-40 -25.5t-31 -39.5t-18 -50l-58 -297h-81l96 495h81l-11 -59h3q30 32 69 48.5t78 16.5q27 0 52 -8.5t44 -25.5t30 -42t11 -57q0 -9 -1 -18.5t-3 -19.5l-89 -461h-81zM315 552l-43 16l123 210
l92 -17z" />
    <glyph glyph-name="uni1F76" unicode="&#x1f76;" horiz-adv-x="233" 
d="M148 0q-8 -1 -11.5 -1h-8.5q-59 0 -75 28t-5 84l75 383h80l-74 -379q-5 -23 1 -33t33 -12zM13 763l99 17l91 -210l-46 -16z" />
    <glyph glyph-name="uni1F77" unicode="&#x1f77;" horiz-adv-x="233" 
d="M148 0q-8 -1 -11.5 -1h-8.5q-59 0 -75 28t-5 84l75 383h80l-74 -379q-5 -23 1 -33t33 -12zM189 552l-43 16l123 210l92 -17z" />
    <glyph glyph-name="uni1F78" unicode="&#x1f78;" horiz-adv-x="495" 
d="M287 500q80 0 127.5 -47.5t47.5 -127.5q0 -57 -12 -116t-40 -107t-74 -78t-113 -30q-88 0 -134.5 44t-46.5 126q0 66 15 127t45 107.5t76 74t109 27.5zM278 427q-45 0 -75 -26t-48 -64.5t-25.5 -83.5t-7.5 -82q0 -15 4 -33t15 -33.5t30 -26t50 -10.5q45 0 75 23t49 59.5
t27 81t8 88.5q0 55 -28.5 81t-73.5 26zM170 763l99 17l91 -210l-46 -16z" />
    <glyph glyph-name="uni1F79" unicode="&#x1f79;" horiz-adv-x="495" 
d="M287 500q80 0 127.5 -47.5t47.5 -127.5q0 -57 -12 -116t-40 -107t-74 -78t-113 -30q-88 0 -134.5 44t-46.5 126q0 66 15 127t45 107.5t76 74t109 27.5zM278 427q-45 0 -75 -26t-48 -64.5t-25.5 -83.5t-7.5 -82q0 -15 4 -33t15 -33.5t30 -26t50 -10.5q45 0 75 23t49 59.5
t27 81t8 88.5q0 55 -28.5 81t-73.5 26zM315 552l-43 16l123 210l92 -17z" />
    <glyph glyph-name="uni1F7A" unicode="&#x1f7a;" horiz-adv-x="518" 
d="M446 173q-16 -80 -71 -129.5t-141 -49.5q-38 0 -70.5 10t-56 29.5t-36.5 47.5t-13 63q0 9 1 19t3 20l61 312h80l-58 -297q-3 -15 -3 -30q0 -44 25 -69.5t67 -25.5q57 0 91.5 34t45.5 91l58 297h80zM170 763l99 17l91 -210l-46 -16z" />
    <glyph glyph-name="uni1F7B" unicode="&#x1f7b;" horiz-adv-x="518" 
d="M446 173q-16 -80 -71 -129.5t-141 -49.5q-38 0 -70.5 10t-56 29.5t-36.5 47.5t-13 63q0 9 1 19t3 20l61 312h80l-58 -297q-3 -15 -3 -30q0 -44 25 -69.5t67 -25.5q57 0 91.5 34t45.5 91l58 297h80zM315 552l-43 16l123 210l92 -17z" />
    <glyph glyph-name="uni1F7C" unicode="&#x1f7c;" horiz-adv-x="737" 
d="M583 495q70 -18 100 -58t30 -110q0 -66 -12.5 -126.5t-40 -106t-71 -72.5t-105.5 -27q-46 0 -81.5 18t-55.5 56q-29 -35 -67 -54.5t-84 -19.5q-40 0 -68.5 13t-47 35.5t-27 53t-8.5 66.5q0 68 14.5 127.5t43 104.5t70 72.5t95.5 31.5v-73q-35 -3 -62 -25t-45 -57.5
t-27 -80t-9 -91.5q0 -46 20.5 -73t63.5 -27q56 0 82 33.5t37 89.5l36 185h80l-36 -185q-3 -18 -3 -33q0 -43 24.5 -66t71.5 -23q31 0 55.5 19t41.5 52t26 77.5t9 94.5q0 45 -17 71t-55 35zM279 763l99 17l91 -210l-46 -16z" />
    <glyph glyph-name="uni1F7D" unicode="&#x1f7d;" horiz-adv-x="737" 
d="M583 495q70 -18 100 -58t30 -110q0 -66 -12.5 -126.5t-40 -106t-71 -72.5t-105.5 -27q-46 0 -81.5 18t-55.5 56q-29 -35 -67 -54.5t-84 -19.5q-40 0 -68.5 13t-47 35.5t-27 53t-8.5 66.5q0 68 14.5 127.5t43 104.5t70 72.5t95.5 31.5v-73q-35 -3 -62 -25t-45 -57.5
t-27 -80t-9 -91.5q0 -46 20.5 -73t63.5 -27q56 0 82 33.5t37 89.5l36 185h80l-36 -185q-3 -18 -3 -33q0 -43 24.5 -66t71.5 -23q31 0 55.5 19t41.5 52t26 77.5t9 94.5q0 45 -17 71t-55 35zM431 552l-43 16l123 210l92 -17z" />
    <glyph glyph-name="uni1F80" unicode="&#x1f80;" horiz-adv-x="495" 
d="M277 501q36 0 68.5 -15t52.5 -46l3 1l10 54h80l-96 -495h-80l11 54l-3 2q-30 -34 -65.5 -48t-78.5 -14q-37 0 -62.5 12t-41.5 33.5t-23 50.5t-7 63q0 54 12.5 115.5t40.5 113t72 85.5t107 34zM130 169q0 -45 18.5 -69t69.5 -24q40 0 68.5 25.5t47.5 63t28 79.5t9 76
q0 45 -19 72.5t-67 27.5q-30 0 -53.5 -13.5t-40.5 -35t-29 -49t-19 -55t-10 -53.5t-3 -45zM293 570q19 20 30 43t11 39q0 15 -11 28t-43 18l45 81q45 -8 71 -29.5t26 -56.5q0 -9 -4 -24.5t-14 -35t-27.5 -40.5t-44.5 -42zM265 -67q-5 -28 -9.5 -46.5t-6.5 -28.5
q-4 -17 -4 -30q0 -33 41 -33h17l-14 -70h-28q-44 0 -70 17.5t-26 59.5q0 14 3 31l20 100h77z" />
    <glyph glyph-name="uni1F81" unicode="&#x1f81;" horiz-adv-x="495" 
d="M277 501q36 0 68.5 -15t52.5 -46l3 1l10 54h80l-96 -495h-80l11 54l-3 2q-30 -34 -65.5 -48t-78.5 -14q-37 0 -62.5 12t-41.5 33.5t-23 50.5t-7 63q0 54 12.5 115.5t40.5 113t72 85.5t107 34zM130 169q0 -45 18.5 -69t69.5 -24q40 0 68.5 25.5t47.5 63t28 79.5t9 76
q0 45 -19 72.5t-67 27.5q-30 0 -53.5 -13.5t-40.5 -35t-29 -49t-19 -55t-10 -53.5t-3 -45zM302 551q-23 26 -32.5 53.5t-9.5 49.5q0 26 10.5 47t29.5 36.5t44.5 26t54.5 15.5l13 -81q-24 -4 -39 -12t-23.5 -18t-11 -21.5t-2.5 -22.5q0 -13 3 -27t10 -27zM265 -67
q-5 -28 -9.5 -46.5t-6.5 -28.5q-4 -17 -4 -30q0 -33 41 -33h17l-14 -70h-28q-44 0 -70 17.5t-26 59.5q0 14 3 31l20 100h77z" />
    <glyph glyph-name="uni1F82" unicode="&#x1f82;" horiz-adv-x="495" 
d="M277 501q36 0 68.5 -15t52.5 -46l3 1l10 54h80l-96 -495h-80l11 54l-3 2q-30 -34 -65.5 -48t-78.5 -14q-37 0 -62.5 12t-41.5 33.5t-23 50.5t-7 63q0 54 12.5 115.5t40.5 113t72 85.5t107 34zM130 169q0 -45 18.5 -69t69.5 -24q40 0 68.5 25.5t47.5 63t28 79.5t9 76
q0 45 -19 72.5t-67 27.5q-30 0 -53.5 -13.5t-40.5 -35t-29 -49t-19 -55t-10 -53.5t-3 -45zM162 571q19 20 30 43t11 39q0 15 -11 28t-43 18l45 81q45 -8 71 -29.5t26 -56.5q0 -9 -4 -24.5t-14 -35t-27.5 -40.5t-44.5 -42zM293 763l99 17l91 -210l-46 -16zM265 -67
q-5 -28 -9.5 -46.5t-6.5 -28.5q-4 -17 -4 -30q0 -33 41 -33h17l-14 -70h-28q-44 0 -70 17.5t-26 59.5q0 14 3 31l20 100h77z" />
    <glyph glyph-name="uni1F83" unicode="&#x1f83;" horiz-adv-x="495" 
d="M277 501q36 0 68.5 -15t52.5 -46l3 1l10 54h80l-96 -495h-80l11 54l-3 2q-30 -34 -65.5 -48t-78.5 -14q-37 0 -62.5 12t-41.5 33.5t-23 50.5t-7 63q0 54 12.5 115.5t40.5 113t72 85.5t107 34zM130 169q0 -45 18.5 -69t69.5 -24q40 0 68.5 25.5t47.5 63t28 79.5t9 76
q0 45 -19 72.5t-67 27.5q-30 0 -53.5 -13.5t-40.5 -35t-29 -49t-19 -55t-10 -53.5t-3 -45zM167 545q-23 26 -32.5 53.5t-9.5 49.5q0 26 10.5 47t29.5 36.5t44.5 26t54.5 15.5l13 -81q-24 -4 -39 -12t-23.5 -18t-11 -21.5t-2.5 -22.5q0 -13 3 -27t10 -27zM284 763l99 17
l91 -210l-46 -16zM265 -67q-5 -28 -9.5 -46.5t-6.5 -28.5q-4 -17 -4 -30q0 -33 41 -33h17l-14 -70h-28q-44 0 -70 17.5t-26 59.5q0 14 3 31l20 100h77z" />
    <glyph glyph-name="uni1F84" unicode="&#x1f84;" horiz-adv-x="495" 
d="M277 501q36 0 68.5 -15t52.5 -46l3 1l10 54h80l-96 -495h-80l11 54l-3 2q-30 -34 -65.5 -48t-78.5 -14q-37 0 -62.5 12t-41.5 33.5t-23 50.5t-7 63q0 54 12.5 115.5t40.5 113t72 85.5t107 34zM130 169q0 -45 18.5 -69t69.5 -24q40 0 68.5 25.5t47.5 63t28 79.5t9 76
q0 45 -19 72.5t-67 27.5q-30 0 -53.5 -13.5t-40.5 -35t-29 -49t-19 -55t-10 -53.5t-3 -45zM223 569q20 21 30 43.5t10 39.5q0 15 -10.5 27.5t-42.5 17.5l44 81q45 -8 71.5 -29.5t26.5 -57.5q0 -10 -4 -25.5t-14.5 -34.5t-27.5 -40t-44 -41zM389 552l-43 16l123 210l92 -17z
M265 -67q-5 -28 -9.5 -46.5t-6.5 -28.5q-4 -17 -4 -30q0 -33 41 -33h17l-14 -70h-28q-44 0 -70 17.5t-26 59.5q0 14 3 31l20 100h77z" />
    <glyph glyph-name="uni1F85" unicode="&#x1f85;" horiz-adv-x="495" 
d="M277 501q36 0 68.5 -15t52.5 -46l3 1l10 54h80l-96 -495h-80l11 54l-3 2q-30 -34 -65.5 -48t-78.5 -14q-37 0 -62.5 12t-41.5 33.5t-23 50.5t-7 63q0 54 12.5 115.5t40.5 113t72 85.5t107 34zM130 169q0 -45 18.5 -69t69.5 -24q40 0 68.5 25.5t47.5 63t28 79.5t9 76
q0 45 -19 72.5t-67 27.5q-30 0 -53.5 -13.5t-40.5 -35t-29 -49t-19 -55t-10 -53.5t-3 -45zM230 550q-23 26 -32.5 53t-9.5 49q0 27 10.5 48t29 36.5t44 26t54.5 15.5l14 -81q-47 -8 -62 -28.5t-15 -42.5q0 -14 3.5 -29t10.5 -28zM358 554l-43 16l131 210l92 -17zM265 -67
q-5 -28 -9.5 -46.5t-6.5 -28.5q-4 -17 -4 -30q0 -33 41 -33h17l-14 -70h-28q-44 0 -70 17.5t-26 59.5q0 14 3 31l20 100h77z" />
    <glyph glyph-name="uni1F86" unicode="&#x1f86;" horiz-adv-x="495" 
d="M277 501q36 0 68.5 -15t52.5 -46l3 1l10 54h80l-96 -495h-80l11 54l-3 2q-30 -34 -65.5 -48t-78.5 -14q-37 0 -62.5 12t-41.5 33.5t-23 50.5t-7 63q0 54 12.5 115.5t40.5 113t72 85.5t107 34zM130 169q0 -45 18.5 -69t69.5 -24q40 0 68.5 25.5t47.5 63t28 79.5t9 76
q0 45 -19 72.5t-67 27.5q-30 0 -53.5 -13.5t-40.5 -35t-29 -49t-19 -55t-10 -53.5t-3 -45zM279 548q21 19 33 37.5t12 31.5q0 12 -11.5 20t-41.5 13l41 65q43 -6 67.5 -22t24.5 -43q0 -8 -3.5 -20t-13 -27t-26.5 -33t-44 -37zM298 841q18 0 36.5 -7.5t36.5 -16l34 -16
t29 -7.5q15 0 29.5 10.5t34.5 34.5l46 -29q-26 -50 -56 -69.5t-62 -19.5q-18 0 -36.5 7t-36.5 15.5t-34.5 15.5t-31.5 7q-17 0 -30 -8.5t-36 -31.5l-43 26q28 48 59 68.5t61 20.5zM265 -67q-5 -28 -9.5 -46.5t-6.5 -28.5q-4 -17 -4 -30q0 -33 41 -33h17l-14 -70h-28
q-44 0 -70 17.5t-26 59.5q0 14 3 31l20 100h77z" />
    <glyph glyph-name="uni1F87" unicode="&#x1f87;" horiz-adv-x="495" 
d="M277 501q36 0 68.5 -15t52.5 -46l3 1l10 54h80l-96 -495h-80l11 54l-3 2q-30 -34 -65.5 -48t-78.5 -14q-37 0 -62.5 12t-41.5 33.5t-23 50.5t-7 63q0 54 12.5 115.5t40.5 113t72 85.5t107 34zM130 169q0 -45 18.5 -69t69.5 -24q40 0 68.5 25.5t47.5 63t28 79.5t9 76
q0 45 -19 72.5t-67 27.5q-30 0 -53.5 -13.5t-40.5 -35t-29 -49t-19 -55t-10 -53.5t-3 -45zM279 532q-26 26 -35 49.5t-9 40.5q0 39 32 61.5t89 30.5l15 -65q-41 -6 -54.5 -18.5t-13.5 -30.5q0 -25 20 -53zM268 844q18 0 36.5 -7.5t36.5 -16l34 -16t29 -7.5q15 0 29.5 10.5
t34.5 34.5l46 -29q-26 -50 -56 -69.5t-62 -19.5q-18 0 -36.5 7t-36.5 15.5t-34.5 15.5t-31.5 7q-17 0 -30 -8.5t-36 -31.5l-43 26q28 48 59 68.5t61 20.5zM265 -67q-5 -28 -9.5 -46.5t-6.5 -28.5q-4 -17 -4 -30q0 -33 41 -33h17l-14 -70h-28q-44 0 -70 17.5t-26 59.5
q0 14 3 31l20 100h77z" />
    <glyph glyph-name="uni1F90" unicode="&#x1f90;" horiz-adv-x="514" 
d="M303 -131l83 428q5 28 5 45q0 38 -20.5 58.5t-72.5 20.5q-24 0 -46 -9t-40 -25.5t-31 -39.5t-18 -50l-58 -297h-81l96 495h81l-11 -59h3q30 32 69 48.5t78 16.5q27 0 52 -8.5t44 -25.5t30 -42t11 -57q0 -9 -1 -18.5t-3 -19.5l-89 -461h-81zM281 570q19 20 30 43t11 39
q0 15 -11 28t-43 18l45 81q45 -8 71 -29.5t26 -56.5q0 -9 -4 -24.5t-14 -35t-27.5 -40.5t-44.5 -42zM90 -67q-5 -28 -9.5 -46.5t-6.5 -28.5q-4 -17 -4 -30q0 -33 41 -33h17l-14 -70h-28q-44 0 -70 17.5t-26 59.5q0 14 3 31l20 100h77z" />
    <glyph glyph-name="uni1F91" unicode="&#x1f91;" horiz-adv-x="507" 
d="M303 -131l83 428q5 28 5 45q0 38 -20.5 58.5t-72.5 20.5q-24 0 -46 -9t-40 -25.5t-31 -39.5t-18 -50l-58 -297h-81l96 495h81l-11 -59h3q30 32 69 48.5t78 16.5q27 0 52 -8.5t44 -25.5t30 -42t11 -57q0 -9 -1 -18.5t-3 -19.5l-89 -461h-81zM283 551q-23 26 -32.5 53.5
t-9.5 49.5q0 26 10.5 47t29.5 36.5t44.5 26t54.5 15.5l13 -81q-24 -4 -39 -12t-23.5 -18t-11 -21.5t-2.5 -22.5q0 -13 3 -27t10 -27zM90 -67q-5 -28 -9.5 -46.5t-6.5 -28.5q-4 -17 -4 -30q0 -33 41 -33h17l-14 -70h-28q-44 0 -70 17.5t-26 59.5q0 14 3 31l20 100h77z" />
    <glyph glyph-name="uni1F92" unicode="&#x1f92;" horiz-adv-x="514" 
d="M303 -131l83 428q5 28 5 45q0 38 -20.5 58.5t-72.5 20.5q-24 0 -46 -9t-40 -25.5t-31 -39.5t-18 -50l-58 -297h-81l96 495h81l-11 -59h3q30 32 69 48.5t78 16.5q27 0 52 -8.5t44 -25.5t30 -42t11 -57q0 -9 -1 -18.5t-3 -19.5l-89 -461h-81zM151 571q19 20 30 43t11 39
q0 15 -11 28t-43 18l45 81q45 -8 71 -29.5t26 -56.5q0 -9 -4 -24.5t-14 -35t-27.5 -40.5t-44.5 -42zM282 763l99 17l91 -210l-46 -16zM90 -67q-5 -28 -9.5 -46.5t-6.5 -28.5q-4 -17 -4 -30q0 -33 41 -33h17l-14 -70h-28q-44 0 -70 17.5t-26 59.5q0 14 3 31l20 100h77z" />
    <glyph glyph-name="uni1F93" unicode="&#x1f93;" horiz-adv-x="514" 
d="M303 -131l83 428q5 28 5 45q0 38 -20.5 58.5t-72.5 20.5q-24 0 -46 -9t-40 -25.5t-31 -39.5t-18 -50l-58 -297h-81l96 495h81l-11 -59h3q30 32 69 48.5t78 16.5q27 0 52 -8.5t44 -25.5t30 -42t11 -57q0 -9 -1 -18.5t-3 -19.5l-89 -461h-81zM160 545q-23 26 -32.5 53.5
t-9.5 49.5q0 26 10.5 47t29.5 36.5t44.5 26t54.5 15.5l13 -81q-24 -4 -39 -12t-23.5 -18t-11 -21.5t-2.5 -22.5q0 -13 3 -27t10 -27zM277 763l99 17l91 -210l-46 -16zM90 -67q-5 -28 -9.5 -46.5t-6.5 -28.5q-4 -17 -4 -30q0 -33 41 -33h17l-14 -70h-28q-44 0 -70 17.5
t-26 59.5q0 14 3 31l20 100h77z" />
    <glyph glyph-name="uni1F94" unicode="&#x1f94;" horiz-adv-x="514" 
d="M303 -131l83 428q5 28 5 45q0 38 -20.5 58.5t-72.5 20.5q-24 0 -46 -9t-40 -25.5t-31 -39.5t-18 -50l-58 -297h-81l96 495h81l-11 -59h3q30 32 69 48.5t78 16.5q27 0 52 -8.5t44 -25.5t30 -42t11 -57q0 -9 -1 -18.5t-3 -19.5l-89 -461h-81zM218 569q20 21 30 43.5
t10 39.5q0 15 -10.5 27.5t-42.5 17.5l44 81q45 -8 71.5 -29.5t26.5 -57.5q0 -10 -4 -25.5t-14.5 -34.5t-27.5 -40t-44 -41zM384 552l-43 16l123 210l92 -17zM90 -67q-5 -28 -9.5 -46.5t-6.5 -28.5q-4 -17 -4 -30q0 -33 41 -33h17l-14 -70h-28q-44 0 -70 17.5t-26 59.5
q0 14 3 31l20 100h77z" />
    <glyph glyph-name="uni1F95" unicode="&#x1f95;" horiz-adv-x="514" 
d="M303 -131l83 428q5 28 5 45q0 38 -20.5 58.5t-72.5 20.5q-24 0 -46 -9t-40 -25.5t-31 -39.5t-18 -50l-58 -297h-81l96 495h81l-11 -59h3q30 32 69 48.5t78 16.5q27 0 52 -8.5t44 -25.5t30 -42t11 -57q0 -9 -1 -18.5t-3 -19.5l-89 -461h-81zM271 550q-23 26 -32.5 53
t-9.5 49q0 27 10.5 48t29 36.5t44 26t54.5 15.5l14 -81q-47 -8 -62 -28.5t-15 -42.5q0 -14 3.5 -29t10.5 -28zM399 554l-43 16l131 210l92 -17zM90 -67q-5 -28 -9.5 -46.5t-6.5 -28.5q-4 -17 -4 -30q0 -33 41 -33h17l-14 -70h-28q-44 0 -70 17.5t-26 59.5q0 14 3 31l20 100
h77z" />
    <glyph glyph-name="uni1F96" unicode="&#x1f96;" horiz-adv-x="514" 
d="M303 -131l83 428q5 28 5 45q0 38 -20.5 58.5t-72.5 20.5q-24 0 -46 -9t-40 -25.5t-31 -39.5t-18 -50l-58 -297h-81l96 495h81l-11 -59h3q30 32 69 48.5t78 16.5q27 0 52 -8.5t44 -25.5t30 -42t11 -57q0 -9 -1 -18.5t-3 -19.5l-89 -461h-81zM257 548q21 19 33 37.5
t12 31.5q0 12 -11.5 20t-41.5 13l41 65q43 -6 67.5 -22t24.5 -43q0 -8 -3.5 -20t-13 -27t-26.5 -33t-44 -37zM276 841q18 0 36.5 -7.5t36.5 -16l34 -16t29 -7.5q15 0 29.5 10.5t34.5 34.5l46 -29q-26 -50 -56 -69.5t-62 -19.5q-18 0 -36.5 7t-36.5 15.5t-34.5 15.5t-31.5 7
q-17 0 -30 -8.5t-36 -31.5l-43 26q28 48 59 68.5t61 20.5zM90 -67q-5 -28 -9.5 -46.5t-6.5 -28.5q-4 -17 -4 -30q0 -33 41 -33h17l-14 -70h-28q-44 0 -70 17.5t-26 59.5q0 14 3 31l20 100h77z" />
    <glyph glyph-name="uni1F97" unicode="&#x1f97;" horiz-adv-x="514" 
d="M303 -131l83 428q5 28 5 45q0 38 -20.5 58.5t-72.5 20.5q-24 0 -46 -9t-40 -25.5t-31 -39.5t-18 -50l-58 -297h-81l96 495h81l-11 -59h3q30 32 69 48.5t78 16.5q27 0 52 -8.5t44 -25.5t30 -42t11 -57q0 -9 -1 -18.5t-3 -19.5l-89 -461h-81zM285 531q-26 26 -35 49.5
t-9 40.5q0 39 32 61.5t89 30.5l15 -65q-41 -6 -54.5 -18.5t-13.5 -30.5q0 -25 20 -53zM274 843q18 0 36.5 -7.5t36.5 -16l34 -16t29 -7.5q15 0 29.5 10.5t34.5 34.5l46 -29q-26 -50 -56 -69.5t-62 -19.5q-18 0 -36.5 7t-36.5 15.5t-34.5 15.5t-31.5 7q-17 0 -30 -8.5
t-36 -31.5l-43 26q28 48 59 68.5t61 20.5zM90 -67q-5 -28 -9.5 -46.5t-6.5 -28.5q-4 -17 -4 -30q0 -33 41 -33h17l-14 -70h-28q-44 0 -70 17.5t-26 59.5q0 14 3 31l20 100h77z" />
    <glyph glyph-name="uni1FA0" unicode="&#x1fa0;" horiz-adv-x="737" 
d="M583 495q70 -18 100 -58t30 -110q0 -66 -12.5 -126.5t-40 -106t-71 -72.5t-105.5 -27q-46 0 -81.5 18t-55.5 56q-29 -35 -67 -54.5t-84 -19.5q-40 0 -68.5 13t-47 35.5t-27 53t-8.5 66.5q0 68 14.5 127.5t43 104.5t70 72.5t95.5 31.5v-73q-35 -3 -62 -25t-45 -57.5
t-27 -80t-9 -91.5q0 -46 20.5 -73t63.5 -27q56 0 82 33.5t37 89.5l36 185h80l-36 -185q-3 -18 -3 -33q0 -43 24.5 -66t71.5 -23q31 0 55.5 19t41.5 52t26 77.5t9 94.5q0 45 -17 71t-55 35zM396 570q19 20 30 43t11 39q0 15 -11 28t-43 18l45 81q45 -8 71 -29.5t26 -56.5
q0 -9 -4 -24.5t-14 -35t-27.5 -40.5t-44.5 -42zM357 -67q-5 -28 -9.5 -46.5t-6.5 -28.5q-4 -17 -4 -30q0 -33 41 -33h17l-14 -70h-28q-44 0 -70 17.5t-26 59.5q0 14 3 31l20 100h77z" />
    <glyph glyph-name="uni1FA1" unicode="&#x1fa1;" horiz-adv-x="737" 
d="M583 495q70 -18 100 -58t30 -110q0 -66 -12.5 -126.5t-40 -106t-71 -72.5t-105.5 -27q-46 0 -81.5 18t-55.5 56q-29 -35 -67 -54.5t-84 -19.5q-40 0 -68.5 13t-47 35.5t-27 53t-8.5 66.5q0 68 14.5 127.5t43 104.5t70 72.5t95.5 31.5v-73q-35 -3 -62 -25t-45 -57.5
t-27 -80t-9 -91.5q0 -46 20.5 -73t63.5 -27q56 0 82 33.5t37 89.5l36 185h80l-36 -185q-3 -18 -3 -33q0 -43 24.5 -66t71.5 -23q31 0 55.5 19t41.5 52t26 77.5t9 94.5q0 45 -17 71t-55 35zM415 551q-23 26 -32.5 53.5t-9.5 49.5q0 26 10.5 47t29.5 36.5t44.5 26t54.5 15.5
l13 -81q-24 -4 -39 -12t-23.5 -18t-11 -21.5t-2.5 -22.5q0 -13 3 -27t10 -27zM357 -67q-5 -28 -9.5 -46.5t-6.5 -28.5q-4 -17 -4 -30q0 -33 41 -33h17l-14 -70h-28q-44 0 -70 17.5t-26 59.5q0 14 3 31l20 100h77z" />
    <glyph glyph-name="uni1FA2" unicode="&#x1fa2;" horiz-adv-x="737" 
d="M583 495q70 -18 100 -58t30 -110q0 -66 -12.5 -126.5t-40 -106t-71 -72.5t-105.5 -27q-46 0 -81.5 18t-55.5 56q-29 -35 -67 -54.5t-84 -19.5q-40 0 -68.5 13t-47 35.5t-27 53t-8.5 66.5q0 68 14.5 127.5t43 104.5t70 72.5t95.5 31.5v-73q-35 -3 -62 -25t-45 -57.5
t-27 -80t-9 -91.5q0 -46 20.5 -73t63.5 -27q56 0 82 33.5t37 89.5l36 185h80l-36 -185q-3 -18 -3 -33q0 -43 24.5 -66t71.5 -23q31 0 55.5 19t41.5 52t26 77.5t9 94.5q0 45 -17 71t-55 35zM272 571q19 20 30 43t11 39q0 15 -11 28t-43 18l45 81q45 -8 71 -29.5t26 -56.5
q0 -9 -4 -24.5t-14 -35t-27.5 -40.5t-44.5 -42zM403 763l99 17l91 -210l-46 -16zM357 -67q-5 -28 -9.5 -46.5t-6.5 -28.5q-4 -17 -4 -30q0 -33 41 -33h17l-14 -70h-28q-44 0 -70 17.5t-26 59.5q0 14 3 31l20 100h77z" />
    <glyph glyph-name="uni1FA3" unicode="&#x1fa3;" horiz-adv-x="737" 
d="M583 495q70 -18 100 -58t30 -110q0 -66 -12.5 -126.5t-40 -106t-71 -72.5t-105.5 -27q-46 0 -81.5 18t-55.5 56q-29 -35 -67 -54.5t-84 -19.5q-40 0 -68.5 13t-47 35.5t-27 53t-8.5 66.5q0 68 14.5 127.5t43 104.5t70 72.5t95.5 31.5v-73q-35 -3 -62 -25t-45 -57.5
t-27 -80t-9 -91.5q0 -46 20.5 -73t63.5 -27q56 0 82 33.5t37 89.5l36 185h80l-36 -185q-3 -18 -3 -33q0 -43 24.5 -66t71.5 -23q31 0 55.5 19t41.5 52t26 77.5t9 94.5q0 45 -17 71t-55 35zM284 545q-23 26 -32.5 53.5t-9.5 49.5q0 26 10.5 47t29.5 36.5t44.5 26t54.5 15.5
l13 -81q-24 -4 -39 -12t-23.5 -18t-11 -21.5t-2.5 -22.5q0 -13 3 -27t10 -27zM401 763l99 17l91 -210l-46 -16zM357 -67q-5 -28 -9.5 -46.5t-6.5 -28.5q-4 -17 -4 -30q0 -33 41 -33h17l-14 -70h-28q-44 0 -70 17.5t-26 59.5q0 14 3 31l20 100h77z" />
    <glyph glyph-name="uni1FA4" unicode="&#x1fa4;" horiz-adv-x="737" 
d="M583 495q70 -18 100 -58t30 -110q0 -66 -12.5 -126.5t-40 -106t-71 -72.5t-105.5 -27q-46 0 -81.5 18t-55.5 56q-29 -35 -67 -54.5t-84 -19.5q-40 0 -68.5 13t-47 35.5t-27 53t-8.5 66.5q0 68 14.5 127.5t43 104.5t70 72.5t95.5 31.5v-73q-35 -3 -62 -25t-45 -57.5
t-27 -80t-9 -91.5q0 -46 20.5 -73t63.5 -27q56 0 82 33.5t37 89.5l36 185h80l-36 -185q-3 -18 -3 -33q0 -43 24.5 -66t71.5 -23q31 0 55.5 19t41.5 52t26 77.5t9 94.5q0 45 -17 71t-55 35zM347 569q20 21 30 43.5t10 39.5q0 15 -10.5 27.5t-42.5 17.5l44 81
q45 -8 71.5 -29.5t26.5 -57.5q0 -10 -4 -25.5t-14.5 -34.5t-27.5 -40t-44 -41zM513 552l-43 16l123 210l92 -17zM357 -67q-5 -28 -9.5 -46.5t-6.5 -28.5q-4 -17 -4 -30q0 -33 41 -33h17l-14 -70h-28q-44 0 -70 17.5t-26 59.5q0 14 3 31l20 100h77z" />
    <glyph glyph-name="uni1FA5" unicode="&#x1fa5;" horiz-adv-x="737" 
d="M583 495q70 -18 100 -58t30 -110q0 -66 -12.5 -126.5t-40 -106t-71 -72.5t-105.5 -27q-46 0 -81.5 18t-55.5 56q-29 -35 -67 -54.5t-84 -19.5q-40 0 -68.5 13t-47 35.5t-27 53t-8.5 66.5q0 68 14.5 127.5t43 104.5t70 72.5t95.5 31.5v-73q-35 -3 -62 -25t-45 -57.5
t-27 -80t-9 -91.5q0 -46 20.5 -73t63.5 -27q56 0 82 33.5t37 89.5l36 185h80l-36 -185q-3 -18 -3 -33q0 -43 24.5 -66t71.5 -23q31 0 55.5 19t41.5 52t26 77.5t9 94.5q0 45 -17 71t-55 35zM381 550q-23 26 -32.5 53t-9.5 49q0 27 10.5 48t29 36.5t44 26t54.5 15.5l14 -81
q-47 -8 -62 -28.5t-15 -42.5q0 -14 3.5 -29t10.5 -28zM509 554l-43 16l131 210l92 -17zM357 -67q-5 -28 -9.5 -46.5t-6.5 -28.5q-4 -17 -4 -30q0 -33 41 -33h17l-14 -70h-28q-44 0 -70 17.5t-26 59.5q0 14 3 31l20 100h77z" />
    <glyph glyph-name="uni1FA6" unicode="&#x1fa6;" horiz-adv-x="737" 
d="M583 495q70 -18 100 -58t30 -110q0 -66 -12.5 -126.5t-40 -106t-71 -72.5t-105.5 -27q-46 0 -81.5 18t-55.5 56q-29 -35 -67 -54.5t-84 -19.5q-40 0 -68.5 13t-47 35.5t-27 53t-8.5 66.5q0 68 14.5 127.5t43 104.5t70 72.5t95.5 31.5v-73q-35 -3 -62 -25t-45 -57.5
t-27 -80t-9 -91.5q0 -46 20.5 -73t63.5 -27q56 0 82 33.5t37 89.5l36 185h80l-36 -185q-3 -18 -3 -33q0 -43 24.5 -66t71.5 -23q31 0 55.5 19t41.5 52t26 77.5t9 94.5q0 45 -17 71t-55 35zM392 548q21 19 33 37.5t12 31.5q0 12 -11.5 20t-41.5 13l41 65q43 -6 67.5 -22
t24.5 -43q0 -8 -3.5 -20t-13 -27t-26.5 -33t-44 -37zM411 841q18 0 36.5 -7.5t36.5 -16l34 -16t29 -7.5q15 0 29.5 10.5t34.5 34.5l46 -29q-26 -50 -56 -69.5t-62 -19.5q-18 0 -36.5 7t-36.5 15.5t-34.5 15.5t-31.5 7q-17 0 -30 -8.5t-36 -31.5l-43 26q28 48 59 68.5
t61 20.5zM357 -67q-5 -28 -9.5 -46.5t-6.5 -28.5q-4 -17 -4 -30q0 -33 41 -33h17l-14 -70h-28q-44 0 -70 17.5t-26 59.5q0 14 3 31l20 100h77z" />
    <glyph glyph-name="uni1FA7" unicode="&#x1fa7;" horiz-adv-x="737" 
d="M583 495q70 -18 100 -58t30 -110q0 -66 -12.5 -126.5t-40 -106t-71 -72.5t-105.5 -27q-46 0 -81.5 18t-55.5 56q-29 -35 -67 -54.5t-84 -19.5q-40 0 -68.5 13t-47 35.5t-27 53t-8.5 66.5q0 68 14.5 127.5t43 104.5t70 72.5t95.5 31.5v-73q-35 -3 -62 -25t-45 -57.5
t-27 -80t-9 -91.5q0 -46 20.5 -73t63.5 -27q56 0 82 33.5t37 89.5l36 185h80l-36 -185q-3 -18 -3 -33q0 -43 24.5 -66t71.5 -23q31 0 55.5 19t41.5 52t26 77.5t9 94.5q0 45 -17 71t-55 35zM412 532q-26 26 -35 49.5t-9 40.5q0 39 32 61.5t89 30.5l15 -65q-41 -6 -54.5 -18.5
t-13.5 -30.5q0 -25 20 -53zM401 844q18 0 36.5 -7.5t36.5 -16l34 -16t29 -7.5q15 0 29.5 10.5t34.5 34.5l46 -29q-26 -50 -56 -69.5t-62 -19.5q-18 0 -36.5 7t-36.5 15.5t-34.5 15.5t-31.5 7q-17 0 -30 -8.5t-36 -31.5l-43 26q28 48 59 68.5t61 20.5zM357 -67
q-5 -28 -9.5 -46.5t-6.5 -28.5q-4 -17 -4 -30q0 -33 41 -33h17l-14 -70h-28q-44 0 -70 17.5t-26 59.5q0 14 3 31l20 100h77z" />
    <glyph glyph-name="uni1FB0" unicode="&#x1fb0;" horiz-adv-x="495" 
d="M277 501q36 0 68.5 -15t52.5 -46l3 1l10 54h80l-96 -495h-80l11 54l-3 2q-30 -34 -65.5 -48t-78.5 -14q-37 0 -62.5 12t-41.5 33.5t-23 50.5t-7 63q0 54 12.5 115.5t40.5 113t72 85.5t107 34zM130 169q0 -45 18.5 -69t69.5 -24q40 0 68.5 25.5t47.5 63t28 79.5t9 76
q0 45 -19 72.5t-67 27.5q-30 0 -53.5 -13.5t-40.5 -35t-29 -49t-19 -55t-10 -53.5t-3 -45zM273 707q-1 -10 1.5 -22t10 -22t19.5 -17t30 -7q36 0 57.5 21.5t26.5 46.5h77q-6 -24 -18.5 -48t-32.5 -43.5t-48 -31.5t-67 -12q-74 0 -103.5 37t-23.5 98h71z" />
    <glyph glyph-name="uni1FB1" unicode="&#x1fb1;" horiz-adv-x="495" 
d="M277 501q36 0 68.5 -15t52.5 -46l3 1l10 54h80l-96 -495h-80l11 54l-3 2q-30 -34 -65.5 -48t-78.5 -14q-37 0 -62.5 12t-41.5 33.5t-23 50.5t-7 63q0 54 12.5 115.5t40.5 113t72 85.5t107 34zM130 169q0 -45 18.5 -69t69.5 -24q40 0 68.5 25.5t47.5 63t28 79.5t9 76
q0 45 -19 72.5t-67 27.5q-30 0 -53.5 -13.5t-40.5 -35t-29 -49t-19 -55t-10 -53.5t-3 -45zM191 600l15 75h268l-15 -75h-268z" />
    <glyph glyph-name="uni1FB2" unicode="&#x1fb2;" horiz-adv-x="495" 
d="M277 501q36 0 68.5 -15t52.5 -46l3 1l10 54h80l-96 -495h-80l11 54l-3 2q-30 -34 -65.5 -48t-78.5 -14q-37 0 -62.5 12t-41.5 33.5t-23 50.5t-7 63q0 54 12.5 115.5t40.5 113t72 85.5t107 34zM130 169q0 -45 18.5 -69t69.5 -24q40 0 68.5 25.5t47.5 63t28 79.5t9 76
q0 45 -19 72.5t-67 27.5q-30 0 -53.5 -13.5t-40.5 -35t-29 -49t-19 -55t-10 -53.5t-3 -45zM170 763l99 17l91 -210l-46 -16zM265 -67q-5 -28 -9.5 -46.5t-6.5 -28.5q-4 -17 -4 -30q0 -33 41 -33h17l-14 -70h-28q-44 0 -70 17.5t-26 59.5q0 14 3 31l20 100h77z" />
    <glyph glyph-name="uni1FB3" unicode="&#x1fb3;" horiz-adv-x="495" 
d="M277 501q36 0 68.5 -15t52.5 -46l3 1l10 54h80l-96 -495h-80l11 54l-3 2q-30 -34 -65.5 -48t-78.5 -14q-37 0 -62.5 12t-41.5 33.5t-23 50.5t-7 63q0 54 12.5 115.5t40.5 113t72 85.5t107 34zM130 169q0 -45 18.5 -69t69.5 -24q40 0 68.5 25.5t47.5 63t28 79.5t9 76
q0 45 -19 72.5t-67 27.5q-30 0 -53.5 -13.5t-40.5 -35t-29 -49t-19 -55t-10 -53.5t-3 -45zM265 -67q-5 -28 -9.5 -46.5t-6.5 -28.5q-4 -17 -4 -30q0 -33 41 -33h17l-14 -70h-28q-44 0 -70 17.5t-26 59.5q0 14 3 31l20 100h77z" />
    <glyph glyph-name="uni1FB4" unicode="&#x1fb4;" horiz-adv-x="495" 
d="M277 501q36 0 68.5 -15t52.5 -46l3 1l10 54h80l-96 -495h-80l11 54l-3 2q-30 -34 -65.5 -48t-78.5 -14q-37 0 -62.5 12t-41.5 33.5t-23 50.5t-7 63q0 54 12.5 115.5t40.5 113t72 85.5t107 34zM130 169q0 -45 18.5 -69t69.5 -24q40 0 68.5 25.5t47.5 63t28 79.5t9 76
q0 45 -19 72.5t-67 27.5q-30 0 -53.5 -13.5t-40.5 -35t-29 -49t-19 -55t-10 -53.5t-3 -45zM315 552l-43 16l123 210l92 -17zM265 -67q-5 -28 -9.5 -46.5t-6.5 -28.5q-4 -17 -4 -30q0 -33 41 -33h17l-14 -70h-28q-44 0 -70 17.5t-26 59.5q0 14 3 31l20 100h77z" />
    <glyph glyph-name="uni1FB6" unicode="&#x1fb6;" horiz-adv-x="495" 
d="M277 501q36 0 68.5 -15t52.5 -46l3 1l10 54h80l-96 -495h-80l11 54l-3 2q-30 -34 -65.5 -48t-78.5 -14q-37 0 -62.5 12t-41.5 33.5t-23 50.5t-7 63q0 54 12.5 115.5t40.5 113t72 85.5t107 34zM130 169q0 -45 18.5 -69t69.5 -24q40 0 68.5 25.5t47.5 63t28 79.5t9 76
q0 45 -19 72.5t-67 27.5q-30 0 -53.5 -13.5t-40.5 -35t-29 -49t-19 -55t-10 -53.5t-3 -45zM256 707q18 0 36.5 -7.5t36.5 -16l34 -16t29 -7.5q15 0 29.5 10.5t34.5 34.5l46 -29q-26 -50 -56 -69.5t-62 -19.5q-18 0 -36.5 7t-36.5 15.5t-34.5 15.5t-31.5 7q-17 0 -30 -8.5
t-36 -31.5l-43 26q28 48 59 68.5t61 20.5z" />
    <glyph glyph-name="uni1FB7" unicode="&#x1fb7;" horiz-adv-x="495" 
d="M277 501q36 0 68.5 -15t52.5 -46l3 1l10 54h80l-96 -495h-80l11 54l-3 2q-30 -34 -65.5 -48t-78.5 -14q-37 0 -62.5 12t-41.5 33.5t-23 50.5t-7 63q0 54 12.5 115.5t40.5 113t72 85.5t107 34zM130 169q0 -45 18.5 -69t69.5 -24q40 0 68.5 25.5t47.5 63t28 79.5t9 76
q0 45 -19 72.5t-67 27.5q-30 0 -53.5 -13.5t-40.5 -35t-29 -49t-19 -55t-10 -53.5t-3 -45zM265 -67q-5 -28 -9.5 -46.5t-6.5 -28.5q-4 -17 -4 -30q0 -33 41 -33h17l-14 -70h-28q-44 0 -70 17.5t-26 59.5q0 14 3 31l20 100h77zM255 707q18 0 36.5 -7.5t36.5 -16l34 -16
t29 -7.5q15 0 29.5 10.5t34.5 34.5l46 -29q-26 -50 -56 -69.5t-62 -19.5q-18 0 -36.5 7t-36.5 15.5t-34.5 15.5t-31.5 7q-17 0 -30 -8.5t-36 -31.5l-43 26q28 48 59 68.5t61 20.5z" />
    <glyph glyph-name="uni1FB8" unicode="&#x1fb8;" horiz-adv-x="586" 
d="M450 0l-24 160h-283l-86 -160h-93l385 696h77l114 -696h-90zM389 431l-20 158h-2l-79 -154l-106 -199h235zM346 870q-5 -26 9.5 -44.5t46.5 -18.5q20 0 35 6t25 15.5t16 20.5t8 21h75q-4 -22 -15.5 -45t-31.5 -41.5t-50 -30.5t-71 -12q-39 0 -63.5 13t-38 32t-17 41.5
t-0.5 42.5h72z" />
    <glyph glyph-name="uni1FB9" unicode="&#x1fb9;" horiz-adv-x="586" 
d="M450 0l-24 160h-283l-86 -160h-93l385 696h77l114 -696h-90zM389 431l-20 158h-2l-79 -154l-106 -199h235zM263 769l15 75h268l-15 -75h-268z" />
    <glyph glyph-name="uni1FBA" unicode="&#x1fba;" horiz-adv-x="586" 
d="M450 0l-24 160h-283l-86 -160h-93l385 696h77l114 -696h-90zM389 431l-20 158h-2l-79 -154l-106 -199h235zM-23 713l99 17l91 -210l-46 -16z" />
    <glyph glyph-name="uni1FBB" unicode="&#x1fbb;" horiz-adv-x="586" 
d="M450 0l-24 160h-283l-86 -160h-93l385 696h77l114 -696h-90zM389 431l-20 158h-2l-79 -154l-106 -199h235zM58 502l-43 16l123 210l92 -17z" />
    <glyph glyph-name="uni1FC2" unicode="&#x1fc2;" horiz-adv-x="514" 
d="M303 -131l83 428q5 28 5 45q0 38 -20.5 58.5t-72.5 20.5q-24 0 -46 -9t-40 -25.5t-31 -39.5t-18 -50l-58 -297h-81l96 495h81l-11 -59h3q30 32 69 48.5t78 16.5q27 0 52 -8.5t44 -25.5t30 -42t11 -57q0 -9 -1 -18.5t-3 -19.5l-89 -461h-81zM170 763l99 17l91 -210
l-46 -16zM90 -67q-5 -28 -9.5 -46.5t-6.5 -28.5q-4 -17 -4 -30q0 -33 41 -33h17l-14 -70h-28q-44 0 -70 17.5t-26 59.5q0 14 3 31l20 100h77z" />
    <glyph glyph-name="uni1FC3" unicode="&#x1fc3;" horiz-adv-x="514" 
d="M303 -131l83 428q5 28 5 45q0 38 -20.5 58.5t-72.5 20.5q-24 0 -46 -9t-40 -25.5t-31 -39.5t-18 -50l-58 -297h-81l96 495h81l-11 -59h3q30 32 69 48.5t78 16.5q27 0 52 -8.5t44 -25.5t30 -42t11 -57q0 -9 -1 -18.5t-3 -19.5l-89 -461h-81zM90 -67q-5 -28 -9.5 -46.5
t-6.5 -28.5q-4 -17 -4 -30q0 -33 41 -33h17l-14 -70h-28q-44 0 -70 17.5t-26 59.5q0 14 3 31l20 100h77z" />
    <glyph glyph-name="uni1FC4" unicode="&#x1fc4;" horiz-adv-x="514" 
d="M303 -131l83 428q5 28 5 45q0 38 -20.5 58.5t-72.5 20.5q-24 0 -46 -9t-40 -25.5t-31 -39.5t-18 -50l-58 -297h-81l96 495h81l-11 -59h3q30 32 69 48.5t78 16.5q27 0 52 -8.5t44 -25.5t30 -42t11 -57q0 -9 -1 -18.5t-3 -19.5l-89 -461h-81zM315 552l-43 16l123 210
l92 -17zM90 -67q-5 -28 -9.5 -46.5t-6.5 -28.5q-4 -17 -4 -30q0 -33 41 -33h17l-14 -70h-28q-44 0 -70 17.5t-26 59.5q0 14 3 31l20 100h77z" />
    <glyph glyph-name="uni1FC6" unicode="&#x1fc6;" horiz-adv-x="524" 
d="M262 707q18 0 36.5 -7.5t36.5 -16l34 -16t29 -7.5q15 0 29.5 10.5t34.5 34.5l46 -29q-26 -50 -56 -69.5t-62 -19.5q-18 0 -36.5 7t-36.5 15.5t-34.5 15.5t-31.5 7q-17 0 -30 -8.5t-36 -31.5l-43 26q28 48 59 68.5t61 20.5zM303 -131l83 428q5 28 5 45q0 38 -20.5 58.5
t-72.5 20.5q-24 0 -46 -9t-40 -25.5t-31 -39.5t-18 -50l-58 -297h-81l96 495h81l-11 -59h3q30 32 69 48.5t78 16.5q27 0 52 -8.5t44 -25.5t30 -42t11 -57q0 -9 -1 -18.5t-3 -19.5l-89 -461h-81z" />
    <glyph glyph-name="uni1FC7" unicode="&#x1fc7;" horiz-adv-x="524" 
d="M262 707q18 0 36.5 -7.5t36.5 -16l34 -16t29 -7.5q15 0 29.5 10.5t34.5 34.5l46 -29q-26 -50 -56 -69.5t-62 -19.5q-18 0 -36.5 7t-36.5 15.5t-34.5 15.5t-31.5 7q-17 0 -30 -8.5t-36 -31.5l-43 26q28 48 59 68.5t61 20.5zM303 -131l83 428q5 28 5 45q0 38 -20.5 58.5
t-72.5 20.5q-24 0 -46 -9t-40 -25.5t-31 -39.5t-18 -50l-58 -297h-81l96 495h81l-11 -59h3q30 32 69 48.5t78 16.5q27 0 52 -8.5t44 -25.5t30 -42t11 -57q0 -9 -1 -18.5t-3 -19.5l-89 -461h-81zM90 -67q-5 -28 -9.5 -46.5t-6.5 -28.5q-4 -17 -4 -30q0 -33 41 -33h17l-14 -70
h-28q-44 0 -70 17.5t-26 59.5q0 14 3 31l20 100h77z" />
    <glyph glyph-name="uni1FC8" unicode="&#x1fc8;" horiz-adv-x="532" 
d="M34 0l136 696h421l-16 -81h-335l-43 -225h294l-15 -77h-294l-46 -232h365l-15 -81h-452zM-116 713l99 17l91 -210l-46 -16z" />
    <glyph glyph-name="uni1FC9" unicode="&#x1fc9;" horiz-adv-x="532" 
d="M34 0l136 696h421l-16 -81h-335l-43 -225h294l-15 -77h-294l-46 -232h365l-15 -81h-452zM-75 502l-43 16l123 210l92 -17z" />
    <glyph glyph-name="uni1FCA" unicode="&#x1fca;" horiz-adv-x="623" 
d="M423 0l60 313h-301l-61 -313h-87l136 696h86l-59 -306h301l60 306h86l-135 -696h-86zM-119 713l99 17l91 -210l-46 -16z" />
    <glyph glyph-name="uni1FCB" unicode="&#x1fcb;" horiz-adv-x="623" 
d="M423 0l60 313h-301l-61 -313h-87l136 696h86l-59 -306h301l60 306h86l-135 -696h-86zM-64 502l-43 16l123 210l92 -17z" />
    <glyph glyph-name="uni1FD0" unicode="&#x1fd0;" horiz-adv-x="233" 
d="M148 0q-8 -1 -11.5 -1h-8.5q-59 0 -75 28t-5 84l75 383h80l-74 -379q-5 -23 1 -33t33 -12zM119 707q-1 -10 1.5 -22t10 -22t19.5 -17t30 -7q36 0 57.5 21.5t26.5 46.5h77q-6 -24 -18.5 -48t-32.5 -43.5t-48 -31.5t-67 -12q-74 0 -103.5 37t-23.5 98h71z" />
    <glyph glyph-name="uni1FD1" unicode="&#x1fd1;" horiz-adv-x="233" 
d="M148 0q-8 -1 -11.5 -1h-8.5q-59 0 -75 28t-5 84l75 383h80l-74 -379q-5 -23 1 -33t33 -12zM42 590l15 75h268l-15 -75h-268z" />
    <glyph glyph-name="uni1FD2" unicode="&#x1fd2;" horiz-adv-x="233" 
d="M-12 589l18 89h87l-18 -89h-87zM253 589l18 89h87l-18 -89h-87zM57 763l99 17l91 -210l-46 -16zM148 0q-8 -1 -11.5 -1h-8.5q-59 0 -75 28t-5 84l75 383h80l-74 -379q-5 -23 1 -33t33 -12z" />
    <glyph glyph-name="uni1FD3" unicode="&#x1fd3;" horiz-adv-x="233" 
d="M148 0q-8 -1 -11.5 -1h-8.5q-59 0 -75 28t-5 84l75 383h80l-74 -379q-5 -23 1 -33t33 -12zM283 589l18 89h87l-18 -89h-87zM18 589l18 89h87l-18 -89h-87zM172 552l-43 16l123 210l92 -17z" />
    <glyph glyph-name="uni1FD6" unicode="&#x1fd6;" horiz-adv-x="233" 
d="M148 0q-8 -1 -11.5 -1h-8.5q-59 0 -75 28t-5 84l75 383h80l-74 -379q-5 -23 1 -33t33 -12zM122 707q18 0 36.5 -7.5t36.5 -16l34 -16t29 -7.5q15 0 29.5 10.5t34.5 34.5l46 -29q-26 -50 -56 -69.5t-62 -19.5q-18 0 -36.5 7t-36.5 15.5t-34.5 15.5t-31.5 7q-17 0 -30 -8.5
t-36 -31.5l-43 26q28 48 59 68.5t61 20.5z" />
    <glyph glyph-name="uni1FD7" unicode="&#x1fd7;" horiz-adv-x="233" 
d="M148 0q-8 -1 -11.5 -1h-8.5q-59 0 -75 28t-5 84l75 383h80l-74 -379q-5 -23 1 -33t33 -12zM220 589l17 89h87l-17 -89h-87zM55 589l17 89h87l-17 -89h-87zM153 834q18 0 36.5 -7.5t36.5 -16l34 -16t29 -7.5q15 0 29.5 10.5t34.5 34.5l46 -29q-26 -50 -56 -69.5t-62 -19.5
q-18 0 -36.5 7t-36.5 15.5t-34.5 15.5t-31.5 7q-17 0 -30 -8.5t-36 -31.5l-43 26q28 48 59 68.5t61 20.5z" />
    <glyph glyph-name="uni1FD8" unicode="&#x1fd8;" horiz-adv-x="236" 
d="M34 0l136 696h86l-135 -696h-87zM169 870q-5 -26 9.5 -44.5t46.5 -18.5q20 0 35 6t25 15.5t16 20.5t8 21h75q-4 -22 -15.5 -45t-31.5 -41.5t-50 -30.5t-71 -12q-39 0 -63.5 13t-38 32t-17 41.5t-0.5 42.5h72z" />
    <glyph glyph-name="uni1FD9" unicode="&#x1fd9;" horiz-adv-x="236" 
d="M34 0l136 696h86l-135 -696h-87zM85 769l15 75h268l-15 -75h-268z" />
    <glyph glyph-name="uni1FDA" unicode="&#x1fda;" horiz-adv-x="236" 
d="M34 0l136 696h86l-135 -696h-87zM-95 713l99 17l91 -210l-46 -16z" />
    <glyph glyph-name="uni1FDB" unicode="&#x1fdb;" horiz-adv-x="236" 
d="M34 0l136 696h86l-135 -696h-87zM-85 502l-43 16l123 210l92 -17z" />
    <glyph glyph-name="uni1FE0" unicode="&#x1fe0;" horiz-adv-x="518" 
d="M446 173q-16 -80 -71 -129.5t-141 -49.5q-38 0 -70.5 10t-56 29.5t-36.5 47.5t-13 63q0 9 1 19t3 20l61 312h80l-58 -297q-3 -15 -3 -30q0 -44 25 -69.5t67 -25.5q57 0 91.5 34t45.5 91l58 297h80zM263 707q-1 -10 1.5 -22t10 -22t19.5 -17t30 -7q36 0 57.5 21.5
t26.5 46.5h77q-6 -24 -18.5 -48t-32.5 -43.5t-48 -31.5t-67 -12q-74 0 -103.5 37t-23.5 98h71z" />
    <glyph glyph-name="uni1FE1" unicode="&#x1fe1;" horiz-adv-x="518" 
d="M446 173q-16 -80 -71 -129.5t-141 -49.5q-38 0 -70.5 10t-56 29.5t-36.5 47.5t-13 63q0 9 1 19t3 20l61 312h80l-58 -297q-3 -15 -3 -30q0 -44 25 -69.5t67 -25.5q57 0 91.5 34t45.5 91l58 297h80zM185 590l15 75h268l-15 -75h-268z" />
    <glyph glyph-name="uni1FE2" unicode="&#x1fe2;" horiz-adv-x="518" 
d="M446 173q-16 -80 -71 -129.5t-141 -49.5q-38 0 -70.5 10t-56 29.5t-36.5 47.5t-13 63q0 9 1 19t3 20l61 312h80l-58 -297q-3 -15 -3 -30q0 -44 25 -69.5t67 -25.5q57 0 91.5 34t45.5 91l58 297h80zM144 589l18 89h87l-18 -89h-87zM409 589l18 89h87l-18 -89h-87zM213 763
l99 17l91 -210l-46 -16z" />
    <glyph glyph-name="uni1FE3" unicode="&#x1fe3;" horiz-adv-x="518" 
d="M446 173q-16 -80 -71 -129.5t-141 -49.5q-38 0 -70.5 10t-56 29.5t-36.5 47.5t-13 63q0 9 1 19t3 20l61 312h80l-58 -297q-3 -15 -3 -30q0 -44 25 -69.5t67 -25.5q57 0 91.5 34t45.5 91l58 297h80zM408 589l18 89h87l-18 -89h-87zM143 589l18 89h87l-18 -89h-87zM297 552
l-43 16l123 210l92 -17z" />
    <glyph glyph-name="uni1FE4" unicode="&#x1fe4;" horiz-adv-x="502" 
d="M231 69q49 0 80.5 24t50 61t25.5 81.5t7 84.5q0 55 -28.5 81t-73.5 26q-35 0 -64 -20t-49.5 -54.5t-31.5 -81.5t-11 -101q0 -19 5 -37t16.5 -31.5t29.5 -22.5t44 -10zM237 -6q-46 0 -76 18t-50 42l-4 -4l-49 -250h-80l90 466q9 46 26.5 88t46 74.5t68 52t92.5 19.5
q80 0 127.5 -47.5t47.5 -127.5q0 -71 -15 -132t-45 -105t-74.5 -69t-104.5 -25zM293 570q19 20 30 43t11 39q0 15 -11 28t-43 18l45 81q45 -8 71 -29.5t26 -56.5q0 -9 -4 -24.5t-14 -35t-27.5 -40.5t-44.5 -42z" />
    <glyph glyph-name="uni1FE5" unicode="&#x1fe5;" horiz-adv-x="502" 
d="M231 69q49 0 80.5 24t50 61t25.5 81.5t7 84.5q0 55 -28.5 81t-73.5 26q-35 0 -64 -20t-49.5 -54.5t-31.5 -81.5t-11 -101q0 -19 5 -37t16.5 -31.5t29.5 -22.5t44 -10zM237 -6q-46 0 -76 18t-50 42l-4 -4l-49 -250h-80l90 466q9 46 26.5 88t46 74.5t68 52t92.5 19.5
q80 0 127.5 -47.5t47.5 -127.5q0 -71 -15 -132t-45 -105t-74.5 -69t-104.5 -25zM295 551q-23 26 -32.5 53.5t-9.5 49.5q0 26 10.5 47t29.5 36.5t44.5 26t54.5 15.5l13 -81q-24 -4 -39 -12t-23.5 -18t-11 -21.5t-2.5 -22.5q0 -13 3 -27t10 -27z" />
    <glyph glyph-name="uni1FE6" unicode="&#x1fe6;" horiz-adv-x="529" 
d="M260 707q18 0 36.5 -7.5t36.5 -16l34 -16t29 -7.5q15 0 29.5 10.5t34.5 34.5l46 -29q-26 -50 -56 -69.5t-62 -19.5q-18 0 -36.5 7t-36.5 15.5t-34.5 15.5t-31.5 7q-17 0 -30 -8.5t-36 -31.5l-43 26q28 48 59 68.5t61 20.5zM446 173q-16 -80 -71 -129.5t-141 -49.5
q-38 0 -70.5 10t-56 29.5t-36.5 47.5t-13 63q0 9 1 19t3 20l61 312h80l-58 -297q-3 -15 -3 -30q0 -44 25 -69.5t67 -25.5q57 0 91.5 34t45.5 91l58 297h80z" />
    <glyph glyph-name="uni1FE7" unicode="&#x1fe7;" horiz-adv-x="518" 
d="M446 173q-16 -80 -71 -129.5t-141 -49.5q-38 0 -70.5 10t-56 29.5t-36.5 47.5t-13 63q0 9 1 19t3 20l61 312h80l-58 -297q-3 -15 -3 -30q0 -44 25 -69.5t67 -25.5q57 0 91.5 34t45.5 91l58 297h80zM369 589l17 89h87l-17 -89h-87zM204 589l17 89h87l-17 -89h-87zM302 834
q18 0 36.5 -7.5t36.5 -16l34 -16t29 -7.5q15 0 29.5 10.5t34.5 34.5l46 -29q-26 -50 -56 -69.5t-62 -19.5q-18 0 -36.5 7t-36.5 15.5t-34.5 15.5t-31.5 7q-17 0 -30 -8.5t-36 -31.5l-43 26q28 48 59 68.5t61 20.5z" />
    <glyph glyph-name="uni1FE8" unicode="&#x1fe8;" horiz-adv-x="498" 
d="M303 275l-54 -275h-82l54 275l-124 421h86l58 -201l34 -130l91 139l129 192h94zM301 868q-5 -26 9.5 -44.5t46.5 -18.5q20 0 35 6t25 15.5t16 20.5t8 21h75q-4 -22 -15.5 -45t-31.5 -41.5t-50 -30.5t-71 -12q-39 0 -63.5 13t-38 32t-17 41.5t-0.5 42.5h72z" />
    <glyph glyph-name="uni1FE9" unicode="&#x1fe9;" horiz-adv-x="498" 
d="M303 275l-54 -275h-82l54 275l-124 421h86l58 -201l34 -130l91 139l129 192h94zM219 769l15 75h268l-15 -75h-268z" />
    <glyph glyph-name="uni1FEA" unicode="&#x1fea;" horiz-adv-x="498" 
d="M303 275l-54 -275h-82l54 275l-124 421h86l58 -201l34 -130l91 139l129 192h94zM-166 713l99 17l91 -210l-46 -16z" />
    <glyph glyph-name="uni1FEB" unicode="&#x1feb;" horiz-adv-x="498" 
d="M303 275l-54 -275h-82l54 275l-124 421h86l58 -201l34 -130l91 139l129 192h94zM-117 502l-43 16l123 210l92 -17z" />
    <glyph glyph-name="uni1FEC" unicode="&#x1fec;" horiz-adv-x="561" 
d="M121 0h-87l136 696h245q42 0 77 -11t60.5 -33.5t39.5 -55.5t14 -77q0 -53 -20.5 -97t-55 -75.5t-80.5 -49t-97 -17.5h-178zM516 508q0 54 -32.5 80.5t-83.5 26.5h-160l-49 -254h169q32 0 60.5 11t49.5 30.5t33.5 46.5t12.5 59zM-55 520q19 20 30 43t11 39q0 15 -11 28
t-43 18l45 81q45 -8 71 -29.5t26 -56.5q0 -9 -4 -24.5t-14 -35t-27.5 -40.5t-44.5 -42z" />
    <glyph glyph-name="uni1FF2" unicode="&#x1ff2;" horiz-adv-x="737" 
d="M583 495q70 -18 100 -58t30 -110q0 -66 -12.5 -126.5t-40 -106t-71 -72.5t-105.5 -27q-46 0 -81.5 18t-55.5 56q-29 -35 -67 -54.5t-84 -19.5q-40 0 -68.5 13t-47 35.5t-27 53t-8.5 66.5q0 68 14.5 127.5t43 104.5t70 72.5t95.5 31.5v-73q-35 -3 -62 -25t-45 -57.5
t-27 -80t-9 -91.5q0 -46 20.5 -73t63.5 -27q56 0 82 33.5t37 89.5l36 185h80l-36 -185q-3 -18 -3 -33q0 -43 24.5 -66t71.5 -23q31 0 55.5 19t41.5 52t26 77.5t9 94.5q0 45 -17 71t-55 35zM283 763l99 17l91 -210l-46 -16zM357 -67q-5 -28 -9.5 -46.5t-6.5 -28.5
q-4 -17 -4 -30q0 -33 41 -33h17l-14 -70h-28q-44 0 -70 17.5t-26 59.5q0 14 3 31l20 100h77z" />
    <glyph glyph-name="uni1FF3" unicode="&#x1ff3;" horiz-adv-x="737" 
d="M583 495q70 -18 100 -58t30 -110q0 -66 -12.5 -126.5t-40 -106t-71 -72.5t-105.5 -27q-46 0 -81.5 18t-55.5 56q-29 -35 -67 -54.5t-84 -19.5q-40 0 -68.5 13t-47 35.5t-27 53t-8.5 66.5q0 68 14.5 127.5t43 104.5t70 72.5t95.5 31.5v-73q-35 -3 -62 -25t-45 -57.5
t-27 -80t-9 -91.5q0 -46 20.5 -73t63.5 -27q56 0 82 33.5t37 89.5l36 185h80l-36 -185q-3 -18 -3 -33q0 -43 24.5 -66t71.5 -23q31 0 55.5 19t41.5 52t26 77.5t9 94.5q0 45 -17 71t-55 35zM357 -67q-5 -28 -9.5 -46.5t-6.5 -28.5q-4 -17 -4 -30q0 -33 41 -33h17l-14 -70h-28
q-44 0 -70 17.5t-26 59.5q0 14 3 31l20 100h77z" />
    <glyph glyph-name="uni1FF4" unicode="&#x1ff4;" horiz-adv-x="737" 
d="M583 495q70 -18 100 -58t30 -110q0 -66 -12.5 -126.5t-40 -106t-71 -72.5t-105.5 -27q-46 0 -81.5 18t-55.5 56q-29 -35 -67 -54.5t-84 -19.5q-40 0 -68.5 13t-47 35.5t-27 53t-8.5 66.5q0 68 14.5 127.5t43 104.5t70 72.5t95.5 31.5v-73q-35 -3 -62 -25t-45 -57.5
t-27 -80t-9 -91.5q0 -46 20.5 -73t63.5 -27q56 0 82 33.5t37 89.5l36 185h80l-36 -185q-3 -18 -3 -33q0 -43 24.5 -66t71.5 -23q31 0 55.5 19t41.5 52t26 77.5t9 94.5q0 45 -17 71t-55 35zM425 552l-43 16l123 210l92 -17zM357 -67q-5 -28 -9.5 -46.5t-6.5 -28.5
q-4 -17 -4 -30q0 -33 41 -33h17l-14 -70h-28q-44 0 -70 17.5t-26 59.5q0 14 3 31l20 100h77z" />
    <glyph glyph-name="uni1FF6" unicode="&#x1ff6;" horiz-adv-x="737" 
d="M583 495q70 -18 100 -58t30 -110q0 -66 -12.5 -126.5t-40 -106t-71 -72.5t-105.5 -27q-46 0 -81.5 18t-55.5 56q-29 -35 -67 -54.5t-84 -19.5q-40 0 -68.5 13t-47 35.5t-27 53t-8.5 66.5q0 68 14.5 127.5t43 104.5t70 72.5t95.5 31.5v-73q-35 -3 -62 -25t-45 -57.5
t-27 -80t-9 -91.5q0 -46 20.5 -73t63.5 -27q56 0 82 33.5t37 89.5l36 185h80l-36 -185q-3 -18 -3 -33q0 -43 24.5 -66t71.5 -23q31 0 55.5 19t41.5 52t26 77.5t9 94.5q0 45 -17 71t-55 35zM372 707q18 0 36.5 -7.5t36.5 -16l34 -16t29 -7.5q15 0 29.5 10.5t34.5 34.5l46 -29
q-26 -50 -56 -69.5t-62 -19.5q-18 0 -36.5 7t-36.5 15.5t-34.5 15.5t-31.5 7q-17 0 -30 -8.5t-36 -31.5l-43 26q28 48 59 68.5t61 20.5z" />
    <glyph glyph-name="uni1FF7" unicode="&#x1ff7;" horiz-adv-x="737" 
d="M583 495q70 -18 100 -58t30 -110q0 -66 -12.5 -126.5t-40 -106t-71 -72.5t-105.5 -27q-46 0 -81.5 18t-55.5 56q-29 -35 -67 -54.5t-84 -19.5q-40 0 -68.5 13t-47 35.5t-27 53t-8.5 66.5q0 68 14.5 127.5t43 104.5t70 72.5t95.5 31.5v-73q-35 -3 -62 -25t-45 -57.5
t-27 -80t-9 -91.5q0 -46 20.5 -73t63.5 -27q56 0 82 33.5t37 89.5l36 185h80l-36 -185q-3 -18 -3 -33q0 -43 24.5 -66t71.5 -23q31 0 55.5 19t41.5 52t26 77.5t9 94.5q0 45 -17 71t-55 35zM357 -67q-5 -28 -9.5 -46.5t-6.5 -28.5q-4 -17 -4 -30q0 -33 41 -33h17l-14 -70h-28
q-44 0 -70 17.5t-26 59.5q0 14 3 31l20 100h77zM372 707q18 0 36.5 -7.5t36.5 -16l34 -16t29 -7.5q15 0 29.5 10.5t34.5 34.5l46 -29q-26 -50 -56 -69.5t-62 -19.5q-18 0 -36.5 7t-36.5 15.5t-34.5 15.5t-31.5 7q-17 0 -30 -8.5t-36 -31.5l-43 26q28 48 59 68.5t61 20.5z
" />
    <glyph glyph-name="uni1FF8" unicode="&#x1ff8;" horiz-adv-x="579" 
d="M366 701q49 0 90 -15t70.5 -42t46 -64.5t16.5 -82.5q0 -24 -4.5 -54t-10.5 -62.5t-13.5 -65.5t-13.5 -63q-12 -58 -35.5 -105.5t-58.5 -81.5t-82 -52.5t-107 -18.5q-59 0 -100.5 16t-67.5 44t-38 65.5t-12 80.5q0 24 4.5 55.5t11 65t14.5 67t14 61.5q12 53 32.5 99
t53.5 80t79.5 53.5t110.5 19.5zM360 622q-47 0 -79.5 -16.5t-55 -42t-35 -58t-18.5 -63.5l-36 -185q-7 -36 -5 -69.5t17 -59t44.5 -41t78.5 -15.5q40 0 71.5 14.5t55 39t39.5 58.5t25 73l13 57t13 60t10 58t4 50q0 62 -36.5 101t-105.5 39zM-122 713l99 17l91 -210l-46 -16z
" />
    <glyph glyph-name="uni1FF9" unicode="&#x1ff9;" horiz-adv-x="579" 
d="M366 701q49 0 90 -15t70.5 -42t46 -64.5t16.5 -82.5q0 -24 -4.5 -54t-10.5 -62.5t-13.5 -65.5t-13.5 -63q-12 -58 -35.5 -105.5t-58.5 -81.5t-82 -52.5t-107 -18.5q-59 0 -100.5 16t-67.5 44t-38 65.5t-12 80.5q0 24 4.5 55.5t11 65t14.5 67t14 61.5q12 53 32.5 99
t53.5 80t79.5 53.5t110.5 19.5zM360 622q-47 0 -79.5 -16.5t-55 -42t-35 -58t-18.5 -63.5l-36 -185q-7 -36 -5 -69.5t17 -59t44.5 -41t78.5 -15.5q40 0 71.5 14.5t55 39t39.5 58.5t25 73l13 57t13 60t10 58t4 50q0 62 -36.5 101t-105.5 39zM-99 502l-43 16l123 210l92 -17z
" />
    <glyph glyph-name="uni1FFA" unicode="&#x1ffa;" horiz-adv-x="568" 
d="M322 95q53 17 87 64.5t47 110.5l35 166q7 34 3.5 68t-20 61t-45.5 44t-73 17q-42 0 -74.5 -16t-55.5 -42t-37 -59t-21 -66l-34 -173q-4 -20 -4 -45q0 -43 18.5 -78t57.5 -52l-19 -95h-205l15 81h104q-32 21 -44 56t-12 76q0 18 2 36.5t5 35.5l30 160q10 51 30 97.5
t53.5 82t81 56.5t112.5 21q64 0 109.5 -21.5t72.5 -57.5t36 -83t-1 -98l-32 -167q-6 -31 -14 -60t-20.5 -54t-30.5 -45.5t-43 -34.5h85l-15 -81h-202zM-116 713l99 17l91 -210l-46 -16z" />
    <glyph glyph-name="uni1FFB" unicode="&#x1ffb;" horiz-adv-x="568" 
d="M322 95q53 17 87 64.5t47 110.5l35 166q7 34 3.5 68t-20 61t-45.5 44t-73 17q-42 0 -74.5 -16t-55.5 -42t-37 -59t-21 -66l-34 -173q-4 -20 -4 -45q0 -43 18.5 -78t57.5 -52l-19 -95h-205l15 81h104q-32 21 -44 56t-12 76q0 18 2 36.5t5 35.5l30 160q10 51 30 97.5
t53.5 82t81 56.5t112.5 21q64 0 109.5 -21.5t72.5 -57.5t36 -83t-1 -98l-32 -167q-6 -31 -14 -60t-20.5 -54t-30.5 -45.5t-43 -34.5h85l-15 -81h-202zM-58 502l-43 16l123 210l92 -17z" />
    <glyph glyph-name="uniE24C" unicode="&#xe24c;" horiz-adv-x="586" 
d="M450 0l-24 160h-283l-86 -160h-93l385 696h77l114 -696h-90zM389 431l-20 158h-2l-79 -154l-106 -199h235zM79 514q19 20 30 43t11 39q0 15 -11 28t-43 18l45 81q45 -8 71 -29.5t26 -56.5q0 -9 -4 -24.5t-14 -35t-27.5 -40.5t-44.5 -42zM295 -67q-5 -28 -9.5 -46.5
t-6.5 -28.5q-4 -17 -4 -30q0 -33 41 -33h17l-14 -70h-28q-44 0 -70 17.5t-26 59.5q0 14 3 31l20 100h77z" />
    <glyph glyph-name="uniE24D" unicode="&#xe24d;" horiz-adv-x="586" 
d="M450 0l-24 160h-283l-86 -160h-93l385 696h77l114 -696h-90zM389 431l-20 158h-2l-79 -154l-106 -199h235zM77 496q-23 26 -32.5 53.5t-9.5 49.5q0 26 10.5 47t29.5 36.5t44.5 26t54.5 15.5l13 -81q-24 -4 -39 -12t-23.5 -18t-11 -21.5t-2.5 -22.5q0 -13 3 -27t10 -27z
M295 -67q-5 -28 -9.5 -46.5t-6.5 -28.5q-4 -17 -4 -30q0 -33 41 -33h17l-14 -70h-28q-44 0 -70 17.5t-26 59.5q0 14 3 31l20 100h77z" />
    <glyph glyph-name="uniE24E" unicode="&#xe24e;" horiz-adv-x="586" 
d="M450 0l-24 160h-283l-86 -160h-93l385 696h77l114 -696h-90zM389 431l-20 158h-2l-79 -154l-106 -199h235zM-123 515q19 20 30 43t11 39q0 15 -11 28t-43 18l45 81q45 -8 71 -29.5t26 -56.5q0 -9 -4 -24.5t-14 -35t-27.5 -40.5t-44.5 -42zM8 707l99 17l91 -210l-46 -16z
M295 -67q-5 -28 -9.5 -46.5t-6.5 -28.5q-4 -17 -4 -30q0 -33 41 -33h17l-14 -70h-28q-44 0 -70 17.5t-26 59.5q0 14 3 31l20 100h77z" />
    <glyph glyph-name="uniE24F" unicode="&#xe24f;" horiz-adv-x="586" 
d="M450 0l-24 160h-283l-86 -160h-93l385 696h77l114 -696h-90zM389 431l-20 158h-2l-79 -154l-106 -199h235zM-117 490q-23 26 -32.5 53.5t-9.5 49.5q0 26 10.5 47t29.5 36.5t44.5 26t54.5 15.5l13 -81q-24 -4 -39 -12t-23.5 -18t-11 -21.5t-2.5 -22.5q0 -13 3 -27t10 -27z
M0 708l99 17l91 -210l-46 -16zM295 -67q-5 -28 -9.5 -46.5t-6.5 -28.5q-4 -17 -4 -30q0 -33 41 -33h17l-14 -70h-28q-44 0 -70 17.5t-26 59.5q0 14 3 31l20 100h77z" />
    <glyph glyph-name="uniE250" unicode="&#xe250;" horiz-adv-x="586" 
d="M450 0l-24 160h-283l-86 -160h-93l385 696h77l114 -696h-90zM389 431l-20 158h-2l-79 -154l-106 -199h235zM-92 512q20 21 30 43.5t10 39.5q0 15 -10.5 27.5t-42.5 17.5l44 81q45 -8 71.5 -29.5t26.5 -57.5q0 -10 -4 -25.5t-14.5 -34.5t-27.5 -40t-44 -41zM74 495l-43 16
l123 210l92 -17zM295 -67q-5 -28 -9.5 -46.5t-6.5 -28.5q-4 -17 -4 -30q0 -33 41 -33h17l-14 -70h-28q-44 0 -70 17.5t-26 59.5q0 14 3 31l20 100h77z" />
    <glyph glyph-name="uniE251" unicode="&#xe251;" horiz-adv-x="586" 
d="M450 0l-24 160h-283l-86 -160h-93l385 696h77l114 -696h-90zM389 431l-20 158h-2l-79 -154l-106 -199h235zM-54 495q-23 26 -32.5 53t-9.5 49q0 27 10.5 48t29 36.5t44 26t54.5 15.5l14 -81q-47 -8 -62 -28.5t-15 -42.5q0 -14 3.5 -29t10.5 -28zM74 499l-43 16l131 210
l92 -17zM295 -67q-5 -28 -9.5 -46.5t-6.5 -28.5q-4 -17 -4 -30q0 -33 41 -33h17l-14 -70h-28q-44 0 -70 17.5t-26 59.5q0 14 3 31l20 100h77z" />
    <glyph glyph-name="uniE252" unicode="&#xe252;" horiz-adv-x="586" 
d="M450 0l-24 160h-283l-86 -160h-93l385 696h77l114 -696h-90zM389 431l-20 158h-2l-79 -154l-106 -199h235zM-24 438q21 19 33 37.5t12 31.5q0 12 -11.5 20t-41.5 13l41 65q43 -6 67.5 -22t24.5 -43q0 -8 -3.5 -20t-13 -27t-26.5 -33t-44 -37zM-5 731q18 0 36.5 -7.5
t36.5 -16l34 -16t29 -7.5q15 0 29.5 10.5t34.5 34.5l46 -29q-26 -50 -56 -69.5t-62 -19.5q-18 0 -36.5 7t-36.5 15.5t-34.5 15.5t-31.5 7q-17 0 -30 -8.5t-36 -31.5l-43 26q28 48 59 68.5t61 20.5zM295 -67q-5 -28 -9.5 -46.5t-6.5 -28.5q-4 -17 -4 -30q0 -33 41 -33h17
l-14 -70h-28q-44 0 -70 17.5t-26 59.5q0 14 3 31l20 100h77z" />
    <glyph glyph-name="uniE253" unicode="&#xe253;" horiz-adv-x="586" 
d="M450 0l-24 160h-283l-86 -160h-93l385 696h77l114 -696h-90zM389 431l-20 158h-2l-79 -154l-106 -199h235zM-11 423q-26 26 -35 49.5t-9 40.5q0 39 32 61.5t89 30.5l15 -65q-41 -6 -54.5 -18.5t-13.5 -30.5q0 -25 20 -53zM-22 735q18 0 36.5 -7.5t36.5 -16l34 -16
t29 -7.5q15 0 29.5 10.5t34.5 34.5l46 -29q-26 -50 -56 -69.5t-62 -19.5q-18 0 -36.5 7t-36.5 15.5t-34.5 15.5t-31.5 7q-17 0 -30 -8.5t-36 -31.5l-43 26q28 48 59 68.5t61 20.5zM295 -67q-5 -28 -9.5 -46.5t-6.5 -28.5q-4 -17 -4 -30q0 -33 41 -33h17l-14 -70h-28
q-44 0 -70 17.5t-26 59.5q0 14 3 31l20 100h77z" />
    <glyph glyph-name="uniE254" unicode="&#xe254;" horiz-adv-x="623" 
d="M423 0l60 313h-301l-61 -313h-87l136 696h86l-59 -306h301l60 306h86l-135 -696h-86zM-37 520q19 20 30 43t11 39q0 15 -11 28t-43 18l45 81q45 -8 71 -29.5t26 -56.5q0 -9 -4 -24.5t-14 -35t-27.5 -40.5t-44.5 -42zM305 -67q-5 -28 -9.5 -46.5t-6.5 -28.5q-4 -17 -4 -30
q0 -33 41 -33h17l-14 -70h-28q-44 0 -70 17.5t-26 59.5q0 14 3 31l20 100h77z" />
    <glyph glyph-name="uniE255" unicode="&#xe255;" horiz-adv-x="623" 
d="M423 0l60 313h-301l-61 -313h-87l136 696h86l-59 -306h301l60 306h86l-135 -696h-86zM-39 501q-23 26 -32.5 53.5t-9.5 49.5q0 26 10.5 47t29.5 36.5t44.5 26t54.5 15.5l13 -81q-24 -4 -39 -12t-23.5 -18t-11 -21.5t-2.5 -22.5q0 -13 3 -27t10 -27zM305 -67
q-5 -28 -9.5 -46.5t-6.5 -28.5q-4 -17 -4 -30q0 -33 41 -33h17l-14 -70h-28q-44 0 -70 17.5t-26 59.5q0 14 3 31l20 100h77z" />
    <glyph glyph-name="uniE256" unicode="&#xe256;" horiz-adv-x="623" 
d="M423 0l60 313h-301l-61 -313h-87l136 696h86l-59 -306h301l60 306h86l-135 -696h-86zM-227 521q19 20 30 43t11 39q0 15 -11 28t-43 18l45 81q45 -8 71 -29.5t26 -56.5q0 -9 -4 -24.5t-14 -35t-27.5 -40.5t-44.5 -42zM-96 713l99 17l91 -210l-46 -16zM305 -67
q-5 -28 -9.5 -46.5t-6.5 -28.5q-4 -17 -4 -30q0 -33 41 -33h17l-14 -70h-28q-44 0 -70 17.5t-26 59.5q0 14 3 31l20 100h77z" />
    <glyph glyph-name="uniE257" unicode="&#xe257;" horiz-adv-x="623" 
d="M423 0l60 313h-301l-61 -313h-87l136 696h86l-59 -306h301l60 306h86l-135 -696h-86zM-216 495q-23 26 -32.5 53.5t-9.5 49.5q0 26 10.5 47t29.5 36.5t44.5 26t54.5 15.5l13 -81q-24 -4 -39 -12t-23.5 -18t-11 -21.5t-2.5 -22.5q0 -13 3 -27t10 -27zM-99 713l99 17
l91 -210l-46 -16zM305 -67q-5 -28 -9.5 -46.5t-6.5 -28.5q-4 -17 -4 -30q0 -33 41 -33h17l-14 -70h-28q-44 0 -70 17.5t-26 59.5q0 14 3 31l20 100h77z" />
    <glyph glyph-name="uniE258" unicode="&#xe258;" horiz-adv-x="623" 
d="M423 0l60 313h-301l-61 -313h-87l136 696h86l-59 -306h301l60 306h86l-135 -696h-86zM-209 519q20 21 30 43.5t10 39.5q0 15 -10.5 27.5t-42.5 17.5l44 81q45 -8 71.5 -29.5t26.5 -57.5q0 -10 -4 -25.5t-14.5 -34.5t-27.5 -40t-44 -41zM-43 502l-43 16l123 210l92 -17z
M305 -67q-5 -28 -9.5 -46.5t-6.5 -28.5q-4 -17 -4 -30q0 -33 41 -33h17l-14 -70h-28q-44 0 -70 17.5t-26 59.5q0 14 3 31l20 100h77z" />
    <glyph glyph-name="uniE259" unicode="&#xe259;" horiz-adv-x="623" 
d="M423 0l60 313h-301l-61 -313h-87l136 696h86l-59 -306h301l60 306h86l-135 -696h-86zM-184 500q-23 26 -32.5 53t-9.5 49q0 27 10.5 48t29 36.5t44 26t54.5 15.5l14 -81q-47 -8 -62 -28.5t-15 -42.5q0 -14 3.5 -29t10.5 -28zM-56 504l-43 16l131 210l92 -17zM305 -67
q-5 -28 -9.5 -46.5t-6.5 -28.5q-4 -17 -4 -30q0 -33 41 -33h17l-14 -70h-28q-44 0 -70 17.5t-26 59.5q0 14 3 31l20 100h77z" />
    <glyph glyph-name="uniE25A" unicode="&#xe25a;" horiz-adv-x="623" 
d="M423 0l60 313h-301l-61 -313h-87l136 696h86l-59 -306h301l60 306h86l-135 -696h-86zM-161 439q21 19 33 37.5t12 31.5q0 12 -11.5 20t-41.5 13l41 65q43 -6 67.5 -22t24.5 -43q0 -8 -3.5 -20t-13 -27t-26.5 -33t-44 -37zM-142 732q18 0 36.5 -7.5t36.5 -16l34 -16
t29 -7.5q15 0 29.5 10.5t34.5 34.5l46 -29q-26 -50 -56 -69.5t-62 -19.5q-18 0 -36.5 7t-36.5 15.5t-34.5 15.5t-31.5 7q-17 0 -30 -8.5t-36 -31.5l-43 26q28 48 59 68.5t61 20.5zM305 -67q-5 -28 -9.5 -46.5t-6.5 -28.5q-4 -17 -4 -30q0 -33 41 -33h17l-14 -70h-28
q-44 0 -70 17.5t-26 59.5q0 14 3 31l20 100h77z" />
    <glyph glyph-name="uniE25B" unicode="&#xe25b;" horiz-adv-x="623" 
d="M423 0l60 313h-301l-61 -313h-87l136 696h86l-59 -306h301l60 306h86l-135 -696h-86zM-152 423q-26 26 -35 49.5t-9 40.5q0 39 32 61.5t89 30.5l15 -65q-41 -6 -54.5 -18.5t-13.5 -30.5q0 -25 20 -53zM-163 735q18 0 36.5 -7.5t36.5 -16l34 -16t29 -7.5q15 0 29.5 10.5
t34.5 34.5l46 -29q-26 -50 -56 -69.5t-62 -19.5q-18 0 -36.5 7t-36.5 15.5t-34.5 15.5t-31.5 7q-17 0 -30 -8.5t-36 -31.5l-43 26q28 48 59 68.5t61 20.5zM305 -67q-5 -28 -9.5 -46.5t-6.5 -28.5q-4 -17 -4 -30q0 -33 41 -33h17l-14 -70h-28q-44 0 -70 17.5t-26 59.5
q0 14 3 31l20 100h77z" />
    <glyph glyph-name="uniE25C" unicode="&#xe25c;" horiz-adv-x="568" 
d="M322 95q53 17 87 64.5t47 110.5l35 166q7 34 3.5 68t-20 61t-45.5 44t-73 17q-42 0 -74.5 -16t-55.5 -42t-37 -59t-21 -66l-34 -173q-4 -20 -4 -45q0 -43 18.5 -78t57.5 -52l-19 -95h-205l15 81h104q-32 21 -44 56t-12 76q0 18 2 36.5t5 35.5l30 160q10 51 30 97.5
t53.5 82t81 56.5t112.5 21q64 0 109.5 -21.5t72.5 -57.5t36 -83t-1 -98l-32 -167q-6 -31 -14 -60t-20.5 -54t-30.5 -45.5t-43 -34.5h85l-15 -81h-202zM-41 520q19 20 30 43t11 39q0 15 -11 28t-43 18l45 81q45 -8 71 -29.5t26 -56.5q0 -9 -4 -24.5t-14 -35t-27.5 -40.5
t-44.5 -42zM275 -67q-5 -28 -9.5 -46.5t-6.5 -28.5q-4 -17 -4 -30q0 -33 41 -33h17l-14 -70h-28q-44 0 -70 17.5t-26 59.5q0 14 3 31l20 100h77z" />
    <glyph glyph-name="uniE25D" unicode="&#xe25d;" horiz-adv-x="568" 
d="M322 95q53 17 87 64.5t47 110.5l35 166q7 34 3.5 68t-20 61t-45.5 44t-73 17q-42 0 -74.5 -16t-55.5 -42t-37 -59t-21 -66l-34 -173q-4 -20 -4 -45q0 -43 18.5 -78t57.5 -52l-19 -95h-205l15 81h104q-32 21 -44 56t-12 76q0 18 2 36.5t5 35.5l30 160q10 51 30 97.5
t53.5 82t81 56.5t112.5 21q64 0 109.5 -21.5t72.5 -57.5t36 -83t-1 -98l-32 -167q-6 -31 -14 -60t-20.5 -54t-30.5 -45.5t-43 -34.5h85l-15 -81h-202zM-39 501q-23 26 -32.5 53.5t-9.5 49.5q0 26 10.5 47t29.5 36.5t44.5 26t54.5 15.5l13 -81q-24 -4 -39 -12t-23.5 -18
t-11 -21.5t-2.5 -22.5q0 -13 3 -27t10 -27zM275 -67q-5 -28 -9.5 -46.5t-6.5 -28.5q-4 -17 -4 -30q0 -33 41 -33h17l-14 -70h-28q-44 0 -70 17.5t-26 59.5q0 14 3 31l20 100h77z" />
    <glyph glyph-name="uniE25E" unicode="&#xe25e;" horiz-adv-x="568" 
d="M322 95q53 17 87 64.5t47 110.5l35 166q7 34 3.5 68t-20 61t-45.5 44t-73 17q-42 0 -74.5 -16t-55.5 -42t-37 -59t-21 -66l-34 -173q-4 -20 -4 -45q0 -43 18.5 -78t57.5 -52l-19 -95h-205l15 81h104q-32 21 -44 56t-12 76q0 18 2 36.5t5 35.5l30 160q10 51 30 97.5
t53.5 82t81 56.5t112.5 21q64 0 109.5 -21.5t72.5 -57.5t36 -83t-1 -98l-32 -167q-6 -31 -14 -60t-20.5 -54t-30.5 -45.5t-43 -34.5h85l-15 -81h-202zM-277 521q19 20 30 43t11 39q0 15 -11 28t-43 18l45 81q45 -8 71 -29.5t26 -56.5q0 -9 -4 -24.5t-14 -35t-27.5 -40.5
t-44.5 -42zM-146 713l99 17l91 -210l-46 -16zM275 -67q-5 -28 -9.5 -46.5t-6.5 -28.5q-4 -17 -4 -30q0 -33 41 -33h17l-14 -70h-28q-44 0 -70 17.5t-26 59.5q0 14 3 31l20 100h77z" />
    <glyph glyph-name="uniE25F" unicode="&#xe25f;" horiz-adv-x="568" 
d="M322 95q53 17 87 64.5t47 110.5l35 166q7 34 3.5 68t-20 61t-45.5 44t-73 17q-42 0 -74.5 -16t-55.5 -42t-37 -59t-21 -66l-34 -173q-4 -20 -4 -45q0 -43 18.5 -78t57.5 -52l-19 -95h-205l15 81h104q-32 21 -44 56t-12 76q0 18 2 36.5t5 35.5l30 160q10 51 30 97.5
t53.5 82t81 56.5t112.5 21q64 0 109.5 -21.5t72.5 -57.5t36 -83t-1 -98l-32 -167q-6 -31 -14 -60t-20.5 -54t-30.5 -45.5t-43 -34.5h85l-15 -81h-202zM-257 495q-23 26 -32.5 53.5t-9.5 49.5q0 26 10.5 47t29.5 36.5t44.5 26t54.5 15.5l13 -81q-24 -4 -39 -12t-23.5 -18
t-11 -21.5t-2.5 -22.5q0 -13 3 -27t10 -27zM-140 713l99 17l91 -210l-46 -16zM275 -67q-5 -28 -9.5 -46.5t-6.5 -28.5q-4 -17 -4 -30q0 -33 41 -33h17l-14 -70h-28q-44 0 -70 17.5t-26 59.5q0 14 3 31l20 100h77z" />
    <glyph glyph-name="uniE260" unicode="&#xe260;" horiz-adv-x="568" 
d="M322 95q53 17 87 64.5t47 110.5l35 166q7 34 3.5 68t-20 61t-45.5 44t-73 17q-42 0 -74.5 -16t-55.5 -42t-37 -59t-21 -66l-34 -173q-4 -20 -4 -45q0 -43 18.5 -78t57.5 -52l-19 -95h-205l15 81h104q-32 21 -44 56t-12 76q0 18 2 36.5t5 35.5l30 160q10 51 30 97.5
t53.5 82t81 56.5t112.5 21q64 0 109.5 -21.5t72.5 -57.5t36 -83t-1 -98l-32 -167q-6 -31 -14 -60t-20.5 -54t-30.5 -45.5t-43 -34.5h85l-15 -81h-202zM-167 519q20 21 30 43.5t10 39.5q0 15 -10.5 27.5t-42.5 17.5l44 81q45 -8 71.5 -29.5t26.5 -57.5q0 -10 -4 -25.5
t-14.5 -34.5t-27.5 -40t-44 -41zM-1 502l-43 16l123 210l92 -17zM275 -67q-5 -28 -9.5 -46.5t-6.5 -28.5q-4 -17 -4 -30q0 -33 41 -33h17l-14 -70h-28q-44 0 -70 17.5t-26 59.5q0 14 3 31l20 100h77z" />
    <glyph glyph-name="uniE261" unicode="&#xe261;" horiz-adv-x="568" 
d="M322 95q53 17 87 64.5t47 110.5l35 166q7 34 3.5 68t-20 61t-45.5 44t-73 17q-42 0 -74.5 -16t-55.5 -42t-37 -59t-21 -66l-34 -173q-4 -20 -4 -45q0 -43 18.5 -78t57.5 -52l-19 -95h-205l15 81h104q-32 21 -44 56t-12 76q0 18 2 36.5t5 35.5l30 160q10 51 30 97.5
t53.5 82t81 56.5t112.5 21q64 0 109.5 -21.5t72.5 -57.5t36 -83t-1 -98l-32 -167q-6 -31 -14 -60t-20.5 -54t-30.5 -45.5t-43 -34.5h85l-15 -81h-202zM-126 500q-23 26 -32.5 53t-9.5 49q0 27 10.5 48t29 36.5t44 26t54.5 15.5l14 -81q-47 -8 -62 -28.5t-15 -42.5
q0 -14 3.5 -29t10.5 -28zM2 504l-43 16l131 210l92 -17zM275 -67q-5 -28 -9.5 -46.5t-6.5 -28.5q-4 -17 -4 -30q0 -33 41 -33h17l-14 -70h-28q-44 0 -70 17.5t-26 59.5q0 14 3 31l20 100h77z" />
    <glyph glyph-name="uniE262" unicode="&#xe262;" horiz-adv-x="568" 
d="M322 95q53 17 87 64.5t47 110.5l35 166q7 34 3.5 68t-20 61t-45.5 44t-73 17q-42 0 -74.5 -16t-55.5 -42t-37 -59t-21 -66l-34 -173q-4 -20 -4 -45q0 -43 18.5 -78t57.5 -52l-19 -95h-205l15 81h104q-32 21 -44 56t-12 76q0 18 2 36.5t5 35.5l30 160q10 51 30 97.5
t53.5 82t81 56.5t112.5 21q64 0 109.5 -21.5t72.5 -57.5t36 -83t-1 -98l-32 -167q-6 -31 -14 -60t-20.5 -54t-30.5 -45.5t-43 -34.5h85l-15 -81h-202zM-113 437q21 19 33 37.5t12 31.5q0 12 -11.5 20t-41.5 13l41 65q43 -6 67.5 -22t24.5 -43q0 -8 -3.5 -20t-13 -27
t-26.5 -33t-44 -37zM-94 730q18 0 36.5 -7.5t36.5 -16l34 -16t29 -7.5q15 0 29.5 10.5t34.5 34.5l46 -29q-26 -50 -56 -69.5t-62 -19.5q-18 0 -36.5 7t-36.5 15.5t-34.5 15.5t-31.5 7q-17 0 -30 -8.5t-36 -31.5l-43 26q28 48 59 68.5t61 20.5zM275 -67q-5 -28 -9.5 -46.5
t-6.5 -28.5q-4 -17 -4 -30q0 -33 41 -33h17l-14 -70h-28q-44 0 -70 17.5t-26 59.5q0 14 3 31l20 100h77z" />
    <glyph glyph-name="uniE263" unicode="&#xe263;" horiz-adv-x="568" 
d="M322 95q53 17 87 64.5t47 110.5l35 166q7 34 3.5 68t-20 61t-45.5 44t-73 17q-42 0 -74.5 -16t-55.5 -42t-37 -59t-21 -66l-34 -173q-4 -20 -4 -45q0 -43 18.5 -78t57.5 -52l-19 -95h-205l15 81h104q-32 21 -44 56t-12 76q0 18 2 36.5t5 35.5l30 160q10 51 30 97.5
t53.5 82t81 56.5t112.5 21q64 0 109.5 -21.5t72.5 -57.5t36 -83t-1 -98l-32 -167q-6 -31 -14 -60t-20.5 -54t-30.5 -45.5t-43 -34.5h85l-15 -81h-202zM-102 422q-26 26 -35 49.5t-9 40.5q0 39 32 61.5t89 30.5l15 -65q-41 -6 -54.5 -18.5t-13.5 -30.5q0 -25 20 -53z
M-113 734q18 0 36.5 -7.5t36.5 -16l34 -16t29 -7.5q15 0 29.5 10.5t34.5 34.5l46 -29q-26 -50 -56 -69.5t-62 -19.5q-18 0 -36.5 7t-36.5 15.5t-34.5 15.5t-31.5 7q-17 0 -30 -8.5t-36 -31.5l-43 26q28 48 59 68.5t61 20.5zM275 -67q-5 -28 -9.5 -46.5t-6.5 -28.5
q-4 -17 -4 -30q0 -33 41 -33h17l-14 -70h-28q-44 0 -70 17.5t-26 59.5q0 14 3 31l20 100h77z" />
    <glyph glyph-name="uniE264" unicode="&#xe264;" horiz-adv-x="586" 
d="M450 0l-24 160h-283l-86 -160h-93l385 696h77l114 -696h-90zM389 431l-20 158h-2l-79 -154l-106 -199h235zM295 -67q-5 -28 -9.5 -46.5t-6.5 -28.5q-4 -17 -4 -30q0 -33 41 -33h17l-14 -70h-28q-44 0 -70 17.5t-26 59.5q0 14 3 31l20 100h77z" />
    <glyph glyph-name="uniE265" unicode="&#xe265;" horiz-adv-x="623" 
d="M423 0l60 313h-301l-61 -313h-87l136 696h86l-59 -306h301l60 306h86l-135 -696h-86zM305 -67q-5 -28 -9.5 -46.5t-6.5 -28.5q-4 -17 -4 -30q0 -33 41 -33h17l-14 -70h-28q-44 0 -70 17.5t-26 59.5q0 14 3 31l20 100h77z" />
    <glyph glyph-name="uniE266" unicode="&#xe266;" horiz-adv-x="568" 
d="M322 95q53 17 87 64.5t47 110.5l35 166q7 34 3.5 68t-20 61t-45.5 44t-73 17q-42 0 -74.5 -16t-55.5 -42t-37 -59t-21 -66l-34 -173q-4 -20 -4 -45q0 -43 18.5 -78t57.5 -52l-19 -95h-205l15 81h104q-32 21 -44 56t-12 76q0 18 2 36.5t5 35.5l30 160q10 51 30 97.5
t53.5 82t81 56.5t112.5 21q64 0 109.5 -21.5t72.5 -57.5t36 -83t-1 -98l-32 -167q-6 -31 -14 -60t-20.5 -54t-30.5 -45.5t-43 -34.5h85l-15 -81h-202zM275 -67q-5 -28 -9.5 -46.5t-6.5 -28.5q-4 -17 -4 -30q0 -33 41 -33h17l-14 -70h-28q-44 0 -70 17.5t-26 59.5q0 14 3 31
l20 100h77z" />
    <glyph glyph-name="fraction" unicode="&#x2044;" horiz-adv-x="150" 
d="M-189 -17h-71l567 730h72z" />
    <glyph glyph-name="fraction" unicode="&#x2215;" horiz-adv-x="150" 
d="M-189 -17h-71l567 730h72z" />
    <glyph glyph-name="afii61248" unicode="&#x2105;" horiz-adv-x="765" 
d="M590 357q58 0 93 -34.5t35 -93.5q0 -40 -8.5 -81.5t-29 -75t-53.5 -55t-81 -21.5q-63 0 -96.5 32t-33.5 92q0 47 10.5 90t32 75.5t54 52t77.5 19.5zM584 293q-29 0 -48.5 -17t-31 -42.5t-16.5 -55t-5 -53.5q0 -9 2.5 -20.5t9.5 -21t19 -16t31 -6.5q29 0 48.5 15t31.5 39
t17 53t5 58q0 35 -17.5 51t-45.5 16zM286 710q31 0 62 -14t53 -42l-54 -50q-14 17 -32 27t-36 10q-30 0 -51.5 -13t-35 -34t-19.5 -47t-6 -52q0 -38 16.5 -58t54.5 -20q17 0 40 12.5t39 23.5l39 -51q-30 -27 -63.5 -40.5t-67.5 -13.5q-66 0 -97 38.5t-31 101.5q0 43 12 83
t35.5 71t59 49.5t82.5 18.5zM144 -17h-65l567 730h66z" />
    <glyph glyph-name="afii61289" unicode="&#x2113;" horiz-adv-x="504" 
d="M444 137q-42 -67 -94.5 -107t-112.5 -40q-30 0 -54.5 10t-41.5 28t-26 42t-9 52q0 4 0.5 9t2 15l4 25.5t7.5 41.5l-66 -39l-17 35l92 58l45 227q12 59 31.5 100.5t45.5 67.5t56 37.5t63 11.5q39 0 68 -23t29 -71q0 -50 -19.5 -94.5t-55 -87.5t-85 -88l-108.5 -96
q-8 -40 -12 -66.5t-4 -36.5q0 -26 6.5 -44t17.5 -29t25 -16t28 -5q32 0 67 26t68 80zM213 321l75 77.5t61 71t41 68.5t15 71q0 18 -10 34t-39 16q-14 0 -29.5 -8.5t-30 -26.5t-27 -46t-19.5 -67z" />
    <glyph glyph-name="afii61352" unicode="&#x2116;" horiz-adv-x="920" 
d="M624 266l12 61h250l-12 -61h-250zM402 0l-128 392l-44 146h-3l-104 -538h-88l135 696h87l131 -379l44 -140h3l101 519h87l-135 -696h-86zM812 706q57 0 91 -31.5t35 -85.5q1 -38 -7 -76.5t-27 -69.5t-51 -51t-79 -20q-62 0 -95.5 29.5t-34.5 84.5q-1 44 9 84t30.5 70
t52.5 48t76 18zM807 650q-29 0 -48 -16.5t-30.5 -40.5t-16 -52t-4.5 -51q0 -9 2.5 -19.5t9.5 -19.5t19.5 -15.5t31.5 -6.5q29 0 49 14.5t31.5 37t16.5 50.5t4 55q0 32 -18.5 48t-46.5 16z" />
    <glyph glyph-name="estimated" unicode="&#x212e;" horiz-adv-x="817" 
d="M195 316q0 -45 0.5 -92t0.5 -92q16 -26 40 -47t52.5 -36t60.5 -23.5t64 -8.5q66 0 123 29t97 79h62q-51 -63 -125 -99.5t-158 -36.5q-72 0 -136 27t-112 73.5t-75.5 108.5t-27.5 131t27.5 129.5t75.5 105.5t112 71t136 26q74 0 137 -26t109.5 -71.5t74 -109t30.5 -138.5
h-568zM627 521q-15 25 -39 46t-52.5 35.5t-60.5 22.5t-62 8q-57 0 -114.5 -31.5t-102.5 -84.5v-40t-0.5 -47.5t-0.5 -48v-39.5h432v179z" />
    <glyph glyph-name="partialdiff" unicode="&#x2202;" horiz-adv-x="530" 
d="M125 218q-6 -33 -2.5 -62t15.5 -50.5t33.5 -34t53.5 -12.5q40 0 72.5 21.5t57 56t41.5 76.5t27 84q-33 45 -69.5 64t-68.5 19q-30 0 -56.5 -14t-47.5 -37t-35.5 -52t-20.5 -59zM45 216q10 52 34 94t57 71t73 45t82 16q39 0 75 -15t72 -50q3 24 5 45.5t2 41.5
q0 95 -38 144t-117 49q-16 0 -33 -1.5t-35 -6.5l12 63q40 9 77 9q60 0 100.5 -22.5t65.5 -60t36 -85.5t11 -99q0 -100 -26 -185t-70 -147t-101 -97t-119 -35q-48 0 -83 17.5t-56 47.5t-27 71.5t3 89.5z" />
    <glyph glyph-name="gradient" unicode="&#x2207;" horiz-adv-x="598" 
d="M687 696l-390 -696h-76l-120 696h586zM552 619h-347l52 -350l20 -162h3l84 161z" />
    <glyph glyph-name="product" unicode="&#x220f;" horiz-adv-x="636" 
d="M415 -83l137 702h-308l-137 -702h-88l152 779h484l-152 -779h-88z" />
    <glyph glyph-name="summation" unicode="&#x2211;" horiz-adv-x="505" 
d="M-23 -81l15 77l228 311l-105 319l14 70h427l-15 -77h-324l106 -312l-228 -307h338l-16 -81h-440z" />
    <glyph glyph-name="minus" unicode="&#x2212;" horiz-adv-x="500" 
d="M38 262l13 64h441l-13 -64h-441z" />
    <glyph glyph-name="radical" unicode="&#x221a;" horiz-adv-x="562" 
d="M288 -81h-68l-78 413l-75 -23l-10 57l147 45l68 -375l322 761h75z" />
    <glyph glyph-name="infinity" unicode="&#x221e;" horiz-adv-x="728" 
d="M196 426q27 0 52.5 -10t47.5 -26.5t40 -36.5t31 -40q18 23 37 43.5t40.5 36t46.5 24.5t55 9q31 0 58 -11.5t47 -32t31 -48.5t11 -62q0 -31 -12 -59t-33 -49.5t-49.5 -34t-61.5 -12.5q-26 0 -49.5 10t-45 26t-40.5 36t-35 40q-18 -22 -37 -42t-40.5 -35.5t-46.5 -25
t-55 -9.5q-31 0 -58 11.5t-47 32t-31.5 49t-11.5 62.5q0 31 12.5 59t33.5 49t49.5 33.5t60.5 12.5zM196 364q-18 0 -35 -7.5t-30 -20t-21 -29t-8 -35.5q0 -40 27.5 -66.5t64.5 -26.5q42 0 76 27t56 65q-9 16 -23 32.5t-31 30t-36 22t-40 8.5zM542 364q-42 0 -74.5 -26.5
t-61.5 -65.5l29.5 -35t30.5 -29.5t34 -20.5t39 -8q18 0 35 7.5t29.5 20t20 29.5t7.5 36q0 40 -26.5 66t-62.5 26z" />
    <glyph glyph-name="logicaland" unicode="&#x2227;" horiz-adv-x="530" 
d="M455 0h-74l-74 417l-237 -417h-72l298 523h63z" />
    <glyph glyph-name="logicalor" unicode="&#x2228;" horiz-adv-x="530" 
d="M556 523l-298 -523h-63l-96 523h72l75 -420l236 420h74z" />
    <glyph glyph-name="intersection" unicode="&#x2229;" horiz-adv-x="530" 
d="M452 0h-72l61 314q5 27 -0.5 53t-22 46t-43 32t-63.5 12q-36 0 -67 -11t-54.5 -30.5t-38.5 -45.5t-21 -56l-61 -314h-69l61 314q8 41 28.5 79t53 66.5t75.5 45.5t96 17t93.5 -15.5t67 -43.5t36.5 -66t1 -83z" />
    <glyph glyph-name="union" unicode="&#x222a;" horiz-adv-x="530" 
d="M492 208q-9 -45 -30.5 -83t-54.5 -66t-76.5 -43.5t-96.5 -15.5t-92.5 17t-64.5 45.5t-34.5 66.5t-1.5 79l61 314h69l-61 -314q-6 -30 -0.5 -56t21.5 -45t42.5 -30t62.5 -11q37 0 68 12t55 32t40 45.5t21 52.5l61 314h72z" />
    <glyph glyph-name="integral" unicode="&#x222b;" horiz-adv-x="316" 
d="M91 79q15 60 33.5 148t41.5 214q8 45 16.5 82t16.5 67q25 94 63.5 139.5t108.5 45.5q14 0 34.5 -3.5t34.5 -9.5l-21 -59q-14 5 -26 6.5t-20 1.5q-17 0 -32 -7t-28.5 -26t-26 -51t-25.5 -83q-7 -28 -15.5 -74l-17.5 -97.5l-18.5 -102.5t-18.5 -89l-17.5 -79t-19.5 -69
q-16 -53 -33 -88.5t-37.5 -57t-46.5 -30.5t-60 -9q-14 0 -31.5 3t-30.5 9l19 58q20 -5 29.5 -5.5t17.5 -0.5q16 0 31 7t28.5 26t26 51t24.5 83z" />
    <glyph glyph-name="approxequal" unicode="&#x2248;" horiz-adv-x="500" 
d="M509 389q-36 -45 -71.5 -68t-81.5 -23q-20 0 -41.5 10t-43 22.5t-43 22.5t-42.5 10q-27 0 -44 -12.5t-42 -38.5l-49 39q36 46 73.5 66t76.5 20q23 0 45 -10t43 -22.5t41.5 -22.5t41.5 -10q25 0 44 16.5t44 43.5zM479 233q-37 -45 -72 -68t-81 -23q-20 0 -41.5 10
t-43 22.5t-43 22.5t-42.5 10q-27 0 -44.5 -12.5t-41.5 -38.5l-50 39q36 46 74 66t77 20q23 0 44.5 -10t42.5 -22.5t41.5 -22.5t41.5 -10q25 0 44.5 16.5t44.5 43.5z" />
    <glyph glyph-name="notequal" unicode="&#x2260;" horiz-adv-x="500" 
d="M13 47l104 118h-96l13 67h142l110 125h-228l13 67h274l101 114h72l-101 -114h95l-13 -67h-141l-110 -125h227l-13 -67h-273l-106 -120z" />
    <glyph glyph-name="lessequal" unicode="&#x2264;" horiz-adv-x="530" 
d="M-1 1l12 64h441l-12 -64h-441zM508 412l-383 -121l336 -122l-14 -71l-408 163l11 60l472 162z" />
    <glyph glyph-name="greaterequal" unicode="&#x2265;" horiz-adv-x="530" 
d="M43 168l383 121l-336 122l14 71l408 -163l-11 -60l-472 -162zM16 1l12 64h441l-12 -64h-441z" />
    <glyph glyph-name="lozenge" unicode="&#x25ca;" horiz-adv-x="530" 
d="M298 -19h-69l-42 81.5l-44.5 86l-45 86l-42.5 81.5l87 168.5l87 168.5h70l171 -337zM263 557l-118 -240l60.5 -119.5l58.5 -119.5l59 119l59 119z" />
    <glyph glyph-name="zero.text" unicode="&#xe000;" horiz-adv-x="483" 
d="M210 -6q-34 0 -64 10.5t-52.5 30t-35.5 47.5t-13 63q0 25 4 45l62 316q8 41 26 77t45.5 62.5t65 41.5t83.5 15q34 0 64 -10.5t52 -30.5t35 -48t13 -62q0 -25 -4 -45l-62 -316q-8 -41 -25 -77t-44 -62.5t-64.5 -41.5t-85.5 -15zM413 532q0 42 -25 67.5t-67 25.5
q-27 0 -49.5 -10t-39 -27t-27 -40t-15.5 -48l-59 -304q-2 -8 -3 -16t-1 -16q0 -42 24 -67t66 -25q27 0 49.5 10t39.5 26.5t28 39t16 48.5l59 304q2 8 3 16t1 16z" />
    <glyph glyph-name="one.text" unicode="&#xe001;" horiz-adv-x="417" 
d="M212 0h-80l119 610l-102 -66l18 87l99 65h82z" />
    <glyph glyph-name="two.text" unicode="&#xe002;" horiz-adv-x="478" 
d="M-4 0l15 82l334 341q58 60 58 114q0 35 -23.5 60t-72.5 25q-44 0 -78 -30t-51 -78l-85 16q28 81 88.5 125.5t134.5 44.5q37 0 69.5 -9.5t55.5 -29t36.5 -48t13.5 -67.5q1 -48 -21 -85t-57 -73l-301 -307h285l-15 -81h-386z" />
    <glyph glyph-name="three.text" unicode="&#xe003;" horiz-adv-x="484" 
d="M320 701q43 0 75.5 -11.5t53.5 -31.5t31.5 -47t10.5 -58q0 -23 -5.5 -48t-19.5 -49.5t-37 -47.5t-57 -42q38 -24 52 -56.5t14 -66.5q0 -56 -20 -102t-53 -79t-77 -51t-92 -18q-32 0 -62 7.5t-54 25t-38.5 46.5t-14.5 72l83 12q2 -45 27.5 -66t65.5 -21q31 0 58.5 11.5
t48 33t32.5 51.5t12 67q0 48 -25 72.5t-70 24.5h-50l14 72h41q29 0 54.5 10.5t45 28.5t31 42.5t11.5 53.5q0 39 -25 63t-66 24q-17 0 -35.5 -5.5t-35.5 -16.5t-31 -28t-23 -40l-79 14q10 36 31 65t49 48.5t61 30t68 10.5z" />
    <glyph glyph-name="four.text" unicode="&#xe004;" horiz-adv-x="495" 
d="M390 106l-21 -106h-79l20 106h-296l16 80l335 510h87l-336 -513h209l40 205h80l-40 -205h57l-15 -77h-57z" />
    <glyph glyph-name="five.text" unicode="&#xe005;" horiz-adv-x="473" 
d="M440 325q0 -63 -12.5 -123t-41.5 -106.5t-78 -74.5t-121 -28q-32 0 -62 7.5t-54 25t-38.5 46.5t-14.5 72l83 12q2 -45 27.5 -66t65.5 -21q46 0 77 20.5t49.5 53.5t26 74t7.5 82q0 39 -19.5 66t-73.5 27q-32 0 -60 -16.5t-51 -45.5h-81l72 366h363l-16 -81h-286l-37 -191
q34 26 66.5 36t64.5 10q70 0 107 -39.5t37 -105.5z" />
    <glyph glyph-name="six.text" unicode="&#xe006;" horiz-adv-x="478" 
d="M196 -6q-35 0 -65 12t-51.5 33.5t-33.5 51t-12 65.5q0 42 13.5 84.5t36.5 76.5l266 379h91l-212 -303l2 -1q15 6 33 9t34 3q34 0 60.5 -12t43.5 -32.5t26 -48.5t9 -61q0 -54 -17 -100.5t-48.5 -81t-76 -54.5t-99.5 -20zM351 237q0 44 -22.5 70t-67.5 26
q-33 0 -59.5 -14.5t-44.5 -38.5t-27.5 -54t-9.5 -60q0 -43 22.5 -69.5t67.5 -26.5q32 0 58 15t44.5 39t28.5 54t10 59z" />
    <glyph glyph-name="seven.text" unicode="&#xe007;" horiz-adv-x="437" 
d="M131 0h-90l357 615h-212l-20 -104h-81l36 185h381l-16 -85z" />
    <glyph glyph-name="eight.text" unicode="&#xe008;" horiz-adv-x="484" 
d="M199 -6q-36 0 -67 11.5t-53.5 33t-35.5 52t-13 67.5q0 31 9 63t26.5 59.5t42 49t55.5 32.5q-29 20 -44 48t-15 63q0 47 19 89t51 73t74 49t89 18q34 0 63 -11.5t50 -32.5t33 -50t12 -63q0 -59 -31.5 -110t-85.5 -76q19 -8 32 -22t21 -31.5t11.5 -37t3.5 -38.5
q0 -52 -19.5 -95.5t-53.5 -74.5t-78.5 -48.5t-95.5 -17.5zM413 535q0 42 -24.5 67.5t-66.5 25.5q-30 0 -55 -12.5t-43 -32.5t-28.5 -47t-10.5 -55q0 -41 26 -64t66 -23q29 0 54 11.5t43 30.5t28.5 44.5t10.5 54.5zM366 224q0 45 -29.5 72.5t-73.5 27.5q-29 0 -56.5 -12
t-48.5 -32.5t-34 -47.5t-13 -56q0 -45 29 -74.5t74 -29.5q30 0 57.5 12.5t48.5 33.5t33.5 48.5t12.5 57.5z" />
    <glyph glyph-name="nine.text" unicode="&#xe009;" horiz-adv-x="473" 
d="M326 702q38 0 69 -12t52.5 -33.5t33.5 -51t12 -65.5q0 -42 -14.5 -84.5t-37.5 -76.5l-267 -379h-93l216 309l-3 1q-26 -11 -60 -11q-35 0 -62 11.5t-45.5 31.5t-28.5 47.5t-10 60.5q0 54 16 100t46.5 79.5t75 53t100.5 19.5zM172 459q0 -44 22 -70t67 -26q33 0 59.5 14.5
t44.5 38.5t27.5 54t9.5 60q0 43 -22.5 69.5t-67.5 26.5q-32 0 -58 -15t-44 -39t-28 -54t-10 -59z" />
    <glyph glyph-name="numbersign.text" unicode="&#xe00a;" horiz-adv-x="484" 
d="M19 273h100l50 152h-92l11 57h100l70 212h61l-70 -212h113l70 212h61l-70 -212h99l-11 -57h-107l-50 -152h99l-12 -57h-107l-70 -216h-61l70 216h-113l-70 -216h-61l70 216h-92zM180 273h113l50 152h-113z" />
    <glyph glyph-name="dollar.text" unicode="&#xe00b;" horiz-adv-x="467" 
d="M162 -4q-47 5 -91 24t-80 54q14 15 26.5 31t25.5 31q28 -26 60.5 -43t72.5 -22l48 243q-23 10 -49 24.5t-47.5 34.5t-35.5 47t-14 64q0 44 17.5 81t47 64.5t69.5 43.5t85 18l16 81h50l-17 -84q40 -5 78.5 -18.5t64.5 -35.5q-12 -16 -23.5 -33l-22.5 -33
q-23 17 -51.5 28.5t-59.5 16.5l-46 -233q28 -12 56 -25.5t50.5 -33t36 -47.5t13.5 -69v-8t-1 -9q-3 -44 -23 -79t-51.5 -59.5t-71.5 -38.5t-84 -16l-21 -111h-50zM354 196q0 20 -8 35.5t-20.5 27.5t-27.5 21t-28 15l-44 -224q27 3 50 13t40.5 26t27.5 37.5t10 48.5zM167 487
q0 -16 7 -29t17.5 -24t23.5 -19.5t25 -14.5l42 215q-21 -3 -41.5 -12.5t-37 -25.5t-26.5 -38.5t-10 -51.5z" />
    <glyph glyph-name="euro.text" unicode="&#xe00c;" horiz-adv-x="489" 
d="M166 375l-10 -56h210l-11 -54h-210l-5 -26q-6 -32 -4.5 -62.5t13.5 -54t35.5 -37.5t60.5 -14q52 0 92 31t67 76l77 -37q-19 -33 -45.5 -60.5t-58 -46.5t-67.5 -29.5t-74 -10.5q-56 0 -95 19.5t-61.5 53.5t-28.5 80t4 98l3 20h-44l11 54h44l10 56h-44l11 54h44l4 23
q10 51 31.5 96.5t54 79t77 53.5t100.5 20q77 0 123.5 -40.5t64.5 -106.5l-83 -33q-4 19 -14 37t-24 32.5t-32.5 23t-39.5 8.5q-39 0 -68.5 -14.5t-50.5 -39t-34 -56t-19 -64.5l-3 -19h210l-11 -54h-210z" />
    <glyph glyph-name="florin.text" unicode="&#xe00d;" horiz-adv-x="461" 
d="M113 424h98l16 69q8 34 22.5 71t38.5 67t59 49.5t85 19.5q23 0 43.5 -4t35.5 -10l-13.5 -37.5t-12.5 -37.5q-14 5 -32 7.5t-32 2.5q-23 0 -40.5 -10t-30 -27.5t-21 -39.5t-14.5 -46l-16 -74h106l-7 -73h-117l-52 -228q-11 -48 -26 -87t-37.5 -67t-53 -43.5t-71.5 -15.5
q-21 0 -47 5.5t-46 13.5q8 20 15 33.5t15 33.5q32 -13 59 -13q42 0 65.5 38t37.5 101l53 229h-87z" />
    <glyph glyph-name="sterling.text" unicode="&#xe00e;" horiz-adv-x="476" 
d="M239 294q-14 -61 -37.5 -115.5t-65.5 -102.5h300l-14 -76h-406l13 64q46 49 81 106.5t50 123.5h-93l13 65h79q-2 32 -8.5 63.5t-6.5 64.5q0 43 14 81.5t40.5 67.5t63.5 46.5t83 17.5q64 0 110 -22t73 -84l-72 -38q-17 38 -44 52.5t-68 14.5q-27 0 -47.5 -12.5t-35 -32.5
t-21.5 -44.5t-7 -48.5q0 -32 6.5 -63t6.5 -63h150l-14 -65h-143z" />
    <glyph glyph-name="cent.text" unicode="&#xe00f;" horiz-adv-x="422" 
d="M152 -117l22 114q-74 9 -108.5 60.5t-34.5 131.5q0 57 15 111t45 97t75 70.5t105 32.5l20 101h45l-20 -101q38 -4 74 -21t61 -47l-64 -60q-17 19 -38.5 32t-47.5 16l-67 -345q26 3 55.5 18.5t49.5 29.5l45 -60q-35 -30 -77.5 -48.5t-88.5 -20.5l-21 -111h-45zM113 199
q0 -50 17.5 -81t59.5 -40l65 340q-38 -6 -65 -27.5t-44 -52t-25 -67t-8 -72.5z" />
    <glyph glyph-name="yen.text" unicode="&#xe010;" horiz-adv-x="478" 
d="M344 362h117l-11 -54h-142l-15 -21l-14 -75h153l-11 -54h-153l-31 -158h-78l31 158h-152l10 54h152l15 75l-6 21h-142l11 54h115l-98 334h86l53 -197l34 -141l87 140l131 198h87z" />
    <glyph glyph-name="zero.taboldstyle" unicode="&#xe024;" horiz-adv-x="500" 
d="M309 501q79 0 122 -42.5t43 -108.5q0 -11 -1.5 -21.5t-3.5 -21.5l-25 -117q-8 -41 -23 -77t-40 -62.5t-61.5 -41.5t-88.5 -15q-77 0 -124 40.5t-47 110.5q0 25 4 45l25 117q8 41 24 76.5t42.5 61.5t64.5 41t89 15zM299 424q-33 0 -55.5 -11t-38 -28.5t-24.5 -39.5
t-13 -44l-22 -105q-2 -8 -3 -16t-1 -16q0 -42 24 -68t66 -26q34 0 57 10t38 27.5t24 40t14 48.5l22 105q2 9 3 18t1 17q0 38 -20.5 63t-71.5 25z" />
    <glyph glyph-name="one.taboldstyle" unicode="&#xe025;" horiz-adv-x="500" 
d="M104 75h120l65 335l-104 -66l18 87l102 65h83l-82 -421h123l-14 -75h-325z" />
    <glyph glyph-name="two.taboldstyle" unicode="&#xe026;" horiz-adv-x="500" 
d="M326 501q30 0 57.5 -7.5t49 -23t34 -39.5t12.5 -57q0 -23 -5.5 -44.5t-20.5 -43t-40 -44t-64 -48.5l-178 -117h270l-14 -77h-386l14 76l267 183q37 26 54 51t17 49q0 27 -19.5 46t-61.5 19q-45 0 -80.5 -26t-47.5 -76l-81 20q12 41 35 71t52.5 49.5t64 29t71.5 9.5z" />
    </font>
</defs>
</svg>
